<?xml version="1.0" encoding="utf-8"?>
<!-- Generator: Adobe Illustrator 25.0.0, SVG Export Plug-In . SVG Version: 6.00 Build 0)  -->
<svg version="1.1" id="logo" xmlns="http://www.w3.org/2000/svg" xmlns:xlink="http://www.w3.org/1999/xlink" x="0px" y="0px"
	 viewBox="0 0 685 297.5" style="enable-background:new 0 0 685 297.5;" xml:space="preserve">
<style type="text/css">
	.st0{fill:#FFFFFF;}
	.st1{fill:#00589D;}
	.st2{fill:#F26924;}
</style>
<path class="st0" d="M270.9,149.1c0,66-53.5,119.6-119.6,119.6S31.7,215.1,31.7,149.1c0-66,53.5-119.6,119.6-119.6
	S270.9,83,270.9,149.1"/>
<path class="st1" d="M563.2,238.4h-43.8c-8,0-14.4-6-14.4-14.4V74.7c0-8,6.4-14.2,14.4-14.2h43.8c59.4,0,92.1,39.8,92.1,88.9
	C655.4,198.6,622.2,238.4,563.2,238.4 M561.4,86.7h-27.5v125.5h27.5c42,0,65.4-24.8,65.4-62.7C626.8,111.3,603.8,86.7,561.4,86.7"/>
<path class="st1" d="M449.2,143.1c5.5-2,21.3-11.2,21.3-37.2c0-25.6-20.3-45.4-54.2-45.4h-61.7c-8,0-14.2,6.1-14.2,14.2V224
	c0,8,6.2,14.4,14.2,14.4h66c38,0,60.3-23.2,60.3-50.9C481,155.1,457.8,145.3,449.2,143.1z M369.1,86.7h46c18.8,0,26.9,9.9,26.9,22.4
	c0,12.3-8.6,22.4-26.9,22.4h-46V86.7z M421.7,212h-52.6v-54.5h52.6c21.2,0,30.7,13.6,30.7,27.2S442.7,212,421.7,212z"/>
<path class="st2" d="M100.5,142.8c-0.4,0.1-67.5,23-67.5,23c-0.8-5.5-1.2-11.1-1.2-16.8c0-17.5,3.8-34.1,10.5-49.1
	c0,0,58.1,41,58.5,41.3c0.4,0.3,0.5,0.5,0.5,0.7C101.2,142.5,100.9,142.7,100.5,142.8 M150.9,29.5c-23.5,0.1-45.5,7-63.9,18.8
	c0,0,47.5,50.3,49.1,51.9c0.3,0.3,0.6,0.5,0.9,0.5c0.3,0,0.6-0.2,0.7-0.7C138.2,96.7,150.9,29.5,150.9,29.5 M113.2,115.7
	c0-0.1,0-0.3-0.1-0.6c-0.1-0.3-26.9-66.4-26.9-66.4C67.3,61.1,52.1,78.5,42.6,99.2c0,0,68.8,17,69.3,17.1c0.2,0.1,0.4,0.1,0.6,0.1
	C112.9,116.4,113.2,116.1,113.2,115.7 M202.1,142.8c0.4,0.1,67.5,23,67.5,23c0.8-5.5,1.2-11.1,1.2-16.8c0-17.5-3.8-34.1-10.5-49.1
	c0,0-58.1,41-58.5,41.3c-0.4,0.3-0.5,0.5-0.5,0.7C201.4,142.5,201.7,142.7,202.1,142.8 M165,100c0.1,0.6,0.4,0.7,0.7,0.7
	c0.3,0,0.5-0.2,0.9-0.5c1.6-1.7,49.1-51.9,49.1-51.9c-18.5-11.8-40.4-18.7-63.9-18.8C151.7,29.5,164.4,96.7,165,100 M190,116.4
	c0.2,0,0.4,0,0.6-0.1c0.5-0.1,69.3-17.1,69.3-17.1c-9.5-20.6-24.7-38.1-43.6-50.4c0,0-26.8,66-26.9,66.4c-0.1,0.3-0.1,0.5-0.1,0.6
	C189.4,116.1,189.7,116.4,190,116.4"/>
<path class="st2" d="M151.3,268.6c59.9,0,109.5-44.1,118.2-101.6l-44.6,6.2c-0.7,0.1-1,0.5-1.1,0.9c-8.8,25.7-31.1,45.3-58.7,50.4
	c10.5-5.1,17.8-15.9,17.8-28.4c0-17.4-14.1-31.6-31.6-31.6c-17.4,0-31.6,14.1-31.6,31.6c0,12.5,7.2,23.3,17.8,28.4
	c-27.6-5-49.9-24.6-58.7-50.4c-0.2-0.5-0.4-0.8-1.1-0.9l-44.6-6.2C41.8,224.6,91.4,268.6,151.3,268.6"/>
</svg>
