<svg xmlns="http://www.w3.org/2000/svg" xmlns:xlink="http://www.w3.org/1999/xlink" id="Layer_1" x="0" y="0" version="1.1" viewBox="0 0 720 332.8" xml:space="preserve" style="enable-background:new 0 0 720 332.8"><style type="text/css">.st0{fill:#6ba638}.st1{fill:none}.st2{fill:#fff}.st3{font-family:&apos;Avenir-Roman&apos;}.st4{font-size:27.6156px}.st5{font-size:27.4858px}.st6,.st7{fill:#fff;stroke:#fff;stroke-miterlimit:10}.st7{fill:none;stroke-width:3;stroke-linecap:round;stroke-linejoin:round;stroke-dasharray:0,9}</style><polygon points="-219.4 262.8 363.7 448.6 932.6 262.8 932.6 -3 -219.4 -3" class="st0"/><g><rect width="811.9" height="124.4" x="-62.2" y="57.5" class="st1"/><text transform="matrix(1 0 0 1 113.5565 78.3286)"><tspan x="0" y="0" class="st2 st3 st4">Our comprehensive risk and business </tspan><tspan x="38.1" y="31.2" class="st2 st3 st4">continuity program focuses on:</tspan></text></g><g><rect width="246" height="202.5" x="-.3" y="285.3" class="st1"/><text class="st2 st3 st5" transform="matrix(1 0 0 1 57.0282 306.0593)">Identifying</text></g><rect width="149.2" height="86.4" x="271.2" y="285.3" class="st1"/><text class="st2 st3 st5" transform="matrix(1 0 0 1 277.0009 306.0593)">Monitoring</text><rect width="196.5" height="95.1" x="460.7" y="285.3" class="st1"/><text class="st2 st3 st5" transform="matrix(1 0 0 1 467.1473 306.0593)">Mitigating Risk</text><g id="_x31_oeEAw_2_"><g><path d="M551.1,244.4c-13.2,0-26.5,0-39.7,0c-6.8,0-11.7-4.9-10.8-11.2c0.4-2.5,1.7-4.9,3-7.2 c12.7-21.4,25.4-42.7,38.2-64c4.7-7.8,13.9-7.7,18.6,0.2c12.9,21.8,26,43.5,39,65.2c3.2,5.4,3,10.4-0.9,14.2 c-2.2,2.1-4.9,2.8-7.9,2.8C577.4,244.4,564.2,244.4,551.1,244.4z M550.9,237.4c12.9,0,25.9,0,38.8,0c1.7,0,3.4,0.2,4.5-1.6 c1.1-1.8,0-3.2-0.8-4.6c-13-21.8-26-43.5-38.9-65.3c-2.1-3.5-4.5-3.5-6.6,0c-13,21.8-26.1,43.6-39.1,65.5 c-0.8,1.4-1.7,2.7-0.7,4.4c1,1.7,2.6,1.6,4.2,1.6C525.1,237.4,538,237.4,550.9,237.4z" class="st2"/><path d="M571.6,267c0.4,0,0.6,0.1,0.8,0.1c-0.1,0-0.2,0.1-0.3,0.1C572,267.2,571.9,267.2,571.6,267z" class="st2"/><path d="M545.9,191.7c0-2,0-4,0-6c0.1-2.8,1.9-4.4,5.1-4.5c3.2,0,5.2,1.6,5.1,4.4c-0.4,7.9-0.9,15.8-1.3,23.6 c0,0.2,0,0.3-0.1,0.5c-0.5,3.2-1.6,4.5-3.6,4.5c-2.1,0-3.4-1.5-3.7-4.7c-0.5-6-0.8-11.9-1.2-17.9 C546.1,191.7,546,191.7,545.9,191.7z" class="st2"/><path d="M550.9,229.6c-3-0.1-5.2-2.4-5.1-5.4c0-2.9,2.5-5.3,5.4-5.2c2.9,0.1,5.2,2.6,5.2,5.5 C556.3,227.4,553.9,229.7,550.9,229.6z" class="st2"/></g></g><g id="eWCO4k_2_"><g><path d="M121.2,217.4c-10.9,10.9-21.6,21.7-32.4,32.5c-2.3-2.4-4.6-4.7-6.9-7c10.7-10.7,21.5-21.4,32.5-32.2 c-7.4-10.3-9.6-21.3-6.3-33.2c2.5-9,7.9-16,15.7-21c15.5-10,36-7,48.3,7.2c12,13.8,11.9,34.9-0.2,48.7 C159.9,226.3,138.3,229.8,121.2,217.4z M143.7,219.4c17.5,0.1,31.7-13.9,31.7-31.3c0.1-17.5-13.8-31.7-31.2-31.8 c-17.5-0.1-31.8,13.9-31.9,31.4C112.3,205.1,126.3,219.3,143.7,219.4z" class="st6"/><path d="M160.5,204.6c-0.9-0.9-1.7-1.8-2.6-2.7c3.9-3.9,6.1-8.6,6.1-14.2c0-5.5-2.2-10.1-6.1-14 c0.9-1,1.7-1.9,2.5-2.7C170.3,179.4,170.3,196.1,160.5,204.6z" class="st6"/></g></g><g id="_x34_HTDJG.tif_1_"><g><path d="M341.1,160.1c3.4,0,6.7,0,10.1,0c3.1,0.7,6.2,1.3,9.3,2.2c13.3,4,24.1,12,33.8,21.6c3.6,3.6,6.7,7.6,10,11.4 c0,0.9,0,1.8,0,2.7c-0.7,1.1-1.3,2.2-2.2,3.1c-3.3,3.5-6.5,7.1-9.9,10.4c-8.9,8.4-18.8,15.4-30.6,19.2c-3.4,1.1-6.9,1.7-10.3,2.5 c-3.4,0-6.7,0-10.1,0c-4.4-1.2-8.9-2-13.1-3.5c-13.4-5-24.1-13.9-33.8-24.2c-2.2-2.4-4.1-5-6.2-7.5c0-0.9,0-1.8,0-2.7 c0.8-1.1,1.4-2.3,2.3-3.3c3-3.2,5.9-6.5,9.1-9.6c9.2-8.7,19.3-16,31.5-19.9C334.2,161.5,337.7,160.9,341.1,160.1z M296,196.7 c9.2,10.3,19,19.2,31.5,24.9c9,4.1,18.3,5.7,28,3.2c16.9-4.4,29.2-15.4,40.7-28c-9.3-10.5-19.4-19.6-32.2-25.3 c-11.6-5.2-23.3-5.4-35-0.3C315.9,176.8,305.6,186,296,196.7z" class="st2"/><path d="M346.1,174.7c12.3,0,22,9.8,22,22.1c0,12.1-9.9,21.8-22.1,21.8c-12.2,0-21.9-9.9-21.8-22.2 C324.2,184.5,334.1,174.7,346.1,174.7z M331.5,196.8c0.1,7.9,6.8,14.6,14.6,14.6c8,0,14.7-6.7,14.7-14.7c0-7.9-6.7-14.5-14.6-14.6 C338.2,182,331.4,188.8,331.5,196.8z" class="st2"/></g></g><line x1="428.9" x2="493" y1="191.7" y2="191.7" class="st7"/><line x1="200.9" x2="264.9" y1="191.7" y2="191.7" class="st7"/></svg>