<svg xmlns="http://www.w3.org/2000/svg" xmlns:xlink="http://www.w3.org/1999/xlink" style="enable-background:new 0 0 796.9 847.3" id="Layer_1" x="0" y="0" version="1.1" viewBox="0 0 796.9 847.3" xml:space="preserve"><style type="text/css">.st0{fill:#8d2c8f}.st1{fill:#7a207b}.st2{fill:none}.st3{fill:#fff}.st4{font-family:&apos;Avenir-Black&apos;}.st5{font-size:42.6824px}.st6,.st7,.st8{stroke:#fff;stroke-miterlimit:10}.st6{fill:none;stroke-width:2.2846;stroke-linecap:round;stroke-linejoin:round;stroke-dasharray:0,6.8539}.st7{fill:#fff;stroke-width:1.842}.st8{fill:none;stroke-width:3;stroke-linecap:round;stroke-linejoin:round;stroke-dasharray:0,9}.st9{fill:#fff;stroke-width:1.6312}.st10,.st11,.st9{stroke:#fff;stroke-miterlimit:10}.st10{fill:none;stroke-width:2.2148;stroke-linecap:round;stroke-linejoin:round;stroke-dasharray:0,6.6444}.st11{fill:#fff;stroke-width:.8573}</style><polyline points="0 -774.8 0 479 810.8 479 810.8 -774.8" class="st0"/><polygon points="981.1 196.2 398 12.9 -170.9 196.2 -170.9 849.4 981.1 849.4" class="st1"/><line x1="-170.6" x2="981.4" y1="849.4" y2="849.4" class="st1"/><line x1="398.3" x2="-170.6" y1="12.9" y2="196.2" class="st1"/><line x1="981.4" x2="398.3" y1="196.2" y2="12.9" class="st1"/><rect width="1149.3" height="112.5" x="-169.2" y="257.3" class="st2"/><text transform="matrix(1 0 0 1 181.5914 289.5231)"><tspan x="0" y="0" class="st3 st4 st5">This ensures consistent </tspan><tspan x="65.6" y="44.1" class="st3 st4 st5">supply for you...</tspan></text><g><rect width="1149.3" height="251.3" x="-169.2" y="680.4" class="st2"/><text transform="matrix(1 0 0 1 163.0493 712.6432)"><tspan x="0" y="0" class="st3 st4 st5">...and uninterrupted care</tspan><tspan x="72.7" y="44.1" class="st3 st4 st5">for your patients.</tspan></text></g><g><g id="gpvJos_3_"><g><path d="M95,529.3c-0.7,0.2-1.2,0.4-1.8,0.5c-1.4,0.3-2.1-0.1-2.5-1.4c-0.8-2.5-1.6-5.1-2.4-7.6 c-0.4-1.3,0-2,1.2-2.5c0.4-0.1,0.7-0.2,1.1-0.3c9.5-3,19-5.9,28.5-8.9c0.4-0.1,0.9-0.3,1.3-0.3c1-0.2,1.6,0.3,1.9,1.2 c0.9,2.7,1.7,5.4,2.5,8.1c0.3,1.1-0.1,1.9-1.3,2.3c-0.6,0.2-1.2,0.4-1.9,0.6c0.2,0.5,0.3,1,0.4,1.4c6.2,19.8,12.3,39.6,18.5,59.4 c1.8,5.8,0.5,10.9-4,15c-6.9,6.2-17.9,4.1-21.9-4.5c-0.4-0.9-0.8-1.9-1.1-2.8c-6.1-19.5-12.2-39.1-18.2-58.6 C95.3,530.4,95.2,530,95,529.3z M105.3,550.3c0.1,0.3,0.1,0.4,0.1,0.6c4,13,8.1,26,12.2,39c1.9,6.1,9.8,8.8,15.2,5.5 c4.4-2.7,6.3-7.6,4.7-12.6c-3.9-12.6-7.8-25.1-11.7-37.7c-0.1-0.3-0.2-0.7-0.3-1.1C118.6,546.2,112,548.3,105.3,550.3z M119.6,512.7c-9.2,2.9-18.4,5.7-27.5,8.6c0.5,1.7,1,3.2,1.5,4.9c3.3-1,6.5-2,9.8-3c0.4-0.1,0.7-0.2,1.1-0.3 c0.9-0.1,1.5,0.4,1.7,1.2c0.2,0.8,0,1.5-0.8,1.9c-0.4,0.2-0.9,0.4-1.3,0.6c-1.9,0.6-3.8,1.2-5.7,1.8c2,6.3,3.9,12.5,5.8,18.6 c6.7-2.1,13.4-4.2,20.2-6.3c-0.1-0.5-0.3-0.9-0.4-1.3c-1.9-6.2-3.8-12.4-5.8-18.5c-0.5-1.6-0.1-2.3,1.5-2.8 c0.5-0.2,1-0.3,1.5-0.5C120.6,515.8,120.1,514.3,119.6,512.7z" class="st3"/><path d="M107.8,480.3c4.9-1.5,10.1,1.2,11.6,6.1c1.5,4.9-1.4,10.2-6.2,11.6c-4.9,1.4-10.1-1.3-11.6-6.1 C100.2,487,102.9,481.8,107.8,480.3z M116.1,487.4c-1-3.1-4.2-4.9-7.3-3.9c-3,0.9-4.8,4.3-3.8,7.3c1,3.1,4.2,4.8,7.3,3.8 C115.4,493.7,117.1,490.5,116.1,487.4z" class="st3"/><g><path d="M102.8,501.9c2.5-0.8,5.1,0.6,5.9,3c0.7,2.4-0.7,5.1-3.1,5.9c-2.4,0.8-5.1-0.6-5.9-3.1 C98.9,505.2,100.3,502.7,102.8,501.9z M104.9,507.4c0.1-0.4,0.5-0.9,0.4-1.4c-0.1-0.7-0.8-1-1.5-0.8c-0.7,0.2-1,0.8-0.8,1.5 C103.2,507.4,103.8,507.7,104.9,507.4z" class="st3"/></g><path d="M126.8,561c0.9,3,1.9,6,2.8,9c0.4,1.2,0,2.1-1,2.5c-1,0.4-1.9-0.1-2.3-1.4c-1.9-6.1-3.8-12.2-5.7-18.3 c-0.4-1.2,0-2.1,1-2.5c1-0.3,1.9,0.2,2.3,1.5C124.9,554.9,125.9,558,126.8,561z" class="st3"/><path d="M132.6,579.7c0.2,0.6,0.4,1.2,0.5,1.8c0.2,0.9-0.2,1.7-1,2c-0.8,0.3-1.8,0.1-2.1-0.8c-0.5-1.3-1-2.7-1.3-4.1 c-0.2-0.9,0.4-1.7,1.2-1.9c0.9-0.2,1.7,0.2,2.1,1.1C132.3,578.5,132.4,579.1,132.6,579.7z" class="st3"/></g></g><g id="VmG0DJ_3_"><g><path d="M177.4,465.6c0.6-7.3,4-9.8,11.2-8.3c0.6-5.9,3.2-9,7.9-9c4.6,0,7.3,3,7.9,8.8c1.4-0.1,2.9-0.4,4.3-0.3 c3.6,0.2,6.7,3.5,6.8,7.1c0.1,2.8,0,5.7,0,8.5c0,0.3,0,0.7,0,1.3c0.5-0.4,0.8-0.7,1.1-1c1.8-1.8,3.5-3.5,5.3-5.3 c4.1-4.2,10.4-3.1,12.9,2.2c0.1,0.1,0.1,0.2,0.2,0.4c5.1-4,8.9-4.1,12.4-0.4c2.9,3.1,2.5,7.4-1.3,11.6c2.9,1.2,4.6,3.2,5,6.3 c0.4,3.1-0.8,5.5-3,7.4c1,0.8,2.1,1.3,2.9,2.2c2.9,3.1,2.9,7.7-0.1,10.7c-0.7,0.8-1.5,1.5-2.2,2.2 c-10.7,10.7-21.4,21.4-32.1,32.1c-0.7,0.7-1.1,1.3-1.3,2.4c-0.7,3.9-3.8,6.5-7.9,6.5c-11,0.1-22.1,0.1-33.1,0c-4.8,0-8-3.5-8-8.3 c0-23.1,0-46.3,0-69.4c0-4.7,3.1-8,7.7-8.2C175,465,176.2,465.4,177.4,465.6z M211,503.8c0-13,0-26,0-39c0-1.3-0.4-2.3-1.5-3.1 c-1.1-0.7-2.3-0.8-3.4-0.2c-1.3,0.7-1.9,1.8-1.9,3.3c0,9.9,0,19.8,0,29.7c0,0.4,0,0.7,0,1.1c-0.1,1-0.6,1.7-1.7,1.9 c-1.6,0.4-2.8-0.7-2.8-2.5c0-11.8,0-23.6,0-35.3c0-1.3,0-2.5,0-3.8c0-1.8-1.4-3.1-3.2-3.2c-2.1-0.1-3.6,1.4-3.6,3.8 c0,12.7,0,25.4,0,38.1c0,0.4,0,0.7,0,1.1c-0.1,1-0.6,1.6-1.6,1.9c-1.6,0.4-2.9-0.6-2.9-2.4c0-6.6,0-13.1,0-19.7c0-3.7,0-7.3,0-11 c0-1.9-1.4-3.3-3.3-3.3c-2.1,0-3.4,1.5-3.4,3.8c0,8.2,0,16.4,0,24.6c0,1.9,0,3.9,0,5.8c0,1.2-0.6,1.9-1.6,2.2 c-1.6,0.4-2.8-0.6-2.9-2.4c0-7.3,0-14.6,0-21.9c0-1.1-0.3-2.1-1.2-2.8c-1.1-0.9-2.4-1-3.7-0.4c-1.5,0.7-1.9,2-1.9,3.6 c0,23.1,0,46.1,0,69.2c0,2.4,1.3,3.9,3.7,3.9c10.9,0,21.9,0,32.8,0c2.5,0,3.7-1.4,3.7-3.8C211,529.7,211,516.8,211,503.8z M215.5,536.9c0.4-0.4,0.7-0.6,0.9-0.8c10.2-10.2,20.5-20.5,30.7-30.7c0.3-0.3,0.6-0.5,0.8-0.9c0.3-0.8,0.8-1.7,0.7-2.5 c-0.1-1.4-1-2.3-2.3-2.7c-1.3-0.4-2.5,0-3.6,1c-5,5.1-10.1,10.1-15.1,15.1c-0.2,0.2-0.5,0.5-0.8,0.7c-0.7,0.6-1.9,0.7-2.6,0.1 c-0.8-0.6-1.2-1.4-0.9-2.3c0.2-0.6,0.6-1.2,1.1-1.6c6.9-6.9,13.9-13.9,20.8-20.8c0.4-0.4,0.8-0.8,1.1-1.3 c0.8-1.2,0.6-2.5-0.3-3.7c-0.7-1-2.1-1.5-3.4-1.1c-0.7,0.3-1.5,0.7-2,1.2c-6.9,6.9-13.8,13.8-20.8,20.7c-0.5,0.5-1.2,1.2-1.9,1.3 c-0.8,0.1-1.6-0.4-2.4-0.6C215.5,517.4,215.5,527,215.5,536.9z M215.4,505.2c0.1,0,0.2,0.1,0.2,0.1c0.3-0.3,0.5-0.7,0.9-1 c8.9-8.9,17.8-17.8,26.7-26.8c0.7-0.7,1.2-1.6,1.4-2.5c0.3-1.3-0.5-2.7-1.7-3.3c-1.3-0.7-3-0.4-4.1,0.8 c-7.6,7.6-15.3,15.2-22.9,22.9c-0.2,0.2-0.5,0.6-0.5,0.9C215.4,499.2,215.4,502.2,215.4,505.2z M215.4,489.4 c0.2-0.1,0.3-0.1,0.3-0.2c4.7-4.7,9.5-9.4,14.1-14.2c1.3-1.3,1.3-3.4,0.1-4.7c-1.3-1.3-3.4-1.4-4.8,0c-3.1,3.1-6.2,6.1-9.2,9.2 c-0.2,0.2-0.5,0.6-0.5,0.9C215.4,483.4,215.4,486.3,215.4,489.4z" class="st3"/></g></g><g id="FuHZdW_1_"><g><path d="M189.2,571.7c7.2,0.9,14.5,1.7,21.7,2.8c14,2.2,25.8,9.6,37.9,16.2c1.7,0.9,2.3,2.7,2.2,4.7 c0,0.6,0.2,1.6,0.7,1.8c10.8,6.1,8.3,19.7,2.2,26c-3.5,3.6-7.9,4.6-12.8,4c-1,2.5-2.6,4.1-5.4,3.8c-7.5-0.9-14.9-1.7-22.3-2.8 c-13.9-2.2-25.7-9.5-37.7-16.1c-1.8-1-2.5-2.6-2.3-4.6c0.1-1.1,0-1.8-1.1-2.3c-3.2-1.8-5.4-4.5-6.4-8 c-3.5-11.7,4.9-22.5,17.3-21.8C184.3,572.6,186.2,571.3,189.2,571.7z M176.8,606.4c-0.4,1.4-0.5,2.5,1,3.3 c9.9,5.3,19.4,11.6,30.5,14c9,1.9,18.1,2.9,27.2,4.1c0.7,0.1,2.1-0.9,2.4-1.7c3.3-10,6.5-20.1,9.5-30.2c0.2-0.8-0.4-2.4-1-2.8 c-10.2-5.5-19.9-12-31.4-14.3c-8.7-1.8-17.6-2.6-26.3-3.9c-1.5-0.2-2.2,0.7-2.6,2c-1.5,4.9-3.1,9.9-4.6,14.8 C180,596.6,178.4,601.5,176.8,606.4z M242.2,623.7c3.7,1.6,10.3-1.4,12.3-7.1c2.8-8,0.9-14.6-4.8-16.5 C247.1,608,244.6,615.9,242.2,623.7z M182.1,578.8c-5.5-1.4-10.7,2.2-12.7,8.7c-2.2,7.1-0.2,13,5.2,15 C177.1,594.7,179.6,586.8,182.1,578.8z" class="st3"/><path d="M209.6,608.9c-7-2.2-14.1-4.4-21.1-6.6c-0.4-0.1-0.8-0.4-1.1-0.3c-0.9,0.2-1.7,0.5-2.5,0.7 c0.5,0.8,0.9,2,1.6,2.2c3.3,1.2,6.8,2.2,10.2,3.3c11.2,3.5,22.3,7,33.5,10.5c0.7,0.2,1.3,0.6,2,0.5c0.6-0.1,1.3-0.6,1.5-1.1 c0.2-0.5-0.2-1.3-0.6-1.7c-0.5-0.4-1.2-0.5-1.9-0.7C223.9,613.4,216.7,611.2,209.6,608.9z" class="st3"/><path d="M215.7,590.7c-7.4-2.3-14.8-4.6-22.2-7c-1.1-0.4-2.4-0.8-2.9,0.7c-0.5,1.7,0.8,2,2,2.4 c14.6,4.6,29.1,9.2,43.7,13.8c1.2,0.4,2.5,0.9,3-0.8c0.4-1.5-0.8-1.9-2-2.2C230.2,595.3,223,593,215.7,590.7 C215.7,590.7,215.7,590.7,215.7,590.7z" class="st3"/><path d="M212.4,599.8c-7.3-2.3-14.5-4.6-21.7-6.8c-1.1-0.4-2.4-0.8-2.9,0.6c-0.6,1.6,0.7,2,1.9,2.4 c14.6,4.6,29.3,9.2,43.9,13.8c1.2,0.4,2.4,0.7,2.8-0.8c0.5-1.5-0.7-1.9-1.9-2.3C227.2,604.4,219.8,602.1,212.4,599.8z" class="st3"/></g></g><line x1="275.1" x2="330.1" y1="542.6" y2="542.6" class="st6"/><line x1="476.4" x2="531.4" y1="542.6" y2="542.6" class="st6"/><g id="kGeegU_7_"><g><path d="M413,517.1c-1.1,0-2,0-3,0c-1.2,0-1.9-0.7-1.9-1.9c0-4.6,0-9.3,0-13.9c0-1.3,0.6-1.9,1.9-1.9 c14.9,0,29.7,0,44.6,0c1.4,0,1.9,0.5,1.9,1.9c0,4.7,0,9.3,0,14c0,1.2-0.5,1.8-1.8,1.8c-0.9,0-1.9,0-2.8,0c0,0,0,0-0.2,0.1 c0,0.3,0,0.6,0,0.9c0,7.5,0,15,0,22.5c0,1.8-0.5,2.3-2.2,2.3c-11.4,0-22.9,0-34.3,0c-1.7,0-2.2-0.5-2.2-2.2c0-7.5,0-15,0-22.5 C413,517.9,413,517.6,413,517.1z M448.4,517.2c-10.8,0-21.5,0-32.2,0c0,7.5,0,15,0,22.5c10.8,0,21.5,0,32.2,0 C448.4,532.2,448.4,524.7,448.4,517.2z M453.3,513.8c0-3.8,0-7.5,0-11.2c-14,0-27.9,0-41.9,0c0,3.8,0,7.5,0,11.2 C425.4,513.8,439.3,513.8,453.3,513.8z" class="st7"/><path d="M451.7,568.6c0,0.5,0,0.9,0,1.2c0,7.4,0,14.9,0,22.3c0,1.8-0.5,2.3-2.2,2.3c-11.4,0-22.9,0-34.3,0 c-1.7,0-2.2-0.5-2.2-2.2c0-7.5,0-15,0-22.5c0-0.3,0-0.7,0-1.1c-1,0-1.8,0-2.7,0c-1.5,0-2.1-0.6-2.1-2.1c0-4.5,0-9.1,0-13.6 c0-1.5,0.6-2.1,2.1-2.1c14.7,0,29.5,0,44.2,0c1.6,0,2.1,0.5,2.1,2.1c0,4.6,0,9.2,0,13.8c0,1.2-0.5,1.8-1.8,1.8 C453.8,568.6,452.8,568.6,451.7,568.6z M416.3,568.6c0,7.6,0,15,0,22.5c10.7,0,21.4,0,32.2,0c0-7.5,0-15,0-22.5 C437.7,568.6,427,568.6,416.3,568.6z M453.3,565.3c0-3.8,0-7.5,0-11.2c-14,0-27.9,0-41.9,0c0,3.8,0,7.5,0,11.2 C425.4,565.3,439.3,565.3,453.3,565.3z" class="st7"/><path d="M358.1,517.1c-1.1,0-2,0-3,0c-1.3,0-1.9-0.6-1.9-1.9c0-4.6,0-9.3,0-13.9c0-1.4,0.6-1.9,2-1.9 c3.7,0,7.4,0,11.1,0c11,0,22,0,33,0c1.9,0,2.3,0.4,2.3,2.3c0,4.5,0,9,0,13.5c0,1.4-0.6,1.9-1.9,2c-0.9,0-1.9,0-2.9,0 c0,0.4,0,0.7,0,1.1c0,7.5,0,15.1,0,22.6c0,1.6-0.5,2.1-2.1,2.1c-11.5,0-23,0-34.5,0c-1.6,0-2.1-0.5-2.1-2.1c0-7.5,0-15,0-22.5 C358.1,517.9,358.1,517.6,358.1,517.1z M361.3,539.7c10.8,0,21.5,0,32.2,0c0-7.5,0-15,0-22.5c-10.8,0-21.5,0-32.2,0 C361.3,524.7,361.3,532.2,361.3,539.7z M356.5,513.8c0.3,0,0.5,0,0.7,0c13.5,0,26.9,0,40.4,0c0.6,0,0.8-0.2,0.8-0.8 c0-3.2,0-6.4,0-9.7c0-0.2,0-0.5-0.1-0.7c-14,0-27.9,0-41.9,0C356.5,506.4,356.5,510.1,356.5,513.8z" class="st7"/><path d="M396.8,568.6c0,0.4,0,0.8,0,1.1c0,7.5,0,15,0,22.5c0,1.7-0.5,2.1-2.1,2.1c-11.5,0-23,0-34.5,0 c-1.7,0-2.1-0.5-2.1-2.2c0-7.5,0-15,0-22.5c0-0.3,0-0.7,0-1.2c-1,0-1.9,0-2.8,0c-1.5,0-2.1-0.6-2.1-2c0-4.6,0-9.2,0-13.8 c0-1.4,0.6-2,2-2c14.9,0,29.7,0,44.6,0c1.3,0,1.9,0.6,1.9,1.9c0,4.6,0,9.3,0,13.9c0,1.3-0.6,1.9-1.9,1.9 C398.8,568.6,397.9,568.6,396.8,568.6z M393.5,591.1c0-7.6,0-15.1,0-22.5c-10.8,0-21.5,0-32.2,0c0,7.5,0,15,0,22.5 C372.1,591.1,382.8,591.1,393.5,591.1z M356.5,554c0,3.8,0,7.5,0,11.2c14,0,27.9,0,41.9,0c0-0.4,0-0.7,0-1c0-3,0-6,0-9 c0-1.2,0-1.2-1.2-1.2c-13.2,0-26.4,0-39.6,0C357.3,554,357,554,356.5,554z" class="st7"/></g></g><g id="sHVPQ6_3_"><g><path d="M575.4,571.4c11,0,21.9,0,33,0c0-0.5,0-0.9,0-1.4c0-7.6,0-15.3,0-22.9c0-2.8,1.6-4.4,4.4-4.4 c16.7,0,33.3-0.1,50,0c9.3,0.1,17.6,7.1,19.4,16.2c0.3,1.5,0.5,3.1,0.5,4.7c0,10.8,0,21.6,0,32.4c0,1.7-0.8,3.1-2.3,3.8 c-1.5,0.7-2.9,0.6-4.2-0.4c-1.2-0.9-1.7-2.1-1.7-3.6c0-4.9,0-9.9,0-14.8c0-0.4,0-0.8,0-1.3c-33,0-65.9,0-98.9,0 c0,0.5,0,0.9,0,1.3c0,4.9,0,9.9,0,14.8c0,2.5-1.7,4.4-4,4.4c-2.3,0.1-4.2-1.8-4.2-4.4c0-4.8,0-9.6,0-14.4c0-15.5,0-31.1,0-46.6 c0-2.6,1.3-4.2,3.5-4.6c2.6-0.4,4.7,1.4,4.7,4.1c0,8.1,0,16.3,0,24.4c0,3.7,0,7.5,0,11.2C575.4,570.5,575.4,570.9,575.4,571.4z M674.3,571.4c0-3.4,0-6.6,0-9.9c0-0.1,0-0.2-0.1-0.3c-1.3-6.4-6.2-10.3-12.9-10.3c-14.5,0-28.9,0-43.4,0c-0.4,0-0.8,0-1.2,0.1 c0,6.9,0,13.7,0,20.5C635.9,571.4,655.1,571.4,674.3,571.4z" class="st3"/><path d="M637.3,497.3c2.7,0,5.2,0,7.7,0c3.1,0,4.7,1.6,4.7,4.7c0,5.1,0,10.2,0,15.3c0,3.1-1.6,4.8-4.8,4.8 c-2.5,0-5,0-7.6,0c0,2.7,0,5.2,0,7.7c0,3-1.6,4.6-4.5,4.6c-5.2,0-10.4,0-15.6,0c-2.9,0-4.6-1.7-4.6-4.6c0-2.5,0-5,0-7.7 c-0.6,0-1.2,0-1.8,0c-2.3,0-4.7,0-7-0.2c-2.1-0.2-3.4-1.9-3.4-4c0-5.4,0-10.9,0-16.3c0-2.6,1.7-4.2,4.3-4.3c2.6,0,5.2,0,8,0 c0-0.5,0.1-0.9,0.1-1.3c0-2.3,0-4.6,0-6.8c0-2.3,1.5-4.1,3.8-4.2c3.7-0.2,7.4-0.1,11.1-0.1c2.1,0,4.2,0,6.2,0.1 c2.2,0.2,3.6,1.8,3.6,4C637.3,491.8,637.3,494.5,637.3,497.3z M608.5,513.8c2.7,0,5.2,0,7.7,0c2.9,0,4.6,1.7,4.6,4.6 c0,1.5,0,3,0,4.5c0,1.1,0,2.1,0,3.2c2.8,0,5.5,0,8.2,0c0-0.5,0-0.9,0-1.3c0-2.2,0-4.3,0-6.5c0-2.7,1.7-4.4,4.4-4.4 c2.1,0,4.2,0,6.4,0c0.5,0,1,0,1.6,0c0-2.8,0-5.5,0-8.2c-0.5,0-1,0-1.4,0c-2.4,0-4.8,0-7.2-0.1c-1.4,0-2.5-0.8-3.1-2 c-0.3-0.7-0.5-1.6-0.6-2.4c-0.1-2.6,0-5.1,0-7.7c-2.8,0-5.5,0-8.2,0c0,0.2-0.1,0.2-0.1,0.3c0,2.4,0,4.8,0,7.2 c0,3.2-1.6,4.8-4.8,4.8c-2.1,0-4.2,0-6.4,0c-0.4,0-0.8,0-1.2,0.1C608.5,508.4,608.5,511,608.5,513.8z" class="st3"/><path d="M591.9,567.4c-6.9,0-12.4-5.5-12.3-12.4c0-6.8,5.6-12.3,12.4-12.2c6.8,0,12.4,5.6,12.3,12.4 C604.3,561.8,598.7,567.4,591.9,567.4z M596.1,555.1c0-2.3-1.8-4.1-4.1-4.2c-2.2,0-4.1,1.9-4.2,4.1c0,2.2,1.9,4.1,4.1,4.2 C594.2,559.2,596,557.3,596.1,555.1z" class="st3"/></g></g></g><line x1="405.4" x2="405.4" y1="378.4" y2="463.2" class="st8"/><g id="kGeegU_8_"><g><path d="M306.8,139.7c-1.1,0-2,0-3,0c-1.2,0-1.9-0.7-1.9-1.9c0-4.7,0-9.3,0-14c0-1.3,0.6-1.9,1.9-1.9 c14.9,0,29.8,0,44.7,0c1.4,0,1.9,0.5,1.9,1.9c0,4.7,0,9.4,0,14c0,1.2-0.5,1.8-1.8,1.8c-0.9,0-1.9,0-2.8,0c0,0,0,0-0.2,0.1 c0,0.3,0,0.6,0,0.9c0,7.5,0,15,0,22.5c0,1.8-0.5,2.3-2.3,2.3c-11.5,0-22.9,0-34.4,0c-1.8,0-2.2-0.5-2.2-2.2c0-7.5,0-15,0-22.5 C306.8,140.5,306.8,140.2,306.8,139.7z M342.4,139.8c-10.8,0-21.5,0-32.2,0c0,7.6,0,15.1,0,22.5c10.8,0,21.5,0,32.2,0 C342.4,154.8,342.4,147.3,342.4,139.8z M347.2,136.4c0-3.8,0-7.5,0-11.2c-14,0-28,0-41.9,0c0,3.8,0,7.5,0,11.2 C319.3,136.4,333.2,136.4,347.2,136.4z" class="st9"/><path d="M345.6,191.3c0,0.5,0,0.9,0,1.2c0,7.4,0,14.9,0,22.3c0,1.8-0.5,2.3-2.3,2.3c-11.5,0-22.9,0-34.4,0 c-1.7,0-2.2-0.5-2.2-2.2c0-7.5,0-15,0-22.5c0-0.3,0-0.7,0-1.1c-1,0-1.8,0-2.7,0c-1.5,0-2.1-0.6-2.1-2.1c0-4.5,0-9.1,0-13.6 c0-1.5,0.6-2.1,2.1-2.1c14.8,0,29.5,0,44.3,0c1.6,0,2.1,0.5,2.1,2.1c0,4.6,0,9.2,0,13.9c0,1.2-0.5,1.8-1.8,1.8 C347.7,191.3,346.7,191.3,345.6,191.3z M310.1,191.3c0,7.6,0,15.1,0,22.6c10.8,0,21.5,0,32.2,0c0-7.6,0-15.1,0-22.6 C331.6,191.3,320.9,191.3,310.1,191.3z M347.2,188c0-3.8,0-7.5,0-11.2c-14,0-28,0-41.9,0c0,3.8,0,7.5,0,11.2 C319.3,188,333.2,188,347.2,188z" class="st9"/><path d="M251.8,139.7c-1.1,0-2,0-3,0c-1.3,0-1.9-0.6-1.9-1.9c0-4.7,0-9.3,0-14c0-1.4,0.6-1.9,2-1.9 c3.7,0,7.4,0,11.2,0c11,0,22,0,33.1,0c1.9,0,2.3,0.4,2.3,2.3c0,4.5,0,9,0,13.5c0,1.4-0.6,2-2,2c-0.9,0-1.9,0-2.9,0 c0,0.4,0,0.7,0,1.1c0,7.6,0,15.1,0,22.7c0,1.6-0.5,2.1-2.1,2.1c-11.5,0-23,0-34.5,0c-1.6,0-2.1-0.5-2.1-2.1c0-7.5,0-15.1,0-22.6 C251.8,140.5,251.8,140.2,251.8,139.7z M255,162.4c10.8,0,21.5,0,32.3,0c0-7.6,0-15.1,0-22.6c-10.8,0-21.5,0-32.3,0 C255,147.3,255,154.8,255,162.4z M250.2,136.4c0.3,0,0.5,0,0.7,0c13.5,0,27,0,40.4,0c0.6,0,0.8-0.2,0.8-0.8c0-3.2,0-6.5,0-9.7 c0-0.2,0-0.5-0.1-0.8c-14,0-28,0-41.9,0C250.2,129,250.2,132.6,250.2,136.4z" class="st9"/><path d="M290.6,191.3c0,0.4,0,0.8,0,1.1c0,7.5,0,15.1,0,22.6c0,1.7-0.5,2.1-2.1,2.1c-11.5,0-23,0-34.5,0 c-1.7,0-2.1-0.5-2.1-2.2c0-7.5,0-15,0-22.5c0-0.3,0-0.7,0-1.2c-1,0-1.9,0-2.8,0c-1.5,0-2.1-0.6-2.1-2c0-4.6,0-9.2,0-13.8 c0-1.4,0.6-2,2-2c14.9,0,29.8,0,44.7,0c1.3,0,1.9,0.6,1.9,1.9c0,4.7,0,9.3,0,14c0,1.3-0.6,1.9-1.9,1.9 C292.6,191.3,291.7,191.3,290.6,191.3z M287.3,213.9c0-7.6,0-15.1,0-22.5c-10.8,0-21.5,0-32.3,0c0,7.6,0,15,0,22.5 C265.9,213.9,276.6,213.9,287.3,213.9z M250.2,176.7c0,3.8,0,7.5,0,11.2c14,0,28,0,42,0c0-0.4,0-0.7,0-1c0-3,0-6,0-9.1 c0-1.2,0-1.2-1.2-1.2c-13.2,0-26.4,0-39.7,0C251,176.7,250.7,176.7,250.2,176.7z" class="st9"/></g></g><line x1="378.1" x2="458" y1="166" y2="166" class="st10"/><g><path d="M556.4,214.3h-90.3c-1.2,0-2.2-1-2.2-2.3l0,0c0.3-13.8,6.4-26.6,17.1-35.5c7.4-6.2,16.6-9.9,26.2-10.7 c14-1.1,27.3,3.7,37.2,13.4c8.9,8.7,13.9,20.4,14.2,32.9l0,0C558.6,213.3,557.6,214.3,556.4,214.3z M468.4,209.9h85.7 c-0.8-10.4-5.2-20.1-12.8-27.5c-8.1-7.9-18.8-12.3-30.1-12.3c-11.3,0-22,4.4-30.1,12.3C473.6,189.8,469.1,199.5,468.4,209.9z" class="st11"/></g><path d="M530.8,153c1.5-1.5,2.9-3.2,4.1-5C533.7,149.8,532.3,151.5,530.8,153z M519.7,154.9c-0.7,0.3-1.5,0.5-2.2,0.7	C518.2,155.5,519,155.2,519.7,154.9z M509.9,156.5c0.2,0,0.4,0,0.6,0c-0.2,0-0.5,0-0.7,0L509.9,156.5z" class="st11"/><path d="M511.2,104.9c-15.4,0-28,12.6-28,28c0,5,1.4,10,3.9,14.3c2.3,3.9,5.6,7.2,9.4,9.5c3.3,2.1,7.1,3.4,11,3.9	c0.3,0,0.6,0.1,0.9,0.1c0.3,0,0.5,0.1,0.8,0.1c0,0,0.1,0,0.1,0c0.1,0,0.2,0,0.3,0c0.5,0,1,0,1.6,0c0.4,0,0.7,0,1.1,0	c0.4,0,0.8,0,1.3-0.1c0.3,0,0.5,0,0.8-0.1c0.3,0,0.5-0.1,0.8-0.1c0.3,0,0.5-0.1,0.8-0.1c0.3-0.1,0.6-0.1,0.9-0.2	c0.3-0.1,0.6-0.1,0.9-0.2c0,0,0.1,0,0.1,0c0.9-0.2,1.7-0.5,2.6-0.8c0.3-0.1,0.6-0.2,0.9-0.3c0.3-0.1,0.6-0.2,0.9-0.3	c0.3-0.1,0.6-0.2,0.8-0.4c0.3-0.1,0.6-0.3,0.8-0.4c0.3-0.1,0.5-0.3,0.8-0.4c0.3-0.1,0.5-0.3,0.8-0.5c0.3-0.2,0.5-0.3,0.8-0.5	c0.3-0.2,0.5-0.3,0.8-0.5c0.3-0.2,0.5-0.3,0.7-0.5c0.6-0.5,1.2-1,1.8-1.5c0.2-0.2,0.4-0.4,0.6-0.5c0.2-0.2,0.4-0.4,0.6-0.6	c1.6-1.5,2.9-3.2,4.1-5c0.3-0.5,0.6-0.9,0.8-1.4c2.3-4.1,3.5-8.9,3.5-13.6C539.2,117.5,526.7,104.9,511.2,104.9" class="st11"/><path d="M511.2,109.4c13,0,23.6,10.6,23.6,23.6c0,4-1,8-3,11.5v0c-0.3,0.6-0.7,1.2-1.1,1.7c-0.3,0.4-0.5,0.8-0.8,1.1	c-0.1,0.2-0.3,0.4-0.4,0.5c-0.6,0.7-1.2,1.4-1.9,2c-0.1,0.1-0.3,0.3-0.4,0.4c-0.2,0.2-0.5,0.4-0.7,0.6c-0.1,0.1-0.3,0.2-0.4,0.4	c-0.2,0.1-0.4,0.3-0.5,0.4c-0.4,0.3-0.7,0.5-1.1,0.8c-0.2,0.1-0.4,0.3-0.7,0.4c-0.2,0.1-0.4,0.3-0.6,0.4c-0.1,0.1-0.3,0.2-0.4,0.3	c-0.1,0.1-0.3,0.2-0.4,0.2c-0.2,0.1-0.4,0.2-0.6,0.3c-0.2,0.1-0.4,0.2-0.6,0.3c0,0-0.1,0-0.1,0c-0.2,0.1-0.4,0.2-0.6,0.3	c-0.3,0.1-0.5,0.2-0.8,0.3c-0.7,0.3-1.5,0.5-2.2,0.7c-0.3,0.1-0.5,0.1-0.8,0.2c-0.2,0.1-0.5,0.1-0.7,0.2c-0.2,0-0.4,0.1-0.5,0.1	c-0.2,0-0.4,0.1-0.6,0.1c-0.4,0.1-0.7,0.1-1.1,0.1c-0.3,0-0.5,0.1-0.8,0.1h0c-0.2,0-0.4,0-0.5,0c-0.1,0-0.3,0-0.4,0	c-0.3,0-0.5,0-0.8,0c-0.3,0-0.5,0-0.8,0c-0.2,0-0.4,0-0.6,0l-0.1,0l-0.6,0h0c-0.1,0-0.1,0-0.2,0c-0.1,0-0.1,0-0.2,0	c-0.2,0-0.4,0-0.7-0.1c-7-1-13.4-5.1-17.1-11.3c-2.2-3.6-3.3-7.8-3.3-12C487.7,119.9,498.2,109.4,511.2,109.4" class="st11"/><g><path d="M496.6,156.8c3.3,2.1,7.1,3.4,11,3.9c-0.3,0-0.6-0.1-1-0.1l-0.7-0.1c-0.4-0.1-0.7-0.2-1.1-0.2 c-0.2,0-0.3-0.1-0.5-0.1l-0.7-0.2c-0.2-0.1-0.4-0.1-0.6-0.2c-0.3-0.1-0.5-0.2-0.8-0.3C500.2,158.8,498.3,157.9,496.6,156.8 L496.6,156.8z" class="st11"/><path d="M507.6,160.7c0.3,0,0.6,0.1,0.9,0.1c-0.1,0-0.2,0-0.3,0C508,160.8,507.8,160.7,507.6,160.7z" class="st11"/><path d="M508.5,160.8c0.3,0,0.5,0.1,0.8,0.1c-0.1,0-0.3,0-0.4,0C508.7,160.8,508.6,160.8,508.5,160.8z" class="st11"/><path d="M509.7,160.9c0.5,0,1,0,1.6,0C510.6,161,510.1,160.9,509.7,160.9z" class="st11"/><path d="M517.8,160.2c0.9-0.2,1.7-0.5,2.6-0.8C519.6,159.7,518.7,160,517.8,160.2z" class="st11"/><path d="M531.8,144.4c-0.3,0.6-0.7,1.2-1.1,1.7C531.1,145.6,531.5,145,531.8,144.4z" class="st11"/></g></svg>