<?xml version="1.0" encoding="utf-8"?>
<!-- Generator: Adobe Illustrator 25.0.0, SVG Export Plug-In . SVG Version: 6.00 Build 0)  -->
<svg version="1.1" id="Layer_1" xmlns="http://www.w3.org/2000/svg" xmlns:xlink="http://www.w3.org/1999/xlink" x="0px" y="0px"
	 viewBox="0 0 138.6 134.7" style="enable-background:new 0 0 138.6 134.7;" xml:space="preserve">
<style type="text/css">
	.st0{fill:#FFFFFF;}
</style>
<g id="_x34_HTDJG.tif_1_">
	<g>
		<path class="st0" d="M64.5,31.1c3.4,0,6.7,0,10.1,0c3.1,0.7,6.2,1.3,9.3,2.2c13.3,4,24.1,12,33.8,21.6c3.6,3.6,6.7,7.6,10,11.4
			c0,0.9,0,1.8,0,2.7c-0.7,1.1-1.3,2.2-2.2,3.1c-3.3,3.5-6.5,7.1-9.9,10.4c-8.9,8.4-18.8,15.4-30.6,19.2c-3.4,1.1-6.9,1.7-10.3,2.5
			c-3.4,0-6.7,0-10.1,0c-4.4-1.2-8.9-2-13.1-3.5c-13.4-5-24.1-13.9-33.8-24.2c-2.2-2.4-4.1-5-6.2-7.5c0-0.9,0-1.8,0-2.7
			c0.8-1.1,1.4-2.3,2.3-3.3c3-3.2,5.9-6.5,9.1-9.6c9.2-8.7,19.3-16,31.5-19.9C57.6,32.5,61.1,31.9,64.5,31.1z M19.4,67.8
			C28.6,78,38.5,87,50.9,92.6c9,4.1,18.3,5.7,28,3.2c16.9-4.4,29.2-15.4,40.7-28c-9.3-10.5-19.4-19.6-32.2-25.3
			c-11.6-5.2-23.3-5.4-35-0.3C39.3,47.8,29,57.1,19.4,67.8z"/>
		<path class="st0" d="M69.5,45.8c12.3,0,22,9.8,22,22.1c0,12.1-9.9,21.8-22.1,21.8s-21.9-9.9-21.8-22.2
			C47.6,55.5,57.5,45.8,69.5,45.8z M54.9,67.9c0.1,7.9,6.8,14.6,14.6,14.6c8,0,14.7-6.7,14.7-14.7c0-7.9-6.7-14.5-14.6-14.6
			C61.6,53.1,54.8,59.9,54.9,67.9z"/>
	</g>
</g>
</svg>
