<svg xmlns="http://www.w3.org/2000/svg" xmlns:xlink="http://www.w3.org/1999/xlink" id="Layer_1" x="0" y="0" version="1.1" viewBox="0 0 323.1 202.8" xml:space="preserve" style="enable-background:new 0 0 323.1 202.8"><style type="text/css">.st0,.st1{stroke:#fff;stroke-miterlimit:10}.st0{fill:none;stroke-width:3;stroke-linecap:round;stroke-linejoin:round;stroke-dasharray:0,9}.st1{stroke-width:.9791}.st1,.st2{fill:#fff}.st3,.st4{fill:none;stroke:#fff;stroke-width:1.5417;stroke-linecap:round;stroke-linejoin:round}.st4{stroke-dasharray:0,4.5927}.st5{stroke-dasharray:0,5.2253}.st5,.st6,.st7{fill:none;stroke:#fff;stroke-width:1.5417;stroke-linecap:round;stroke-linejoin:round}.st6{stroke-miterlimit:10;stroke-dasharray:0,4.6251}.st7{stroke-dasharray:0,4.593}</style><line x1="183.6" x2="183.6" y1="139.5" y2="197.3" class="st0"/><g><path d="M233.7,71.3c-0.5-0.1-1-0.1-1.4-0.1c-0.6-0.1-0.8-0.4-0.8-1c0.2-2.2,0.4-4.4,0.7-6.6c0.1-0.6,0.4-0.9,1-0.8 c1.8,0.2,3.5,0.4,5.3,0.5c5.2,0.5,10.4,1.1,15.6,1.6c0.9,0.1,1.1,0.3,1,1.2c-0.2,2.1-0.4,4.3-0.6,6.4c-0.1,0.7-0.4,0.9-1,0.8 c-0.4,0-0.9-0.1-1.4-0.1c0,0.2,0,0.3-0.1,0.5c-0.4,3.6-0.7,7.1-1.1,10.7c-0.1,0.8-0.3,1-1.1,0.9c-5.4-0.6-10.9-1.1-16.3-1.7 c-0.8-0.1-1-0.3-0.9-1.1c0.4-3.6,0.7-7.1,1.1-10.7C233.7,71.7,233.7,71.5,233.7,71.3z M234.2,82.1c5.1,0.5,10.2,1,15.2,1.5 c0.4-3.6,0.7-7.1,1.1-10.7c-5.1-0.5-10.1-1-15.2-1.5C234.9,75,234.5,78.6,234.2,82.1z M233.2,69.7c0.1,0,0.2,0,0.3,0.1 c6.4,0.6,12.7,1.3,19.1,1.9c0.3,0,0.4,0,0.4-0.4c0.1-1.5,0.3-3,0.5-4.6c0-0.1,0-0.2,0-0.4c-6.6-0.7-13.2-1.3-19.8-2 C233.5,66.1,233.3,67.9,233.2,69.7z" class="st1"/><g id="EI9vsu_2_"><g><path d="M98.5,78.1c-0.1,26-21.1,47-47,46.9c-26,0-47.1-21.1-47-47.3c0.2-25.6,20.8-46.7,47.1-46.6 C78.3,31.2,98.5,52.9,98.5,78.1z M74.3,76c6.5,0,13.3,0,20.1,0c0-0.2,0.1-0.4,0-0.5c-0.5-6.6-2.2-12.9-5.6-18.6 c-0.2-0.4-0.9-0.8-1.4-0.8c-5.1-0.1-10.1,0-15.2,0c-0.3,0-0.7,0.1-0.7,0.1C72.5,62.9,73.4,69.4,74.3,76z M31.4,56.2 c-0.3,0-0.7,0-1.1,0c-4.9,0-9.9,0-14.8,0c-0.8,0-1.1,0.3-1.5,0.9c-2,3.6-3.5,7.4-4.4,11.5c-0.5,2.5-0.8,5-1.2,7.5 c7.1,0,13.9,0,20.3,0C29.5,69.4,30.4,62.8,31.4,56.2z M71.5,99.4c0.2,0,0.4,0.1,0.6,0.1c5.3,0,10.6,0,15.9,0c0.4,0,1-0.4,1.3-0.8 c2.2-4,3.7-8.2,4.6-12.7c0.4-1.9,0.5-3.9,0.8-5.8c-7,0-13.8,0-20.5,0c-0.3,3.3-0.5,6.5-1,9.7C72.7,93.1,72.1,96.2,71.5,99.4z M31.3,99.5c-0.9-6.5-1.8-12.9-2.6-19.3c-6.5,0-13.3,0-20.1,0c0.3,6.7,2.1,12.9,5.3,18.6c0.2,0.4,0.9,0.6,1.4,0.6 c3.6,0.1,7.2,0,10.8,0C27.8,99.5,29.7,99.5,31.3,99.5z M32.8,75.9c0.4,0.1,0.5,0.2,0.7,0.2c5.1,0,10.2,0,15.3,0 c0.9,0,0.8-0.5,0.8-1.1c0-5.9,0-11.8,0-17.7c0-0.9-0.2-1.2-1.2-1.2c-3.8,0-7.7,0-11.5,0c-0.8,0-1.2,0.3-1.3,1 C35,59.8,34.3,62.3,34,65C33.5,68.6,33.2,72.3,32.8,75.9z M69.9,76.1c0-0.2,0.1-0.4,0.1-0.6c-0.2-6.3-1-12.5-2.7-18.5 c-0.1-0.3-0.7-0.7-1.1-0.7c-3.9-0.1-7.8,0-11.8,0c-0.3,0-0.6,0.1-0.9,0.1c0,6.7,0,13.2,0,19.8C59.1,76.1,64.5,76.1,69.9,76.1z M49.5,80.2c-5.6,0-11,0-16.5,0c0,0.2-0.1,0.4-0.1,0.5c0.3,6,1,12,2.5,17.8c0.2,0.9,0.6,1.1,1.4,1c3.4,0,6.7,0,10.1,0 c0.8,0,1.7,0,2.6,0C49.5,93,49.5,86.6,49.5,80.2z M53.6,80.1c0,6.5,0,12.9,0,19.3c4.6,0,9.1,0,13.7,0c1.7-6.3,2.6-12.7,2.8-19.3 C64.5,80.1,59.1,80.1,53.6,80.1z M42.7,120.2c-5.1-4.8-7.7-10.6-9.8-16.7c-5.3,0-10.6,0-16.1,0C23.4,112.2,31.8,117.8,42.7,120.2 z M60.3,120.2c10.9-2.5,19.3-8,25.9-16.8c-5.4,0-10.5,0-15.6,0c-0.2,0-0.6,0.4-0.7,0.6C67.8,110,65.2,115.6,60.3,120.2z M41.8,36.3c-10.1,2.3-18.2,7.6-24.7,15.9c5.3,0,10.2,0,15.2,0c0.3,0,0.8-0.4,0.9-0.7C35.2,45.9,37.7,40.7,41.8,36.3z M85.9,52.2 c-6.6-8.3-14.7-13.7-24.8-16.1c1.1,1.4,2.2,2.7,3.1,4c2.4,3.4,4.1,7.2,5.5,11.1c0.1,0.4,0.6,0.9,0.9,0.9 C75.6,52.2,80.6,52.2,85.9,52.2z M37,103.5c0.5,1.3,1,2.5,1.5,3.7c1.5,3.5,3.4,6.8,6.2,9.6c1.3,1.3,2.8,2.4,4.8,2.8 c0-5.4,0-10.7,0-16.1C45.3,103.5,41.2,103.5,37,103.5z M65.8,103.5c-4.1,0-8.2,0-12.3,0c0,5.2,0,10.3,0,15.3c0,0.2,0,0.4,0.1,0.6 C58.6,118.6,64,110.1,65.8,103.5z M49.5,36.2C44,37.5,38.7,46.7,37.4,52.1c4,0,8,0,12.1,0C49.5,46.8,49.5,41.6,49.5,36.2z M65.6,52.2c0-0.1,0.1-0.2,0-0.3c-1.8-5-4.1-9.8-8.1-13.4c-1.1-1-2.6-1.6-4-2.6c0,5.7,0,10.9,0,16.2 C57.7,52.2,61.6,52.2,65.6,52.2z" class="st2"/></g></g><g><g><g><line x1="158" x2="158" y1="106.6" y2="106.6" class="st3"/><line x1="153.8" x2="109.8" y1="104.8" y2="85.2" class="st4"/><line x1="107.7" x2="107.7" y1="84.3" y2="84.3" class="st3"/></g></g><g><g><line x1="223.8" x2="223.8" y1="80.4" y2="80.4" class="st3"/><line x1="219.8" x2="213.7" y1="83.7" y2="88.7" class="st5"/><line x1="211.7" x2="211.7" y1="90.3" y2="90.3" class="st3"/></g></g></g><line x1="290.7" x2="259" y1="92.8" y2="72.7" class="st6"/><g><g><line x1="196.4" x2="196.4" y1="41" y2="41" class="st3"/><line x1="195.9" x2="192.6" y1="45.6" y2="75.2" class="st7"/><line x1="192.3" x2="192.3" y1="77.5" y2="77.5" class="st3"/></g></g><path d="M167.6,101.4c-0.9,0-1.7,0-2.5,0c-1.1,0-1.6-0.5-1.6-1.6c0-3.9,0-7.9,0-11.8c0-1.1,0.5-1.6,1.7-1.6 c3.1,0,6.3,0,9.4,0c9.3,0,18.6,0,27.9,0c1.6,0,1.9,0.4,1.9,1.9c0,3.8,0,7.6,0,11.4c0,1.2-0.5,1.6-1.6,1.7c-0.8,0-1.6,0-2.5,0 c0,0.3,0,0.6,0,0.9c0,6.4,0,12.8,0,19.2c0,1.4-0.4,1.8-1.8,1.8c-9.7,0-19.5,0-29.2,0c-1.4,0-1.8-0.4-1.8-1.8c0-6.4,0-12.7,0-19.1 C167.6,102.1,167.6,101.8,167.6,101.4z M170.3,120.5c9.1,0,18.2,0,27.3,0c0-6.4,0-12.7,0-19.1c-9.1,0-18.2,0-27.3,0 C170.3,107.8,170.3,114.1,170.3,120.5z M166.3,98.6c0.2,0,0.4,0,0.6,0c11.4,0,22.8,0,34.2,0c0.5,0,0.7-0.1,0.7-0.7 c0-2.7,0-5.4,0-8.2c0-0.2,0-0.4-0.1-0.6c-11.8,0-23.6,0-35.4,0C166.3,92.3,166.3,95.4,166.3,98.6z" class="st1"/><path d="M187.2,20c-0.6,0.1-1.1,0.2-1.7,0.3c-0.7,0.1-1.1-0.2-1.2-0.9c-0.5-2.6-0.9-5.1-1.4-7.7 c-0.1-0.7,0.1-1.1,0.9-1.3c2-0.4,4.1-0.7,6.1-1.1c6.1-1.1,12.1-2.2,18.2-3.3c1-0.2,1.3,0,1.5,1c0.4,2.5,0.9,5,1.3,7.4 c0.1,0.8-0.1,1.1-0.9,1.3c-0.5,0.1-1,0.2-1.6,0.3c0,0.2,0.1,0.4,0.1,0.6c0.7,4.2,1.5,8.3,2.2,12.5c0.2,0.9-0.1,1.2-1,1.4 c-6.3,1.1-12.7,2.3-19,3.4c-0.9,0.2-1.2-0.1-1.4-1c-0.7-4.1-1.5-8.3-2.2-12.4C187.2,20.4,187.2,20.2,187.2,20z M191.2,32.1 c5.9-1.1,11.8-2.1,17.8-3.2c-0.7-4.2-1.5-8.3-2.2-12.4c-5.9,1.1-11.8,2.1-17.8,3.2C189.7,23.8,190.4,27.9,191.2,32.1z M186,18.3 c0.2,0,0.3,0,0.4,0c7.4-1.3,14.8-2.7,22.2-4c0.4-0.1,0.5-0.2,0.4-0.5c-0.3-1.8-0.6-3.5-1-5.3c0-0.1-0.1-0.3-0.1-0.4 c-7.7,1.4-15.4,2.7-23.1,4.1C185.2,14.2,185.6,16.2,186,18.3z" class="st1"/><path d="M296.4,107.1c-0.5,0.2-0.9,0.4-1.3,0.5c-0.6,0.2-0.9,0.1-1.2-0.5c-0.8-2-1.7-4.1-2.5-6.1 c-0.2-0.6-0.1-1,0.5-1.2c1.6-0.7,3.3-1.3,4.9-2c4.8-2,9.7-4,14.5-5.9c0.8-0.3,1.1-0.2,1.4,0.6c0.8,2,1.6,4,2.4,5.9 c0.2,0.6,0.1,1-0.5,1.2c-0.4,0.2-0.8,0.3-1.3,0.5c0.1,0.2,0.1,0.3,0.2,0.5c1.4,3.3,2.7,6.6,4.1,10c0.3,0.7,0.2,1-0.6,1.3 c-5.1,2.1-10.1,4.1-15.2,6.2c-0.7,0.3-1,0.2-1.3-0.6c-1.4-3.3-2.7-6.6-4-9.9C296.5,107.4,296.4,107.3,296.4,107.1z M301.8,116.4 c4.7-1.9,9.5-3.9,14.2-5.8c-1.4-3.3-2.7-6.6-4-9.9c-4.7,1.9-9.4,3.9-14.2,5.8C299.1,109.8,300.5,113.1,301.8,116.4z M295.1,105.9 c0.1,0,0.2-0.1,0.3-0.1c5.9-2.4,11.8-4.8,17.8-7.2c0.3-0.1,0.3-0.2,0.2-0.5c-0.6-1.4-1.2-2.8-1.7-4.2c0-0.1-0.1-0.2-0.2-0.3 c-6.2,2.5-12.3,5-18.4,7.5C293.7,102.6,294.4,104.3,295.1,105.9z" class="st1"/></g></svg>