<svg xmlns="http://www.w3.org/2000/svg" xmlns:xlink="http://www.w3.org/1999/xlink" id="Layer_1" x="0" y="0" version="1.1" viewBox="0 0 126.8 127.5" xml:space="preserve" style="enable-background:new 0 0 126.8 127.5"><style type="text/css">.st0{fill:#fff}</style><g id="VmG0DJ_10_"><g><path d="M32,30.7c0.6-7,3.9-9.5,10.8-8c0.5-5.7,3.1-8.7,7.6-8.7c4.5,0,7.1,2.9,7.6,8.5c1.4-0.1,2.8-0.4,4.2-0.3 c3.5,0.2,6.5,3.4,6.5,6.9c0.1,2.7,0,5.5,0,8.2c0,0.3,0,0.7,0,1.2c0.5-0.4,0.7-0.7,1-1c1.7-1.7,3.4-3.4,5.1-5.1c4-4,10-3,12.5,2.1 c0.1,0.1,0.1,0.2,0.2,0.3c4.9-3.8,8.6-4,12-0.4c2.8,3,2.4,7.1-1.3,11.2c2.8,1.1,4.5,3.1,4.9,6.1c0.4,2.9-0.7,5.3-2.9,7.1 c1,0.7,2,1.3,2.8,2.1c2.8,3,2.8,7.4-0.1,10.4c-0.7,0.7-1.4,1.4-2.2,2.2C90.5,84,80.2,94.3,69.9,104.6c-0.7,0.7-1.1,1.3-1.3,2.3 c-0.6,3.8-3.6,6.3-7.6,6.3c-10.7,0-21.3,0.1-32,0c-4.7,0-7.7-3.4-7.7-8c0-22.3,0-44.6,0-67c0-4.5,2.9-7.7,7.4-7.9 C29.8,30.2,30.9,30.5,32,30.7z M64.4,67.6c0-12.6,0-25.1,0-37.7c0-1.3-0.4-2.3-1.4-3c-1-0.7-2.2-0.8-3.3-0.2 c-1.3,0.7-1.8,1.8-1.8,3.2c0,9.6,0,19.1,0,28.7c0,0.3,0,0.7,0,1c-0.1,1-0.6,1.6-1.6,1.9c-1.5,0.4-2.7-0.6-2.7-2.4 c0-11.4,0-22.7,0-34.1c0-1.2,0-2.4,0-3.7c0-1.7-1.4-3-3-3.1c-2.1-0.1-3.4,1.4-3.4,3.6c0,12.2,0,24.5,0,36.7c0,0.3,0,0.7,0,1 c-0.1,0.9-0.6,1.6-1.5,1.8c-1.5,0.4-2.8-0.6-2.8-2.3c0-6.3,0-12.7,0-19c0-3.5,0-7.1,0-10.6c0-1.8-1.4-3.1-3.2-3.2 c-2,0-3.3,1.4-3.3,3.7c0,7.9,0,15.8,0,23.7c0,1.9,0,3.7,0,5.6c0,1.1-0.6,1.9-1.5,2.1c-1.5,0.4-2.8-0.6-2.8-2.3 c0-7.1,0-14.1,0-21.2c0-1.1-0.3-2-1.1-2.7c-1.1-0.9-2.3-1-3.5-0.4c-1.4,0.7-1.8,2-1.8,3.5c0,22.3,0,44.5,0,66.8 c0,2.4,1.2,3.7,3.6,3.7c10.6,0,21.1,0,31.7,0c2.4,0,3.6-1.3,3.6-3.7C64.4,92.6,64.4,80.1,64.4,67.6z M68.8,99.5 c0.4-0.4,0.6-0.6,0.9-0.8c9.9-9.9,19.8-19.8,29.6-29.6c0.3-0.3,0.6-0.5,0.7-0.8c0.3-0.8,0.7-1.6,0.7-2.4c-0.1-1.3-0.9-2.3-2.2-2.6 c-1.3-0.4-2.5,0-3.4,1c-4.9,4.9-9.7,9.7-14.6,14.6c-0.2,0.2-0.5,0.5-0.7,0.7c-0.7,0.6-1.8,0.6-2.6,0.1c-0.8-0.5-1.2-1.3-0.9-2.2 c0.2-0.6,0.6-1.1,1.1-1.6c6.7-6.7,13.4-13.4,20.1-20.1c0.4-0.4,0.8-0.8,1-1.2c0.7-1.2,0.6-2.4-0.3-3.6c-0.7-1-2.1-1.5-3.3-1.1 C94.2,50,93.5,50.5,93,51c-6.7,6.6-13.3,13.3-20,20c-0.5,0.5-1.2,1.1-1.9,1.2c-0.7,0.1-1.5-0.3-2.3-0.6 C68.8,80.7,68.8,90,68.8,99.5z M68.7,68.9c0.1,0,0.2,0.1,0.2,0.1c0.3-0.3,0.5-0.7,0.8-1c8.6-8.6,17.2-17.2,25.8-25.8 c0.6-0.6,1.2-1.5,1.4-2.4c0.3-1.3-0.5-2.6-1.7-3.2c-1.3-0.7-2.9-0.4-4,0.7c-7.4,7.4-14.7,14.7-22.1,22.1c-0.2,0.2-0.5,0.6-0.5,0.8 C68.7,63.2,68.7,66.1,68.7,68.9z M68.7,53.7c0.2-0.1,0.3-0.1,0.3-0.2c4.6-4.5,9.1-9.1,13.6-13.7c1.3-1.3,1.2-3.3,0.1-4.5 c-1.3-1.3-3.3-1.3-4.7,0c-3,2.9-6,5.9-8.9,8.9c-0.2,0.2-0.4,0.6-0.4,0.9C68.7,47.9,68.7,50.7,68.7,53.7z" class="st0"/></g></g></svg>