<?xml version="1.0" encoding="utf-8"?>
<!-- Generator: Adobe Illustrator 25.0.0, SVG Export Plug-In . SVG Version: 6.00 Build 0)  -->
<svg version="1.1" id="Layer_1" xmlns="http://www.w3.org/2000/svg" xmlns:xlink="http://www.w3.org/1999/xlink" x="0px" y="0px"
	 viewBox="0 0 126.8 127.5" style="enable-background:new 0 0 126.8 127.5;" xml:space="preserve">
<style type="text/css">
	.st0{fill:#FFFFFF;}
</style>
<g id="sHVPQ6_9_">
	<g>
		<path class="st0" d="M25.5,85.6c8.5,0,16.9,0,25.4,0c0-0.4,0-0.7,0-1.1c0-5.9,0-11.8,0-17.6c0-2.1,1.2-3.4,3.4-3.4
			c12.8,0,25.7-0.1,38.5,0c7.2,0,13.5,5.5,14.9,12.5c0.2,1.2,0.4,2.4,0.4,3.6c0,8.3,0,16.6,0,24.9c0,1.3-0.6,2.4-1.8,2.9
			c-1.1,0.5-2.3,0.5-3.3-0.3c-0.9-0.7-1.3-1.6-1.3-2.8c0-3.8,0-7.6,0-11.4c0-0.3,0-0.6,0-1c-25.4,0-50.7,0-76.1,0c0,0.4,0,0.7,0,1
			c0,3.8,0,7.6,0,11.4c0,2-1.3,3.4-3.1,3.4c-1.8,0-3.2-1.4-3.2-3.4c0-3.7,0-7.4,0-11c0-12,0-23.9,0-35.9c0-2,1-3.2,2.7-3.5
			c2-0.3,3.7,1.1,3.7,3.1c0,6.3,0,12.5,0,18.8c0,2.9,0,5.8,0,8.6C25.5,85,25.5,85.3,25.5,85.6z M101.6,85.7c0-2.6,0-5.1,0-7.6
			c0-0.1,0-0.2-0.1-0.3c-1-4.9-4.8-7.9-9.9-7.9c-11.1,0-22.3,0-33.4,0c-0.3,0-0.6,0-0.9,0c0,5.3,0,10.5,0,15.8
			C72,85.7,86.8,85.7,101.6,85.7z"/>
		<path class="st0" d="M73.1,28.6c2.1,0,4,0,5.9,0c2.4,0,3.6,1.2,3.6,3.6c0,3.9,0,7.8,0,11.8c0,2.4-1.2,3.7-3.7,3.7
			c-1.9,0-3.8,0-5.9,0c0,2,0,4,0,5.9c0,2.3-1.2,3.5-3.5,3.5c-4,0-8,0-12,0c-2.2,0-3.5-1.3-3.5-3.5c0-1.9,0-3.9,0-5.9
			c-0.5,0-1,0-1.4,0c-1.8,0-3.6,0-5.4-0.1c-1.6-0.1-2.6-1.4-2.6-3.1c0-4.2,0-8.4,0-12.6c0-2,1.3-3.3,3.3-3.3c2,0,4,0,6.1,0
			c0-0.4,0-0.7,0-1c0-1.8,0-3.5,0-5.3c0-1.8,1.2-3.1,2.9-3.2c2.8-0.1,5.7-0.1,8.5-0.1c1.6,0,3.2,0,4.8,0.1c1.7,0.1,2.8,1.4,2.8,3.1
			C73.1,24.4,73.1,26.4,73.1,28.6z M50.9,41.3c2,0,4,0,6,0c2.2,0,3.5,1.3,3.5,3.5c0,1.2,0,2.3,0,3.5c0,0.8,0,1.6,0,2.4
			c2.2,0,4.2,0,6.3,0c0-0.4,0-0.7,0-1c0-1.7,0-3.3,0-5c0-2.1,1.3-3.4,3.4-3.4c1.6,0,3.3,0,4.9,0c0.4,0,0.8,0,1.2,0
			c0-2.2,0-4.2,0-6.3c-0.4,0-0.8,0-1.1,0c-1.8,0-3.7,0-5.5-0.1c-1.1,0-2-0.6-2.4-1.6c-0.3-0.6-0.4-1.2-0.4-1.9c-0.1-2,0-4,0-6
			c-2.2,0-4.2,0-6.3,0c0,0.1,0,0.2,0,0.2c0,1.8,0,3.7,0,5.5c0,2.4-1.2,3.7-3.7,3.7c-1.6,0-3.3,0-4.9,0c-0.3,0-0.6,0-0.9,0.1
			C50.9,37.1,50.9,39.1,50.9,41.3z"/>
		<path class="st0" d="M38.2,82.5c-5.3,0-9.5-4.2-9.5-9.6c0-5.2,4.3-9.4,9.6-9.4c5.2,0,9.5,4.3,9.5,9.5
			C47.7,78.3,43.4,82.5,38.2,82.5z M41.3,73c0-1.7-1.4-3.2-3.1-3.2c-1.7,0-3.2,1.4-3.2,3.2c0,1.7,1.4,3.2,3.2,3.2
			C39.9,76.2,41.3,74.8,41.3,73z"/>
	</g>
</g>
</svg>
