<svg xmlns="http://www.w3.org/2000/svg" xmlns:xlink="http://www.w3.org/1999/xlink" id="Layer_1" x="0" y="0" version="1.1" viewBox="0 0 133.4 129.5" xml:space="preserve" style="enable-background:new 0 0 133.4 129.5"><style type="text/css">.st0{fill:#f07822;stroke:#fff;stroke-miterlimit:10}</style><g id="sHVPQ6_10_"><g><path d="M20.3,92.2c10.4,0,20.6,0,31,0c0-0.5,0-0.9,0-1.3c0-7.2,0-14.4,0-21.6c0-2.6,1.5-4.2,4.1-4.2 c15.7,0,31.4-0.1,47.1,0c8.7,0.1,16.5,6.7,18.2,15.3c0.3,1.4,0.4,2.9,0.4,4.4c0,10.2,0,20.3,0,30.5c0,1.6-0.7,2.9-2.2,3.6 c-1.4,0.7-2.8,0.6-4-0.4c-1.1-0.8-1.6-2-1.6-3.4c0-4.6,0-9.3,0-13.9c0-0.4,0-0.8,0-1.2c-31.1,0-62,0-93.1,0c0,0.4,0,0.8,0,1.2 c0,4.6,0,9.3,0,13.9c0,2.4-1.6,4.1-3.8,4.2c-2.2,0.1-3.9-1.7-3.9-4.2c0-4.5,0-9,0-13.5c0-14.6,0-29.3,0-43.9 c0-2.4,1.2-3.9,3.3-4.3c2.4-0.4,4.5,1.3,4.5,3.8c0,7.7,0,15.3,0,23c0,3.5,0,7,0,10.6C20.3,91.4,20.3,91.8,20.3,92.2z M113.3,92.2 c0-3.2,0-6.3,0-9.3c0-0.1,0-0.2-0.1-0.3c-1.2-6-5.8-9.7-12.1-9.7c-13.6,0-27.2,0-40.8,0c-0.4,0-0.8,0-1.1,0c0,6.5,0,12.9,0,19.3 C77.3,92.2,95.2,92.2,113.3,92.2z" class="st0"/><path d="M78.5,22.5c2.5,0,4.9,0,7.2,0c2.9,0,4.4,1.5,4.4,4.4c0,4.8,0,9.6,0,14.4c0,2.9-1.5,4.5-4.5,4.5 c-2.3,0-4.7,0-7.2,0c0,2.5,0,4.9,0,7.3c0,2.8-1.5,4.3-4.3,4.3c-4.9,0-9.8,0-14.7,0c-2.7,0-4.3-1.6-4.3-4.3c0-2.4,0-4.7,0-7.3 c-0.6,0-1.2,0-1.7,0c-2.2,0-4.4,0-6.6-0.2c-2-0.2-3.2-1.8-3.2-3.7c0-5.1,0-10.2,0-15.4c0-2.4,1.6-4,4-4c2.5,0,4.9,0,7.5,0 c0-0.4,0.1-0.8,0.1-1.2c0-2.1,0-4.3,0-6.4c0-2.2,1.4-3.8,3.6-3.9c3.5-0.1,7-0.1,10.4-0.1c2,0,3.9,0,5.9,0.1 c2.1,0.2,3.4,1.7,3.4,3.8C78.5,17.3,78.5,19.8,78.5,22.5z M51.4,38c2.5,0,4.9,0,7.3,0c2.7,0,4.3,1.6,4.3,4.3c0,1.4,0,2.8,0,4.2 c0,1,0,2,0,3c2.7,0,5.1,0,7.7,0c0-0.5,0-0.9,0-1.3c0-2,0-4.1,0-6.1c0-2.5,1.6-4.1,4.1-4.2c2,0,4,0,6,0c0.5,0,1,0,1.5,0 c0-2.7,0-5.1,0-7.8c-0.5,0-0.9,0-1.3,0c-2.3,0-4.5,0-6.8-0.1c-1.3,0-2.4-0.7-2.9-1.9c-0.3-0.7-0.5-1.5-0.5-2.3 c-0.1-2.4,0-4.8,0-7.3c-2.7,0-5.2,0-7.7,0c0,0.2-0.1,0.2-0.1,0.3c0,2.3,0,4.5,0,6.8c0,3-1.5,4.5-4.5,4.5c-2,0-4,0-6,0 c-0.4,0-0.8,0-1.2,0.1C51.4,32.9,51.4,35.4,51.4,38z" class="st0"/><path d="M35.9,88.4c-6.5,0-11.6-5.2-11.6-11.7c0-6.4,5.2-11.5,11.7-11.5c6.4,0,11.6,5.3,11.6,11.6 C47.5,83.2,42.3,88.4,35.9,88.4z M39.7,76.8c0-2.1-1.7-3.9-3.8-3.9c-2.1,0-3.9,1.8-3.9,3.9c0,2.1,1.7,3.9,3.9,3.9 C37.9,80.7,39.7,78.9,39.7,76.8z" class="st0"/></g></g></svg>