<?xml version="1.0" encoding="utf-8"?>
<!-- Generator: Adobe Illustrator 25.0.0, SVG Export Plug-In . SVG Version: 6.00 Build 0)  -->
<svg version="1.1" id="Layer_1" xmlns="http://www.w3.org/2000/svg" xmlns:xlink="http://www.w3.org/1999/xlink" x="0px" y="0px"
	 viewBox="0 0 907.3 954" style="enable-background:new 0 0 907.3 954;" xml:space="preserve">
<style type="text/css">
	.st0{fill:#8D2C8F;}
	.st1{fill:none;stroke:#8D2D8E;stroke-width:2.1341;stroke-linecap:round;stroke-linejoin:round;}
	.st2{fill:none;stroke:#8D2D8E;stroke-width:2.1341;stroke-linecap:round;stroke-linejoin:round;stroke-dasharray:0,6.3542;}
	.st3{fill:none;}
	.st4{fill:#FFFFFF;}
	.st5{font-family:'Avenir-Roman';}
	.st6{font-size:27.6156px;}
	.st7{fill:#FFFFFF;stroke:#FFFFFF;stroke-width:1.0271;stroke-miterlimit:10;}
	
		.st8{fill:none;stroke:#FFFFFF;stroke-width:3;stroke-linecap:round;stroke-linejoin:round;stroke-miterlimit:10;stroke-dasharray:0,9;}
	.st9{fill:#FFFFFF;stroke:#FFFFFF;stroke-width:0.659;stroke-miterlimit:10;}
	.st10{fill:#E54598;}
	.st11{fill:#F07822;}
	.st12{fill:#194890;}
	.st13{fill:#80C343;}
	.st14{font-family:'Verdana';}
	.st15{font-size:11px;}
	.st16{font-size:18px;}
	.st17{fill:#FFFFFF;stroke:#FFFFFF;stroke-width:0.4896;stroke-miterlimit:10;}
	.st18{fill:none;stroke:#FFFFFF;stroke-width:2.0178;stroke-linecap:round;stroke-linejoin:round;}
	.st19{fill:none;stroke:#FFFFFF;stroke-width:2.0178;stroke-linecap:round;stroke-linejoin:round;stroke-dasharray:0,6.0642;}
	.st20{fill:none;stroke:#FFFFFF;stroke-width:2.0178;stroke-linecap:round;stroke-linejoin:round;stroke-dasharray:0,5.8696;}
	.st21{fill:#FFFFFF;stroke:#FFFFFF;stroke-width:1.2814;stroke-miterlimit:10;}
	.st22{fill:none;stroke:#FFFFFF;stroke-width:6.0534;stroke-linejoin:round;stroke-miterlimit:10;}
	
		.st23{fill:none;stroke:#FFFFFF;stroke-width:2.0178;stroke-linecap:round;stroke-linejoin:round;stroke-miterlimit:10;stroke-dasharray:0,6.0534;}
	.st24{fill:#FFFFFF;stroke:#FFFFFF;stroke-width:0.6142;stroke-miterlimit:10;}
</style>
<rect x="-87.2" y="-2.3" class="st0" width="1062" height="1253.8"/>
<g>
	<g>
		<line class="st1" x1="684.8" y1="55.9" x2="684.8" y2="55.9"/>
		<line class="st2" x1="681.8" y1="50.2" x2="597.4" y2="-109.9"/>
		<line class="st1" x1="595.9" y1="-112.8" x2="595.9" y2="-112.8"/>
	</g>
</g>
<g>
	<rect x="35" y="467.1" class="st3" width="814.2" height="67.9"/>
	<text transform="matrix(1 0 0 1 215.546 488.0102)"><tspan x="0" y="0" class="st4 st5 st6">We’ve also made multi-million-dollar</tspan><tspan x="-6.5" y="31.2" class="st4 st5 st6">investments to increase U.S. capacity.</tspan></text>
</g>
<g>
	<path class="st7" d="M217.7,374.8c4.6,13.1,9.1,26.1,13.7,39.2c1,2.9,0.5,4-2.4,5c-20,7-39.9,14-59.9,21c-2.9,1-4,0.5-5-2.4
		c-4.6-13.1-9.2-26.2-13.8-39.3c-0.2-0.6-0.4-1.2-0.6-1.9c-1.8,0.6-3.4,1.2-5,1.8c-2.4,0.8-3.7,0.2-4.6-2.2
		c-2.7-7.8-5.5-15.6-8.2-23.4c-1.1-3.2-0.6-4.3,2.6-5.4c19.1-6.7,38.2-13.4,57.3-20.1c6.5-2.3,12.9-4.5,19.4-6.8
		c2.4-0.8,3.8-0.2,4.6,2.2c2.8,8.1,5.7,16.1,8.5,24.2c0.8,2.2,0.1,3.6-2.1,4.4c-1.6,0.6-3.3,1.2-5.2,1.8
		C217.3,373.6,217.5,374.2,217.7,374.8z M211.4,374.9c-18.7,6.5-37.3,13-56,19.6c4.6,13,9.1,26,13.7,39.1c18.6-6.5,37.2-13,56-19.6
		C220.5,400.9,216,387.9,211.4,374.9z M211,346.7c-24.3,8.5-48.4,16.9-72.7,25.4c0.1,0.5,0.2,0.9,0.3,1.3c1.9,5.6,3.9,11.2,5.8,16.8
		c0.4,1.1,0.9,1.3,2,0.9c23.4-8.2,46.7-16.4,70.1-24.6c0.4-0.1,0.8-0.3,1.3-0.5C215.5,359.6,213.2,353.2,211,346.7z"/>
	<line class="st8" x1="130" y1="417.8" x2="-78.5" y2="492.2"/>
</g>
<g>
	<path class="st9" d="M761.6,472.4c-3.3,8.2-6.6,16.5-9.8,24.7c-0.7,1.8-1.4,2.1-3.2,1.4c-12.6-5-25.2-10-37.8-15.1
		c-1.8-0.7-2.1-1.4-1.4-3.2c3.3-8.3,6.6-16.6,9.9-24.8c0.1-0.4,0.3-0.7,0.5-1.2c-1.2-0.5-2.2-0.9-3.2-1.3c-1.5-0.6-1.9-1.5-1.3-3
		c2-4.9,3.9-9.9,5.9-14.8c0.8-2,1.5-2.3,3.5-1.5c12.1,4.8,24.1,9.6,36.2,14.4c4.1,1.6,8.2,3.2,12.2,4.9c1.5,0.6,1.9,1.5,1.3,3
		c-2,5.1-4.1,10.2-6.1,15.3c-0.5,1.4-1.5,1.8-2.9,1.3c-1.1-0.4-2.1-0.8-3.3-1.3C761.9,471.7,761.7,472,761.6,472.4z M758.5,469.8
		c-11.8-4.7-23.5-9.4-35.3-14.1c-3.3,8.2-6.5,16.4-9.8,24.7c11.8,4.7,23.5,9.4,35.3,14.1C752,486.2,755.2,478,758.5,469.8z
		 M770.1,456c-15.3-6.1-30.6-12.2-45.9-18.3c-0.1,0.3-0.3,0.5-0.4,0.8c-1.4,3.5-2.8,7.1-4.2,10.6c-0.3,0.7-0.1,1,0.6,1.3
		c14.8,5.9,29.5,11.7,44.3,17.6c0.2,0.1,0.5,0.2,0.8,0.3C766.9,464.1,768.5,460.1,770.1,456z"/>
	<line class="st8" x1="986.2" y1="565.4" x2="781" y2="482.4"/>
</g>
<g>
	<g>
		<g>
			<path class="st4" d="M553,110.7c-3.8,3.6-8.6,8.1-9.2,9.3c-0.3,2.9,0.5,9.9,1.6,11.2c0.3,0.4,0.8,0.9,1.4,1.4
				c2.3,2.1,5.8,5.3,4.4,9.2c-0.9,2.4-6.4,5.7-15.4,10.7c-4.2,2.3-9.8,5.5-10.6,6.5c-0.5,1.5-0.5,7.5-0.4,10c0,0.7-0.1,1.4-0.4,2
				l-2.6,5.4c0.2,2.3,1.1,13.6-1.3,19.1c-1.8,4.1-4.1,7.4-5.4,9.1c0.9,0.9,1.8,1.7,2.6,2.6c3.8,3.6,7,6.8,7.3,10.3
				c0.4,4.6-8.2,12.8-20.4,23.8c-4.2,3.8-8.9,8-9.5,9.2c-0.4,3.4-3.8,7.6-4.2,8.1l-0.2,0.2c-0.1,0.1-11.2,9.7-12.2,19.2
				c-0.8,7.4,13.5,29.1,20.5,38.9c1,1.4,1.6,2.9,1.7,4.6c0.3,2.7,0.4,7.5-0.4,14.5c-0.5,4.4-2.1,7.7-4.9,9.7
				c-2.7,2.1-6.5,2.8-10.9,2c-0.9-0.1-2.7-0.4-14.2-15.1c-3.8-4.8-10.9-14.2-11.3-15.2c-0.2-0.7-0.4-4.9-0.4-12.4
				c-1.4-5.2-7.2-8.2-8.3-8.7c-2.8-0.3-4.7,1.4-6.9,3.4c-2.1,1.9-4.3,3.8-7.4,3.8c-5.4,0-7.7-6.2-8.6-8.9c-0.1-0.2-0.2-0.5-0.3-0.7
				c-1.3-0.5-7.3,0.4-13.1,2.1c-4.6,1.4-8.3,1.7-11.1,1.5c0.4,1.3,0.4,2.7-0.1,4.2c-2,5.7-10.8,11.3-15.9,12.6
				c-5.4,1.3-11.9-2.5-15.7-4.8c-0.5-0.3-0.9-0.6-1.4-0.8c-0.4-0.3-0.9-0.4-1.5-0.5c-0.3,0-0.7-0.1-1.3-0.2c-3-0.4-8.5-1.2-14.1-0.3
				c-5.6,0.8-22.2,15.6-29,22c1.1,3.7,4.3,16.2-1.1,20.1c-1.5,1.1-3.1,1.6-4.5,1.6c-3,0-5.6-1.8-7.1-3.4c-5.3,0.3-9.5-2.5-12.9-4.9
				c-1.1-0.8-2.2-1.5-3.2-2c-4.1-2.1-3.9-10.4-3.6-13.2l-6.7-7.4c-1.1-1.2-1.9-2.6-2.3-4.1c-0.8-2.7-2.2-7.2-3.9-9.4
				c-1.7-2.2-5.7-2.7-7.8-2.8c-1.4,1.7-5.6,6.4-12.8,6.9c-0.2,0-0.4,0-0.6,0c-8.5,0-14.6-11.9-14.9-12.4l-0.1-0.2l-1.1-6.3
				c-7.1-13.6-15-14.5-19.3-15.1c-2.1-0.3-4,2.1-5.1,3.8c-0.8,1.2-2,2-3.4,2.1c-6.9,0.7-18.5-2.7-25.3-4.9
				c-7.2-2.4-15.5-6.9-20.8-10.4c-3-2-7-3.8-10.1-5.3c-1.7-0.8-3.1-1.5-4.2-2.1c-2.6-1.4-4.7-3.7-5.6-4.6
				c-2.5-0.4-13.1-1.9-15.6-2.4c-3.4-0.7-3.5-6.1-3.4-8.6c-2.3-2.2-11.8-11.3-14.8-14.5c-1.5-1.6-2.3-2.1-3.3-2.6
				c-1.1-0.6-2.4-1.3-4.4-3.5c-3.4-3.7-3.9-11.5-4-13.7c-1.1-1.3-4.2-6.2-5.6-8.6c-0.5-0.8-0.8-1.8-0.8-2.7v-11.4
				c0-3.1-5.2-17.9-6.8-22.1c-0.3-0.8-0.4-1.5-0.4-2.4l-0.2-18.4c0-1,0.2-1.9,0.7-2.7c0.7-1.4,2.1-3.7,4.3-6.2
				c2.1-2.4,1.4-12.1,0.5-17.6c0-0.1,0-0.2,0-0.2c0-0.4,0.2-0.9,0.6-1.2c4.1-3.1,7.5-10.2,9.9-16.7c2.4-6.5,3.8-12.4,3.9-13.3
				c0.4-6.5,1.7-27.4,4-30.4c1.4-1.9,2.9-2.8,4.7-3c2-0.2,4.3,0.9,6.7,3.2c1.5,1.4,2.4,2,3,2.3c0.1-0.1,0,0,0.1-0.1
				c-0.7-2.3-0.3-4.2,1-5.4c3.1-2.8,11-1.4,23.9,4.2c12.4,5.3,45.2,10.8,71.8,14.1c25.2,3.2,87.7,7.9,110.7,7.5
				c1.4-1.2,5.7-4.6,9.9-2.3c3.9,2.2,4.5,3.9,4.4,6.9c3.4-0.2,9.4-0.5,11.2,0.2c1.7,0.7,6.2,3.9,8.2,5.3c1.4-0.9,4-2.2,7.7-1.6
				c2.6,0.5,4.3,1.2,5.3,1.8c1.8-2.2,5.8-6.5,10.4-6c5.3,0.6,29.7,15.3,33.3,17.5c2.5,0.7,6.8,3,7.6,7.5c1.2,0,2.1,0.3,2.8,0.9
				c1,0.8,1.2,2,1.2,3.1c0.4,0,1-0.1,1.6-0.1c2.6,0,6.4,0.6,7.2,5.1c0.3,1.5,0.8,3.8,1.3,6.4c2.2,10.2,4,18.9,3.4,22.3
				c-0.2,1.2-0.6,2.5-1.1,3.8l3-2.8l13.6-6.2c-1.1-3-3-9.9,0.6-13.2c3.4-3.2,11.6-3.1,13.3-3c1.6,0.1,2.7,0.2,3.5,0.4
				c1.5-3.6,6.2-13.3,13.1-17.4c4.6-2.7,12-4.4,17.9-5.8c3.9-0.9,8.7-2,9.4-2.8c0.8-0.8,1.3-4,1.7-6.7c0.7-4,1.4-8.6,3.4-11.8
				c3.2-5.4,12.3-14.5,19.6-12.5c4.9,1.3,6.2,5.8,7.3,10.2c0.5,1.9,1,3.8,1.9,5.5c1.3,2.6,3.5,4.4,5.3,6c1.9,1.6,3.6,3,3.9,4.9
				C566.8,97.2,563.6,100.7,553,110.7z"/>
		</g>
		<g>
			<path class="st4" d="M318.6,351.4c-3,0-5.6-1.8-7.1-3.4c-5.3,0.3-9.5-2.5-12.9-4.9c-1.2-0.8-2.2-1.5-3.2-2
				c-4.1-2.1-3.9-10.4-3.6-13.2l-6.7-7.4c-1.1-1.2-1.8-2.6-2.3-4.1c-0.8-2.7-2.2-7.2-3.9-9.4c-1.7-2.2-5.7-2.7-7.8-2.8
				c-1.4,1.8-5.7,6.4-12.8,6.9c-0.2,0-0.4,0-0.6,0c-8.5,0-14.6-11.9-14.9-12.4l-0.1-0.2l-1.1-6.3c-7.1-13.6-15-14.5-19.3-15.1
				c-2.1-0.3-4,2.1-5.1,3.8c-0.7,1.2-2,2-3.4,2.1c-6.9,0.7-18.5-2.7-25.3-4.9c-7.2-2.4-15.5-6.9-20.8-10.4c-3-2-7-3.8-10.1-5.4
				c-1.7-0.8-3.1-1.5-4.2-2.1c-2.6-1.4-4.7-3.7-5.6-4.6c-2.5-0.4-13.1-1.9-15.6-2.4c-3.4-0.7-3.5-6.1-3.4-8.6
				c-2.3-2.2-11.8-11.3-14.8-14.5c-1.5-1.6-2.3-2.1-3.3-2.6c-1.1-0.6-2.4-1.3-4.4-3.5c-3.4-3.7-3.9-11.5-4-13.7
				c-1.1-1.3-4.2-6.2-5.6-8.6c-0.5-0.8-0.8-1.8-0.8-2.7v-11.4c0-3.1-5.2-17.9-6.8-22.1c-0.3-0.8-0.4-1.6-0.4-2.4l-0.1-18.4
				c0-1,0.2-1.9,0.7-2.8c0.7-1.4,2.1-3.7,4.3-6.2c2.1-2.4,1.4-12.1,0.5-17.6l0,0c-0.1-0.5,0.1-1.1,0.6-1.4l0,0
				c8.3-6.3,13.4-28.3,13.8-30c0.4-6.5,1.7-27.4,4-30.4c1.4-1.9,2.9-2.8,4.7-3c2-0.2,4.3,0.9,6.7,3.2c1.5,1.4,2.4,2,3,2.3
				c0.1-0.1,0,0,0.1-0.1c-0.7-2.3-0.3-4.2,1.1-5.4c3.1-2.8,11-1.4,23.9,4.2c12.4,5.3,45.2,10.8,71.8,14.1
				c25.2,3.2,87.7,7.9,110.7,7.5c1.4-1.2,5.7-4.6,9.9-2.3c3.9,2.2,4.5,4,4.4,6.9c3.4-0.2,9.4-0.5,11.2,0.2c1.7,0.7,6.2,3.9,8.2,5.3
				c1.4-0.9,4-2.2,7.8-1.6c2.6,0.5,4.3,1.2,5.3,1.8c1.8-2.2,5.8-6.5,10.4-6c5.3,0.6,29.7,15.3,33.3,17.5c2.5,0.7,6.8,3,7.7,7.5
				c1.2,0,2.1,0.3,2.8,0.9c1,0.8,1.2,2,1.2,3.1c0,0,0,0,0,0c2.2-0.1,7.8-0.5,8.8,5.1c0.3,1.5,0.8,3.8,1.3,6.4
				c2.2,10.2,4,18.9,3.4,22.3c-0.2,1.2-0.6,2.5-1.1,3.8l3-2.8l13.6-6.2c-1.1-3-3-9.9,0.6-13.2c3.4-3.2,11.7-3.1,13.3-3
				c1.6,0.1,2.7,0.2,3.5,0.4c1.5-3.6,6.2-13.3,13.1-17.4c4.6-2.7,12-4.4,17.9-5.8c3.9-0.9,8.7-2,9.4-2.8c0.7-0.8,1.3-4,1.7-6.7
				c0.7-4,1.4-8.6,3.4-11.8c3.2-5.4,12.3-14.5,19.6-12.5c4.9,1.3,6.2,5.9,7.3,10.2c0.5,1.9,1,3.8,1.9,5.5c1.3,2.6,3.5,4.4,5.3,6
				c1.9,1.6,3.6,3,3.9,4.9c0.4,2.1-2.9,5.6-13.4,15.6c-3.8,3.6-8.6,8.1-9.2,9.3c-0.3,2.9,0.5,9.9,1.6,11.2c0.3,0.4,0.8,0.9,1.4,1.4
				c2.3,2.1,5.8,5.3,4.4,9.2c-0.9,2.4-6.4,5.7-15.4,10.7c-4.2,2.3-9.8,5.5-10.6,6.5c-0.6,1.5-0.5,7.5-0.4,10c0,0.7-0.1,1.4-0.4,2
				l-2.6,5.4c0.2,2.3,1.1,13.6-1.3,19.1c-1.8,4.1-4.1,7.4-5.4,9.1c0.9,0.9,1.8,1.7,2.6,2.6c3.8,3.6,7,6.8,7.3,10.3
				c0.4,4.6-8.2,12.8-20.4,23.8c-4.2,3.8-8.9,8-9.5,9.2c-0.4,3.4-3.8,7.6-4.2,8.1l-0.2,0.2c-0.1,0.1-11.2,9.7-12.2,19.2
				c-0.8,7.4,13.5,29.1,20.5,38.9c1,1.4,1.6,2.9,1.7,4.6c0.3,2.7,0.4,7.5-0.4,14.5c-0.5,4.4-2.1,7.7-4.8,9.8
				c-2.7,2.1-6.5,2.8-10.9,2c-0.9-0.1-2.7-0.4-14.2-15.1c-3.8-4.8-10.9-14.2-11.3-15.2c-0.2-0.7-0.3-4.9-0.4-12.4
				c-1.4-5.2-7.2-8.2-8.3-8.7c-2.8-0.3-4.7,1.4-6.9,3.4c-2.1,1.9-4.3,3.8-7.4,3.8c-5.4,0-7.7-6.2-8.6-8.9c-0.1-0.2-0.2-0.5-0.3-0.7
				c-1.3-0.5-7.3,0.4-13.1,2.1c-4.6,1.4-8.3,1.7-11.1,1.5c0.4,1.3,0.4,2.7-0.1,4.2c-2,5.7-10.8,11.3-15.9,12.6
				c-5.4,1.3-11.9-2.5-15.7-4.8c-0.5-0.3-0.9-0.6-1.4-0.8c-0.5-0.3-0.9-0.4-1.5-0.5c-0.3,0-0.7-0.1-1.3-0.2c-3-0.4-8.5-1.2-14.1-0.3
				c-5.6,0.8-22.2,15.6-29,22c1.1,3.7,4.3,16.2-1.1,20.1C321.6,350.9,320,351.4,318.6,351.4z M312.6,344.9l0.5,0.6
				c0.2,0.2,4.2,5,8.3,2c3.2-2.4,1.6-12.1-0.2-17.7l-0.3-0.9l0.7-0.6c2.4-2.3,23.5-22.2,31.2-23.3c6-0.9,11.8-0.1,14.9,0.3
				c0.7,0.1,1.4,0.2,1.6,0.2c0.7,0,1.5,0.4,3.5,1.6c3.3,1.9,9.3,5.6,13.6,4.5c4.9-1.2,12.4-6.5,13.9-10.7c0.4-1.1,0.3-2-0.1-2.8
				l-3.5-2c-0.5-0.2-0.7-0.4-0.8-0.4l1.5-2.4l0.6,0.3c1.5,0.7,6.5,2.6,15.4-0.2c5.1-1.5,13.8-3.6,16.1-1.3c0.3,0.3,0.5,0.8,0.8,1.7
				c0.8,2.3,2.5,7,5.9,7c2,0,3.6-1.4,5.4-3.1c2.4-2.2,5.2-4.6,9.4-4.1l0.2,0l0.2,0.1c0.3,0.1,8.4,3.7,10.2,10.9l0,0.2v0.2
				c0,5,0.1,10.5,0.2,11.7c2,3.2,20.2,27.1,23.2,28.4c3.6,0.6,6.6,0.1,8.7-1.5c2-1.5,3.3-4.2,3.7-7.8c1.1-9.8,0.5-14.5,0.4-15.6
				c-3.2-4.3-23.3-32.3-22.2-42.5c1.1-10.3,11.8-19.9,13.1-21c1-1.2,3.3-4.5,3.5-6.6c0.1-1.6,2.2-3.6,10.4-11
				c6.9-6.2,19.7-17.8,19.4-21.4c-0.2-2.5-3.2-5.4-6.4-8.4c-4.7-4.6-10.1-9.8-10.5-16.8l2.9-0.1c0.2,3.8,2.3,7.1,5,10.1
				c1.2-1.7,3.2-4.6,4.7-8.1c2.3-5.4,1-18,1-18.1l0-0.4l3.1-6.4c-0.1-1.9-0.4-8.9,0.7-11.6c0.6-1.6,3.7-3.4,11.8-7.9
				c5.1-2.8,13.5-7.5,14.1-9.2c0.7-1.9-1.2-3.9-3.6-6.1c-0.7-0.6-1.2-1.1-1.7-1.6c-2.1-2.5-2.5-11.2-2.3-13.5
				c0.2-1.4,2.2-3.5,10.1-11c4.5-4.2,11.9-11.2,12.6-13.1c-0.3-0.9-1.5-1.9-2.9-3.1c-2-1.7-4.5-3.7-6.1-6.9c-1-1.9-1.5-4-2.1-6
				c-1.1-3.9-2-7.3-5.3-8.2c-5-1.4-13.1,5.7-16.4,11.2c-1.6,2.7-2.4,7-3,10.8c-0.6,3.8-1.1,6.7-2.4,8.2c-1.3,1.4-4.6,2.2-10.9,3.7
				c-5.8,1.3-12.9,3-17.1,5.4c-7.5,4.4-12.3,17.1-12.4,17.2l-2.3,0.6c-1.7-0.7-11.8-0.9-14.6,1.8c-2.4,2.3-0.3,9,0.6,11.2l0.5,1.3
				l-15.7,7.1l-6.6,6.1c-0.7,0.6-1.6,0.6-2.3,0.1c-0.7-0.5-0.9-1.5-0.5-2.3c1.6-3,2.7-5.8,3.1-7.9c0.6-3.1-1.8-14-3.3-21.2
				c-0.6-2.7-1.1-4.9-1.4-6.5c-0.5-2.5-2.3-2.9-5.7-2.7c-1.2,0.1-2.1,0.1-2.7-0.5c-0.3-0.3-0.5-0.7-0.5-1.2c0-0.1,0-0.3,0-0.5
				c0-0.5,0-1.4-0.2-1.6c0,0-0.4-0.3-2-0.1l-1.7,0.3v-1.7c0-4.8-5.6-6.3-5.8-6.3l-0.2-0.1l-0.2-0.1c-11-6.7-28.7-16.8-32.3-17.2
				c-3.6-0.4-7.4,4.2-8.6,6l-1.2,1.8l-1.2-1.8c0,0,0,0,0,0c0,0-1.1-1.2-4.9-1.9c-3.9-0.7-6.2,1.5-6.2,1.5l-0.9,0.9l-1-0.7
				c-2.7-2-7.3-5.1-8.6-5.7c-1-0.4-6.7-0.3-11.5,0.1l-1.7,0.1l0.1-1.8c0.3-3.4,0.3-4-2.9-5.7c-3-1.6-6.8,2.2-6.8,2.2l-0.4,0.4
				l-0.6,0c-22.6,0.5-86.1-4.3-111.6-7.5c-26.8-3.4-59.9-8.9-72.6-14.3c-16.3-7-20.1-5.4-20.9-4.7c-0.5,0.4-0.6,1.2-0.3,2.3
				c0.4,1.3,0.6,2.7,0.6,4c1.9,3,3.2,11.6,1.1,14.7c-0.7,1.1-1.8,1.5-3.1,1.2c-3.2-0.8-2.5-4.6-1.8-8.2c0.4-2,0.8-4.3,0.9-6.7
				c-0.5-0.7-0.8-0.8-1.2-1c-0.8-0.4-1.9-0.8-4.3-3.1c-1.8-1.7-3.4-2.6-4.5-2.5c-0.9,0.1-1.7,0.7-2.6,1.9c-1.2,1.7-2.7,16-3.4,28.9
				l0,0.2c-0.2,1-5.2,23.5-14.2,31.3c0.5,3.5,2,15.3-1.3,19.1c-2.6,3-4,5.7-4.3,6.5l0.3,19.6c1.1,2.8,7.2,19.1,7.2,23.8v12
				c2.3,3.9,5.2,8.4,5.8,8.9l0.6,0.4l0,0.7c0,2.5,0.6,9.5,3.2,12.3c1.7,1.8,2.6,2.3,3.7,2.9c1.1,0.6,2.3,1.3,4.1,3.2
				c3.2,3.5,15,14.8,15.1,14.9l0.5,0.5l-0.1,0.7c-0.2,3.1,0.4,6.1,1.1,6.2c2.7,0.5,15.8,2.5,16,2.5l0.6,0.1l0.4,0.4
				c0,0,2.4,2.8,5.1,4.3c1,0.5,2.4,1.2,4,2c3.2,1.5,7.3,3.5,10.4,5.5c5.2,3.4,13.2,7.8,20.1,10.1c11.7,3.9,21,5.6,25.3,4.6
				c0.8-1.8,3.4-6.3,7.9-5.8c4.5,0.6,13.7,1.7,21.6,16.8l0.1,0.2l1.1,6.4c0.8,1.4,6.2,11.1,12.6,10.6c7.2-0.5,11-6.2,11.1-6.3
				l0.4-0.6l0.7,0c0.3,0,7.7-0.3,10.9,3.9c2.6,3.4,4.4,10.4,4.9,12.1l8.8,9.6l-0.1,0.6c-0.4,4-0.1,10,2,11c1.1,0.5,2.3,1.3,3.5,2.2
				c3.4,2.3,7.2,4.9,11.7,4.3L312.6,344.9z M482.8,128.6L482.8,128.6L482.8,128.6z M436.5,113.8
				C436.5,113.9,436.5,113.9,436.5,113.8C436.5,113.9,436.5,113.9,436.5,113.8z M129.5,69.6c0,0.2-0.1,0.3-0.1,0.5
				c-0.3,1.7-0.8,4.4-0.4,4.9c0,0,0,0,0,0C129.6,74.4,129.7,72.1,129.5,69.6z"/>
		</g>
	</g>
	<path class="st10" d="M223.3,216.9L223.3,216.9c-2.8,0-5.1-2.3-5.1-5.1v0c0-2.8,2.3-5.1,5.1-5.1l0,0c2.8,0,5.1,2.3,5.1,5.1v0
		C228.3,214.7,226.1,216.9,223.3,216.9z"/>
	<g>
		<path class="st0" d="M160.6,171.3L160.6,171.3c-2.8,0-5.1-2.3-5.1-5.1v0c0-2.8,2.3-5.1,5.1-5.1h0c2.8,0,5.1,2.3,5.1,5.1v0
			C165.7,169,163.4,171.3,160.6,171.3z"/>
		<path class="st0" d="M135.1,179.1L135.1,179.1c-2.8,0-5.1-2.3-5.1-5.1l0,0c0-2.8,2.3-5.1,5.1-5.1l0,0c2.8,0,5.1,2.3,5.1,5.1l0,0
			C140.2,176.8,137.9,179.1,135.1,179.1z"/>
		<path class="st0" d="M177,197.3L177,197.3c-2.8,0-5.1-2.3-5.1-5.1v0c0-2.8,2.3-5.1,5.1-5.1h0c2.8,0,5.1,2.3,5.1,5.1v0
			C182.1,195,179.8,197.3,177,197.3z"/>
		<path class="st0" d="M326.6,230.1L326.6,230.1c-2.8,0-5.1-2.3-5.1-5.1v0c0-2.8,2.3-5.1,5.1-5.1l0,0c2.8,0,5.1,2.3,5.1,5.1v0
			C331.7,227.8,329.4,230.1,326.6,230.1z"/>
		<path class="st0" d="M431.2,248.2L431.2,248.2c-2.8,0-5.1-2.3-5.1-5.1v0c0-2.8,2.3-5.1,5.1-5.1l0,0c2.8,0,5.1,2.3,5.1,5.1v0
			C436.3,245.9,434,248.2,431.2,248.2z"/>
		<path class="st0" d="M368.9,168.8L368.9,168.8c-2.8,0-5.1-2.3-5.1-5.1v0c0-2.8,2.3-5.1,5.1-5.1l0,0c2.8,0,5.1,2.3,5.1,5.1v0
			C374,166.6,371.7,168.8,368.9,168.8z"/>
		<path class="st0" d="M382.3,174.6L382.3,174.6c-2.8,0-5.1-2.3-5.1-5.1v0c0-2.8,2.3-5.1,5.1-5.1l0,0c2.8,0,5.1,2.3,5.1,5.1v0
			C387.3,172.3,385.1,174.6,382.3,174.6z"/>
		<path class="st0" d="M298.9,139.2L298.9,139.2c-2.8,0-5.1-2.3-5.1-5.1v0c0-2.8,2.3-5.1,5.1-5.1h0c2.8,0,5.1,2.3,5.1,5.1v0
			C303.9,136.9,301.7,139.2,298.9,139.2z"/>
		<path class="st0" d="M459.1,294.4L459.1,294.4c-2.8,0-5.1-2.3-5.1-5.1l0,0c0-2.8,2.3-5.1,5.1-5.1l0,0c2.8,0,5.1,2.3,5.1,5.1l0,0
			C464.1,292.2,461.9,294.4,459.1,294.4z"/>
		<path class="st0" d="M444.2,196L444.2,196c-2.8,0-5.1-2.3-5.1-5.1v0c0-2.8,2.3-5.1,5.1-5.1l0,0c2.8,0,5.1,2.3,5.1,5.1v0
			C449.3,193.7,447,196,444.2,196z"/>
		<path class="st0" d="M227,132.5L227,132.5c-2.8,0-5.1-2.3-5.1-5.1v0c0-2.8,2.3-5.1,5.1-5.1h0c2.8,0,5.1,2.3,5.1,5.1v0
			C232,130.2,229.8,132.5,227,132.5z"/>
		<path class="st0" d="M223.3,216.9L223.3,216.9c-2.8,0-5.1-2.3-5.1-5.1v0c0-2.8,2.3-5.1,5.1-5.1l0,0c2.8,0,5.1,2.3,5.1,5.1v0
			C228.3,214.7,226.1,216.9,223.3,216.9z"/>
		<path class="st0" d="M470.2,178L470.2,178c-2.8,0-5.1-2.3-5.1-5.1l0,0c0-2.8,2.3-5.1,5.1-5.1l0,0c2.8,0,5.1,2.3,5.1,5.1l0,0
			C475.3,175.7,473,178,470.2,178z"/>
		<path class="st0" d="M534.5,97.9L534.5,97.9c-2.8,0-5.1-2.3-5.1-5.1v0c0-2.8,2.3-5.1,5.1-5.1l0,0c2.8,0,5.1,2.3,5.1,5.1v0
			C539.6,95.6,537.3,97.9,534.5,97.9z"/>
		<path class="st0" d="M162.9,99.9L162.9,99.9c-2.8,0-5.1-2.3-5.1-5.1v0c0-2.8,2.3-5.1,5.1-5.1h0c2.8,0,5.1,2.3,5.1,5.1v0
			C168,97.7,165.7,99.9,162.9,99.9z"/>
		<path class="st0" d="M244.9,260.5L244.9,260.5c-2.8,0-5.1-2.3-5.1-5.1v0c0-2.8,2.3-5.1,5.1-5.1h0c2.8,0,5.1,2.3,5.1,5.1v0
			C250,258.3,247.7,260.5,244.9,260.5z"/>
		<path class="st0" d="M254.5,246.1L254.5,246.1c-2.8,0-5.1-2.3-5.1-5.1l0,0c0-2.8,2.3-5.1,5.1-5.1l0,0c2.8,0,5.1,2.3,5.1,5.1l0,0
			C259.6,243.8,257.3,246.1,254.5,246.1z"/>
	</g>
	<path class="st11" d="M176.8,140.7L176.8,140.7c-2.6-1-3.9-3.9-2.9-6.6l0,0c1-2.6,3.9-3.9,6.6-2.9l0,0c2.6,1,3.9,3.9,2.9,6.6l0,0
		C182.4,140.4,179.5,141.7,176.8,140.7z"/>
	<path class="st11" d="M150.3,138.8L150.3,138.8c-2.6-1-3.9-3.9-2.9-6.6l0,0c1-2.6,3.9-3.9,6.6-2.9h0c2.6,1,3.9,3.9,2.9,6.6l0,0
		C155.8,138.5,152.9,139.8,150.3,138.8z"/>
	<path class="st11" d="M182.9,170.8L182.9,170.8c-2.6-1-3.9-3.9-2.9-6.6v0c1-2.6,3.9-3.9,6.6-2.9h0c2.6,1,3.9,3.9,2.9,6.6l0,0
		C188.4,170.5,185.5,171.8,182.9,170.8z"/>
	<path class="st11" d="M311,254.8L311,254.8c-2.6-1-3.9-3.9-2.9-6.6v0c1-2.6,3.9-3.9,6.6-2.9l0,0c2.6,1,3.9,3.9,2.9,6.6l0,0
		C316.5,254.4,313.6,255.8,311,254.8z"/>
	<path class="st11" d="M383.2,296L383.2,296c-2.6-1-3.9-3.9-2.9-6.6v0c1-2.6,3.9-3.9,6.6-2.9h0c2.6,1,3.9,3.9,2.9,6.6h0
		C388.8,295.7,385.9,297,383.2,296z"/>
	<path class="st11" d="M372.3,212.6L372.3,212.6c-2.6-1-3.9-3.9-2.9-6.6l0,0c1-2.6,3.9-3.9,6.6-2.9l0,0c2.6,1,3.9,3.9,2.9,6.6l0,0
		C377.9,212.3,374.9,213.6,372.3,212.6z"/>
	<path class="st11" d="M382.8,222.7L382.8,222.7c-2.6-1-3.9-3.9-2.9-6.6l0,0c1-2.6,3.9-3.9,6.6-2.9h0c2.6,1,3.9,3.9,2.9,6.6h0
		C388.3,222.4,385.4,223.7,382.8,222.7z"/>
	<path class="st11" d="M317.4,159.9L317.4,159.9c-2.6-1-3.9-3.9-2.9-6.6v0c1-2.6,3.9-3.9,6.6-2.9l0,0c2.6,1,3.9,3.9,2.9,6.6v0
		C323,159.6,320.1,160.9,317.4,159.9z"/>
	<path class="st11" d="M308.2,302.5L308.2,302.5c-2.6-1-3.9-3.9-2.9-6.6l0,0c1-2.6,3.9-3.9,6.6-2.9l0,0c2.6,1,3.9,3.9,2.9,6.6v0
		C313.7,302.2,310.8,303.5,308.2,302.5z"/>
	<path class="st11" d="M433,264.8L433,264.8c-2.6-1-3.9-3.9-2.9-6.6v0c1-2.6,3.9-3.9,6.6-2.9l0,0c2.6,1,3.9,3.9,2.9,6.6l0,0
		C438.6,264.5,435.6,265.8,433,264.8z"/>
	<path class="st11" d="M219.1,205.6L219.1,205.6c-2.6-1-3.9-3.9-2.9-6.6v0c1-2.6,3.9-3.9,6.6-2.9v0c2.6,1,3.9,3.9,2.9,6.6v0
		C224.7,205.3,221.7,206.6,219.1,205.6z"/>
	<path class="st11" d="M252.7,128L252.7,128c-2.6-1-3.9-3.9-2.9-6.6v0c1-2.6,3.9-3.9,6.6-2.9v0c2.6,1,3.9,3.9,2.9,6.6v0
		C258.2,127.7,255.3,129,252.7,128z"/>
	<path class="st11" d="M219.1,205.6L219.1,205.6c-2.6-1-3.9-3.9-2.9-6.6v0c1-2.6,3.9-3.9,6.6-2.9v0c2.6,1,3.9,3.9,2.9,6.6v0
		C224.7,205.3,221.7,206.6,219.1,205.6z"/>
	<path class="st11" d="M463.7,257.2L463.7,257.2c-2.6-1-3.9-3.9-2.9-6.6v0c1-2.6,3.9-3.9,6.6-2.9h0c2.6,1,3.9,3.9,2.9,6.6v0
		C469.3,256.9,466.4,258.2,463.7,257.2z"/>
	<path class="st11" d="M487.2,213.8L487.2,213.8c-2.6-1-3.9-3.9-2.9-6.6l0,0c1-2.6,3.9-3.9,6.6-2.9l0,0c2.6,1,3.9,3.9,2.9,6.6v0
		C492.7,213.4,489.8,214.8,487.2,213.8z"/>
	<path class="st11" d="M199.6,100.1L199.6,100.1c-2.6-1-3.9-3.9-2.9-6.6l0,0c1-2.6,3.9-3.9,6.6-2.9l0,0c2.6,1,3.9,3.9,2.9,6.6l0,0
		C205.2,99.8,202.2,101.1,199.6,100.1z"/>
	<path class="st11" d="M223.8,254.1L223.8,254.1c-2.6-1-3.9-3.9-2.9-6.6v0c1-2.6,3.9-3.9,6.6-2.9h0c2.6,1,3.9,3.9,2.9,6.6l0,0
		C229.3,253.8,226.4,255.1,223.8,254.1z"/>
	<path class="st11" d="M237.9,244L237.9,244c-2.6-1-3.9-3.9-2.9-6.6h0c1-2.6,3.9-3.9,6.6-2.9h0c2.6,1,3.9,3.9,2.9,6.6l0,0
		C243.5,243.7,240.6,245,237.9,244z"/>
	<path class="st12" d="M181.4,227.8L181.4,227.8c-2.8,0-5.1-2.3-5.1-5.1v0c0-2.8,2.3-5.1,5.1-5.1h0c2.8,0,5.1,2.3,5.1,5.1v0
		C186.5,225.5,184.2,227.8,181.4,227.8z"/>
	<path class="st12" d="M177.3,216.5L177.3,216.5c-2.6-1-3.9-3.9-2.9-6.6v0c1-2.6,3.9-3.9,6.6-2.9h0c2.6,1,3.9,3.9,2.9,6.6l0,0
		C182.8,216.1,179.9,217.5,177.3,216.5z"/>
	<g>
		<g>
			<path class="st13" d="M118.7,182.1L118.7,182.1c-2.8,0-5.1-2.3-5.1-5.1l0,0c0-2.8,2.3-5.1,5.1-5.1h0c2.8,0,5.1,2.3,5.1,5.1l0,0
				C123.8,179.8,121.6,182.1,118.7,182.1z"/>
			<path class="st13" d="M263.8,118.1L263.8,118.1c-2.8,0-5.1-2.3-5.1-5.1v0c0-2.8,2.3-5.1,5.1-5.1l0,0c2.8,0,5.1,2.3,5.1,5.1v0
				C268.9,115.8,266.6,118.1,263.8,118.1z"/>
			<path class="st13" d="M135.1,208.1L135.1,208.1c-2.8,0-5.1-2.3-5.1-5.1l0,0c0-2.8,2.3-5.1,5.1-5.1l0,0c2.8,0,5.1,2.3,5.1,5.1l0,0
				C140.2,205.8,138,208.1,135.1,208.1z"/>
			<path class="st13" d="M284.7,240.9L284.7,240.9c-2.8,0-5.1-2.3-5.1-5.1v0c0-2.8,2.3-5.1,5.1-5.1l0,0c2.8,0,5.1,2.3,5.1,5.1v0
				C289.8,238.7,287.5,240.9,284.7,240.9z"/>
			<path class="st13" d="M389.4,259L389.4,259c-2.8,0-5.1-2.3-5.1-5.1v0c0-2.8,2.3-5.1,5.1-5.1h0c2.8,0,5.1,2.3,5.1,5.1v0
				C394.4,256.7,392.2,259,389.4,259z"/>
			<path class="st13" d="M327,179.7L327,179.7c-2.8,0-5.1-2.3-5.1-5.1l0,0c0-2.8,2.3-5.1,5.1-5.1l0,0c2.8,0,5.1,2.3,5.1,5.1l0,0
				C332.1,177.4,329.8,179.7,327,179.7z"/>
			<path class="st13" d="M340.4,185.4L340.4,185.4c-2.8,0-5.1-2.3-5.1-5.1v0c0-2.8,2.3-5.1,5.1-5.1l0,0c2.8,0,5.1,2.3,5.1,5.1v0
				C345.5,183.1,343.2,185.4,340.4,185.4z"/>
			<path class="st13" d="M257,150L257,150c-2.8,0-5.1-2.3-5.1-5.1v0c0-2.8,2.3-5.1,5.1-5.1h0c2.8,0,5.1,2.3,5.1,5.1v0
				C262.1,147.8,259.8,150,257,150z"/>
			<path class="st13" d="M441.3,288.4L441.3,288.4c-2.8,0-5.1-2.3-5.1-5.1l0,0c0-2.8,2.3-5.1,5.1-5.1h0c2.8,0,5.1,2.3,5.1,5.1l0,0
				C446.4,286.2,444.2,288.4,441.3,288.4z"/>
			<path class="st13" d="M402.3,206.8L402.3,206.8c-2.8,0-5.1-2.3-5.1-5.1v0c0-2.8,2.3-5.1,5.1-5.1l0,0c2.8,0,5.1,2.3,5.1,5.1v0
				C407.4,204.6,405.1,206.8,402.3,206.8z"/>
			<path class="st13" d="M185.1,143.3L185.1,143.3c-2.8,0-5.1-2.3-5.1-5.1v0c0-2.8,2.3-5.1,5.1-5.1h0c2.8,0,5.1,2.3,5.1,5.1v0
				C190.2,141,187.9,143.3,185.1,143.3z"/>
			<path class="st13" d="M181.4,227.8L181.4,227.8c-2.8,0-5.1-2.3-5.1-5.1v0c0-2.8,2.3-5.1,5.1-5.1h0c2.8,0,5.1,2.3,5.1,5.1v0
				C186.5,225.5,184.2,227.8,181.4,227.8z"/>
			<path class="st13" d="M428.4,188.8L428.4,188.8c-2.8,0-5.1-2.3-5.1-5.1v0c0-2.8,2.3-5.1,5.1-5.1l0,0c2.8,0,5.1,2.3,5.1,5.1v0
				C433.4,186.6,431.2,188.8,428.4,188.8z"/>
			<path class="st13" d="M514.2,123.2L514.2,123.2c-2.8,0-5.1-2.3-5.1-5.1v0c0-2.8,2.3-5.1,5.1-5.1l0,0c2.8,0,5.1,2.3,5.1,5.1v0
				C519.3,120.9,517,123.2,514.2,123.2z"/>
			<path class="st13" d="M121,110.8L121,110.8c-2.8,0-5.1-2.3-5.1-5.1v0c0-2.8,2.3-5.1,5.1-5.1h0c2.8,0,5.1,2.3,5.1,5.1v0
				C126.1,108.5,123.8,110.8,121,110.8z"/>
			<path class="st13" d="M203,271.4L203,271.4c-2.8,0-5.1-2.3-5.1-5.1l0,0c0-2.8,2.3-5.1,5.1-5.1h0c2.8,0,5.1,2.3,5.1,5.1l0,0
				C208.1,269.1,205.8,271.4,203,271.4z"/>
			<path class="st13" d="M212.7,256.9L212.7,256.9c-2.8,0-5.1-2.3-5.1-5.1v0c0-2.8,2.3-5.1,5.1-5.1l0,0c2.8,0,5.1,2.3,5.1,5.1v0
				C217.7,254.6,215.5,256.9,212.7,256.9z"/>
			<path class="st13" d="M135,151.5L135,151.5c-2.6-1-3.9-3.9-2.9-6.6l0,0c1-2.6,3.9-3.9,6.6-2.9l0,0c2.6,1,3.9,3.9,2.9,6.6v0
				C140.5,151.2,137.6,152.5,135,151.5z"/>
			<path class="st13" d="M108.4,149.7L108.4,149.7c-2.6-1-3.9-3.9-2.9-6.6l0,0c1-2.6,3.9-3.9,6.6-2.9h0c2.6,1,3.9,3.9,2.9,6.6v0
				C113.9,149.4,111,150.7,108.4,149.7z"/>
			<path class="st13" d="M141,181.6L141,181.6c-2.6-1-3.9-3.9-2.9-6.6l0,0c1-2.6,3.9-3.9,6.6-2.9h0c2.6,1,3.9,3.9,2.9,6.6h0
				C146.6,181.3,143.7,182.6,141,181.6z"/>
			<path class="st13" d="M269.1,265.6L269.1,265.6c-2.6-1-3.9-3.9-2.9-6.6l0,0c1-2.6,3.9-3.9,6.6-2.9l0,0c2.6,1,3.9,3.9,2.9,6.6v0
				C274.7,265.3,271.7,266.6,269.1,265.6z"/>
			<path class="st13" d="M347.9,291.7L347.9,291.7c-2.6-1-3.9-3.9-2.9-6.6l0,0c1-2.6,3.9-3.9,6.6-2.9l0,0c2.6,1,3.9,3.9,2.9,6.6l0,0
				C353.4,291.4,350.5,292.7,347.9,291.7z"/>
			<path class="st13" d="M387.6,138L387.6,138c-2.6-1-3.9-3.9-2.9-6.6l0,0c1-2.6,3.9-3.9,6.6-2.9l0,0c2.6,1,3.9,3.9,2.9,6.6l0,0
				C393.1,137.7,390.2,139,387.6,138z"/>
			<path class="st13" d="M340.9,233.5L340.9,233.5c-2.6-1-3.9-3.9-2.9-6.6v0c1-2.6,3.9-3.9,6.6-2.9h0c2.6,1,3.9,3.9,2.9,6.6v0
				C346.5,233.2,343.5,234.5,340.9,233.5z"/>
			<path class="st13" d="M275.6,170.8L275.6,170.8c-2.6-1-3.9-3.9-2.9-6.6v0c1-2.6,3.9-3.9,6.6-2.9v0c2.6,1,3.9,3.9,2.9,6.6v0
				C281.1,170.4,278.2,171.8,275.6,170.8z"/>
			<path class="st13" d="M255.5,297.5L255.5,297.5c-2.6-1-3.9-3.9-2.9-6.6l0,0c1-2.6,3.9-3.9,6.6-2.9l0,0c2.6,1,3.9,3.9,2.9,6.6l0,0
				C261,297.2,258.1,298.5,255.5,297.5z"/>
			<path class="st13" d="M391.1,275.6L391.1,275.6c-2.6-1-3.9-3.9-2.9-6.6l0,0c1-2.6,3.9-3.9,6.6-2.9l0,0c2.6,1,3.9,3.9,2.9,6.6v0
				C396.7,275.3,393.8,276.6,391.1,275.6z"/>
			<path class="st13" d="M210.8,138.9L210.8,138.9c-2.6-1-3.9-3.9-2.9-6.6l0,0c1-2.6,3.9-3.9,6.6-2.9h0c2.6,1,3.9,3.9,2.9,6.6l0,0
				C216.4,138.6,213.4,139.9,210.8,138.9z"/>
			<path class="st13" d="M177.3,216.5L177.3,216.5c-2.6-1-3.9-3.9-2.9-6.6v0c1-2.6,3.9-3.9,6.6-2.9h0c2.6,1,3.9,3.9,2.9,6.6l0,0
				C182.8,216.1,179.9,217.5,177.3,216.5z"/>
			<path class="st13" d="M421.9,268.1L421.9,268.1c-2.6-1-3.9-3.9-2.9-6.6l0,0c1-2.6,3.9-3.9,6.6-2.9h0c2.6,1,3.9,3.9,2.9,6.6h0
				C427.4,267.7,424.5,269.1,421.9,268.1z"/>
			<path class="st13" d="M445.3,224.6L445.3,224.6c-2.6-1-3.9-3.9-2.9-6.6v0c1-2.6,3.9-3.9,6.6-2.9v0c2.6,1,3.9,3.9,2.9,6.6v0
				C450.9,224.3,447.9,225.6,445.3,224.6z"/>
			<path class="st13" d="M157.7,110.9L157.7,110.9c-2.6-1-3.9-3.9-2.9-6.6v0c1-2.6,3.9-3.9,6.6-2.9v0c2.6,1,3.9,3.9,2.9,6.6v0
				C163.3,110.6,160.4,111.9,157.7,110.9z"/>
			<path class="st13" d="M427,152.1L427,152.1c-2.6-1-3.9-3.9-2.9-6.6l0,0c1-2.6,3.9-3.9,6.6-2.9l0,0c2.6,1,3.9,3.9,2.9,6.6l0,0
				C432.5,151.7,429.6,153.1,427,152.1z"/>
			<path class="st13" d="M196.1,254.8L196.1,254.8c-2.6-1-3.9-3.9-2.9-6.6l0,0c1-2.6,3.9-3.9,6.6-2.9l0,0c2.6,1,3.9,3.9,2.9,6.6v0
				C201.6,254.5,198.7,255.8,196.1,254.8z"/>
		</g>
	</g>
</g>
<g>
	<rect x="567.9" y="250.8" class="st4" width="229" height="144.9"/>
	<g>
		<path class="st0" d="M607.5,295.4L607.5,295.4c-4.9,0-8.9-4-8.9-8.9v0c0-4.9,4-8.9,8.9-8.9l0,0c4.9,0,8.9,4,8.9,8.9v0
			C616.4,291.4,612.4,295.4,607.5,295.4z"/>
		<path class="st11" d="M607.5,326L607.5,326c-4.9,0-8.9-4-8.9-8.9l0,0c0-4.9,4-8.9,8.9-8.9l0,0c4.9,0,8.9,4,8.9,8.9l0,0
			C616.4,322,612.4,326,607.5,326z"/>
		<path class="st13" d="M607.5,356.6L607.5,356.6c-4.9,0-8.9-4-8.9-8.9v0c0-4.9,4-8.9,8.9-8.9l0,0c4.9,0,8.9,4,8.9,8.9v0
			C616.4,352.6,612.4,356.6,607.5,356.6z"/>
		<rect x="625.9" y="280.8" class="st3" width="120.7" height="17.6"/>
		<text transform="matrix(1 0 0 1 625.8908 289.2043)" class="st0 st14 st15">Distribution Centers</text>
		<rect x="628" y="311.4" class="st3" width="145.2" height="17.6"/>
		<text transform="matrix(1 0 0 1 628.0383 319.7873)" class="st11 st14 st15">Manufacturing Locations</text>
		<rect x="627.7" y="338.9" class="st3" width="145.2" height="35"/>
		<text transform="matrix(1 0 0 1 627.7336 347.257)"><tspan x="0" y="0" class="st13 st14 st15">Raw Materials-OEM </tspan><tspan x="0" y="12.7" class="st13 st14 st15">Sourcing Locations</tspan></text>
	</g>
</g>
<rect x="566.5" y="167.5" class="st3" width="230.9" height="110.4"/>
<text transform="matrix(1 0 0 1 579.3258 181.097)"><tspan x="0" y="0" class="st4 st5 st16">Many of our products are </tspan><tspan x="-10.8" y="22" class="st4 st5 st16">sourced, manufactured, and </tspan><tspan x="-6.5" y="44" class="st4 st5 st16">distributed here in the U.S.</tspan></text>
<g>
	<path class="st7" d="M667.1,62c-1.9-0.7-3.5-1.3-5.2-2c-2.2-0.9-2.8-2.3-2-4.5c3-8,6.1-16,9.1-24c0.9-2.3,2.3-3,4.7-2
		c6.4,2.4,12.8,4.8,19.2,7.3c18.9,7.2,37.9,14.4,56.8,21.5c3.2,1.2,3.7,2.3,2.5,5.5c-2.9,7.7-5.9,15.5-8.8,23.2
		c-0.9,2.4-2.2,3-4.6,2.1c-1.6-0.6-3.2-1.2-5-1.9c-0.3,0.7-0.5,1.3-0.7,1.8c-4.9,13-9.8,26-14.8,38.9c-1.1,2.8-2.2,3.3-5,2.2
		c-19.8-7.5-39.5-15-59.3-22.5c-2.8-1.1-3.3-2.2-2.2-5c4.9-12.9,9.8-25.9,14.7-38.8C666.6,63.4,666.8,62.8,667.1,62z M658,102.9
		c18.6,7,37,14,55.4,21c4.9-13,9.8-25.9,14.7-38.8c-18.5-7-36.9-14-55.4-21C667.8,77.1,662.9,90,658,102.9z M666.6,55.3
		c0.5,0.2,0.8,0.4,1.2,0.6c23.2,8.8,46.3,17.6,69.5,26.4c1.1,0.4,1.6,0.3,2-0.9c2-5.6,4.2-11.1,6.3-16.6c0.2-0.4,0.2-0.9,0.4-1.3
		c-24.1-9.1-48-18.2-72-27.3C671.4,42.5,669,48.8,666.6,55.3z"/>
	<line class="st8" x1="763.6" y1="104.2" x2="955.6" y2="214.2"/>
</g>
<g>
	<g id="KE4bkQ_8_">
		<g>
			<path class="st17" d="M332.7,693.3c0.6-0.3,1-0.5,1.4-0.8c9.5-5.5,19-10.9,28.4-16.4c0.3-0.2,0.5-0.3,0.8-0.4
				c1.6-0.8,3.1,0.2,3.1,1.9c0,4.7,0,9.5,0,14.2c0,0.4,0,0.8,0,1.4c0.5-0.3,0.9-0.5,1.3-0.7c9.6-5.5,19.2-11.1,28.8-16.6
				c1.4-0.8,2.6-0.7,3.3,0.5c0.2,0.4,0.3,1,0.3,1.5c0,18.6,0,37.3,0,55.9c0,0.5,0,0.9,0,1.4c0.1,1.5-0.8,2.5-2.3,2.5
				c-28.2,0-56.5,0-84.7,0c-2.1,0-2.7-0.7-2.7-2.7c0-16.4,0-32.8,0-49.2c0-9.1,0-18.1,0-27.2c0-2.2,0.6-2.8,2.8-2.8
				c5.5,0,11.1,0,16.6,0c2.3,0,2.9,0.5,2.9,2.9c0,10.9,0,21.9,0,32.8C332.7,692.1,332.7,692.6,332.7,693.3z M314.7,733.7
				c27.1,0,54.2,0,81.3,0c0-17.6,0-35,0-52.6c-0.5,0.3-0.9,0.5-1.3,0.7c-9.5,5.5-19.1,11-28.6,16.5c-2.1,1.2-3.6,0.3-3.6-2.1
				c0-4.6,0-9.2,0-13.9c0-0.4,0-0.8,0-1.4c-0.6,0.3-1,0.5-1.4,0.7c-9.6,5.5-19.1,11.1-28.7,16.6c-2,1.2-3.5,0.3-3.5-2.1
				c0-2.3,0-4.7,0-7c0-1.1,0-2.1,0-3.2c-4.8,0-9.4,0-14,0C314.7,702,314.7,717.8,314.7,733.7z M328.6,673.1c-4.7,0-9.3,0-13.9,0
				c0,3,0,5.9,0,8.7c4.7,0,9.3,0,13.9,0C328.6,678.9,328.6,676,328.6,673.1z M314.7,668.8c4.7,0,9.3,0,13.9,0c0-3,0-5.8,0-8.7
				c-4.7,0-9.3,0-13.9,0C314.7,663.1,314.7,665.9,314.7,668.8z"/>
			<path class="st17" d="M338.4,641.4c6.7,0.8,13.1,1.7,19.5,2.4c4.1,0.4,8.2,0.7,12.3-0.1c3.2-0.7,5.4-2.4,6.5-5.6
				c0.5-1.4,1.6-1.9,2.8-1.5c1.1,0.4,1.5,1.6,1.1,2.9c-1.7,4.7-5.3,7.2-10,8.3c-4.2,0.9-8.4,0.6-12.7,0.1
				c-6.1-0.7-12.2-1.5-18.3-2.1c-4.1-0.4-8.3-0.3-12.1,1.5c-1.5,0.7-2.8,1.8-4.1,2.8c-1.1,0.9-2.2,1.2-3.1,0.4c-1-0.9-1-1.9,0.1-3.1
				c2.5-2.8,5.8-4.4,9.4-5.1C332.6,641.9,335.6,641.7,338.4,641.4z"/>
			<path class="st17" d="M364.3,634.3c-5.1-0.6-10.1-1.2-15.2-1.8c-5.6-0.7-11.2-1.5-16.9-0.8c-3.4,0.4-6.5,1.5-8.9,4.1
				c-0.9,1-2.2,1.1-3,0.3c-0.9-0.8-0.9-2,0-3.1c2.5-2.7,5.6-4.2,9.2-5c4.6-1,9.2-0.8,13.8-0.3c6.9,0.7,13.9,1.5,20.8,2.2
				c2,0.2,4-0.1,6-0.5c3.3-0.5,5.5-2.4,6.6-5.6c0.3-1,1-1.6,2.1-1.6c1.5,0,2.3,1.4,1.7,2.9c-1.1,3.2-3.2,5.5-6.2,7
				C371.2,633.8,367.8,634.1,364.3,634.3z"/>
			<path class="st17" d="M351.4,728c-3.4,0-6.8,0-10.2,0c0-2.6,0-5.1,0-7.7c3.4,0,6.8,0,10.2,0C351.4,722.9,351.4,725.4,351.4,728z"
				/>
			<path class="st17" d="M351.4,704.7c0,2.6,0,5.1,0,7.7c-3.4,0-6.8,0-10.3,0c0-2.5,0-5.1,0-7.7
				C344.6,704.7,347.9,704.7,351.4,704.7z"/>
			<path class="st17" d="M333.2,728c-3.4,0-6.8,0-10.2,0c0-2.6,0-5.1,0-7.7c3.4,0,6.8,0,10.2,0C333.2,722.9,333.2,725.4,333.2,728z"
				/>
			<path class="st17" d="M323,712.4c0-2.6,0-5.1,0-7.7c3.4,0,6.7,0,10.2,0c0,2.5,0,5.1,0,7.7C329.8,712.4,326.5,712.4,323,712.4z"/>
			<path class="st17" d="M359.3,712.4c0-2.6,0-5.1,0-7.6c3.4,0,6.8,0,10.2,0c0,2.5,0,5,0,7.6C366.2,712.4,362.8,712.4,359.3,712.4z"
				/>
			<path class="st17" d="M377.5,704.7c3.4,0,6.8,0,10.2,0c0,2.6,0,5.1,0,7.6c-3.4,0-6.7,0-10.2,0
				C377.5,709.9,377.5,707.3,377.5,704.7z"/>
			<path class="st17" d="M369.5,728c-3.4,0-6.8,0-10.2,0c0-2.5,0-5.1,0-7.7c3.4,0,6.8,0,10.2,0C369.5,722.9,369.5,725.4,369.5,728z"
				/>
			<path class="st17" d="M387.6,728c-3.4,0-6.8,0-10.2,0c0-2.6,0-5.1,0-7.6c3.4,0,6.7,0,10.2,0C387.6,722.8,387.6,725.4,387.6,728z"
				/>
		</g>
	</g>
	<g id="Cj5CTL_1_">
		<g>
			<path class="st4" d="M185.6,629.1c2.2,1.2,4.5,2.4,6.7,3.7c1.8,1.1,2,2.7,0.9,4.7c-3.6,6.6-7.2,13.3-10.8,20
				c-0.1,0.3-0.2,0.6-0.2,0.6c4.6,4.5,9.2,8.6,13.3,13.2c11.8,13.3,18.8,28.6,19,46.6c0.1,10.6-7.2,19.2-17.7,21.1
				c-0.3,0.1-0.6,0.3-0.9,0.4c-19.1,0-38.2,0-57.3,0c-3.1-1.2-6.4-1.9-9.1-3.7c-8.3-5.5-10.3-13.7-9.3-23.1
				c2.4-22.8,14.6-39.8,32.1-54c-3.2-4.9-6.5-9.9-9.8-14.9c-0.4-0.5-0.7-1.1-1.1-1.6c-2.8-4.3-2.7-5,1.3-8.2
				c6.1-4.9,13-5.1,19.8-2.4c5.1,2,9.5,1.8,14.2-0.7c1.4-0.7,3-1,4.6-1.5C182.7,629.1,184.2,629.1,185.6,629.1z M167.2,733.9
				c8.6,0,17.3,0,25.9,0c7.6,0,14.4-5.2,15.4-12.7c0.6-4.8,0.3-10-0.7-14.7c-3.8-18.5-14.6-32.4-29.2-43.6c-0.7-0.6-1.9-0.8-2.9-0.8
				c-5.5-0.1-11.1-0.1-16.6,0c-1.3,0-3,0.5-3.9,1.4c-4.7,4.3-9.7,8.5-13.8,13.4c-9.9,11.6-15.7,25-15.9,40.5
				c-0.1,9.7,6.8,16.6,16.6,16.6C150.4,733.9,158.8,733.9,167.2,733.9z M145.6,638.5c3.8,5.7,7.4,11.3,11.2,16.8
				c0.4,0.6,1.5,1.2,2.3,1.2c3.4,0.1,6.9-0.3,10.3,0.1c5.7,0.8,8.9-1.2,11-6.5c1.9-4.8,4.9-9.3,7.4-13.9c-2.1-1.7-4.2-2-6.4-1.4
				c-2.2,0.6-4.3,1.4-6.4,2.3c-3.8,1.6-7.5,1.9-11.3,0.2c-1.6-0.7-3.4-1.2-5.1-1.6C153.9,634.4,149.5,634.9,145.6,638.5z"/>
			<path class="st4" d="M164.9,684.3c0.7-2.3-1.2-6.2,3-6.1c4,0.1,2,3.8,2.9,6.3c1.3,0,2.7,0,4.1,0c1.9,0,3.5,0.6,3.5,2.8
				c0,2.2-1.5,2.6-3.4,2.6c-3.2,0-6.4,0-9.5,0c-3.1,0-4.9,1.7-4.9,4.3c0,2.6,1.7,4,4.9,4.1c2.4,0.1,4.9-0.1,7.3,0.4
				c4.7,0.8,7.9,5,7.8,9.5c-0.1,4.7-3.6,8.5-8.5,9.2c-0.5,0.1-0.9,0.2-1.7,0.3c0,1.2,0,2.3,0,3.4c0,1.7-0.7,2.9-2.5,3
				c-1.9,0.1-2.8-1.1-2.9-2.9c-0.1-1.1,0-2.2,0-3.7c-1.8,0-3.4,0-5,0c-1.8-0.1-3-0.8-2.9-2.8c0.1-1.9,1.3-2.5,3-2.5
				c3.3,0,6.7,0,10,0c3.1,0,5.1-1.6,5.1-4.1c0.1-2.6-2-4.3-5.1-4.4c-1.9,0-3.8,0-5.6,0c-4.7-0.1-8.6-3.4-9.2-7.8
				c-0.7-5.2,2.1-9.6,6.9-10.9C163.1,684.7,164,684.5,164.9,684.3z"/>
		</g>
	</g>
	<g>
		<rect x="234.5" y="687.4" class="st4" width="41.5" height="7.8"/>
		<polyline class="st4" points="272.4,705.2 286.3,691.3 272.4,677.4 		"/>
	</g>
	<g>
		<g>
			<g>
				<g>
					<line class="st18" x1="566.1" y1="631.1" x2="566.1" y2="631.1"/>
					<line class="st19" x1="566.3" y1="637.2" x2="568.5" y2="719"/>
					<line class="st18" x1="568.6" y1="722.1" x2="568.6" y2="722.1"/>
				</g>
			</g>
		</g>
		<g>
			<g>
				<line class="st18" x1="624.3" y1="717.5" x2="624.3" y2="717.5"/>
				<line class="st20" x1="630.1" y1="716.3" x2="713.2" y2="698.3"/>
				<line class="st18" x1="716.1" y1="697.7" x2="716.1" y2="697.7"/>
			</g>
		</g>
		<path class="st21" d="M544.2,590.3c-1.2,0-2.3,0-3.3,0c-1.4,0-2.1-0.7-2.1-2.1c0-5.1,0-10.3,0-15.4c0-1.5,0.6-2.1,2.2-2.1
			c4.1,0,8.2,0,12.3,0c12.2,0,24.4,0,36.6,0c2.1,0,2.6,0.5,2.6,2.6c0,5,0,10,0,14.9c0,1.5-0.6,2.2-2.2,2.2c-1,0-2,0-3.2,0
			c0,0.4,0,0.8,0,1.2c0,8.4,0,16.7,0,25.1c0,1.8-0.5,2.3-2.4,2.3c-12.7,0-25.5,0-38.2,0c-1.8,0-2.3-0.5-2.3-2.4c0-8.3,0-16.7,0-25
			C544.2,591.2,544.2,590.8,544.2,590.3z M547.8,615.3c12,0,23.8,0,35.7,0c0-8.4,0-16.7,0-25c-11.9,0-23.8,0-35.7,0
			C547.8,598.7,547.8,607,547.8,615.3z M542.4,586.7c0.3,0,0.6,0.1,0.8,0.1c14.9,0,29.8,0,44.7,0c0.7,0,0.9-0.2,0.9-0.9
			c0-3.6,0-7.1,0-10.7c0-0.3,0-0.5-0.1-0.8c-15.5,0-30.9,0-46.4,0C542.4,578.4,542.4,582.5,542.4,586.7z"/>
		<path class="st21" d="M733.1,685.5c-0.8,0.1-1.5,0.3-2.2,0.4c-0.9,0.1-1.4-0.2-1.6-1.1c-0.6-3.3-1.2-6.7-1.8-10
			c-0.2-1,0.2-1.5,1.2-1.7c2.7-0.5,5.4-1,8-1.4c7.9-1.4,15.9-2.8,23.8-4.3c1.3-0.2,1.7,0,2,1.4c0.6,3.2,1.2,6.5,1.7,9.7
			c0.2,1-0.2,1.5-1.2,1.7c-0.7,0.1-1.3,0.2-2.1,0.4c0.1,0.3,0.1,0.5,0.1,0.8c1,5.4,1.9,10.9,2.9,16.3c0.2,1.2-0.1,1.6-1.3,1.8
			c-8.3,1.5-16.6,3-24.9,4.4c-1.2,0.2-1.6-0.1-1.8-1.3c-1-5.4-1.9-10.8-2.9-16.3C733.2,686.1,733.2,685.8,733.1,685.5z M738.4,701.4
			c7.8-1.4,15.5-2.8,23.2-4.2c-1-5.4-1.9-10.8-2.9-16.2c-7.8,1.4-15.5,2.8-23.2,4.2C736.4,690.6,737.4,695.9,738.4,701.4z
			 M731.6,683.3c0.2,0,0.4,0,0.5-0.1c9.7-1.7,19.4-3.5,29.1-5.2c0.5-0.1,0.6-0.2,0.5-0.7c-0.4-2.3-0.8-4.6-1.3-7
			c0-0.2-0.1-0.3-0.1-0.5c-10.1,1.8-20.1,3.6-30.2,5.4C730.6,678,731.1,680.6,731.6,683.3z"/>
		<g>
			<path class="st22" d="M708.2,668.9c-1.8,1.7-4,3.7-4.3,4.3c-0.1,1.3,0.2,4.6,0.7,5.2c0.1,0.2,0.4,0.4,0.7,0.6
				c1.1,1,2.7,2.4,2,4.2c-0.4,1.1-3,2.6-7.1,4.9c-1.9,1.1-4.5,2.5-4.9,3c-0.3,0.7-0.2,3.5-0.2,4.6c0,0.3-0.1,0.6-0.2,0.9l-1.2,2.5
				c0.1,1.1,0.5,6.3-0.6,8.8c-0.8,1.9-1.9,3.4-2.5,4.2c0.4,0.4,0.8,0.8,1.2,1.2c1.7,1.7,3.2,3.1,3.4,4.8c0.2,2.1-3.8,5.9-9.4,11
				c-1.9,1.7-4.1,3.7-4.4,4.3c-0.2,1.6-1.8,3.5-1.9,3.8l-0.1,0.1c-0.1,0-5.2,4.5-5.6,8.9c-0.4,3.4,6.2,13.5,9.5,18
				c0.4,0.6,0.7,1.4,0.8,2.1c0.1,1.3,0.2,3.4-0.2,6.7c-0.2,2-1,3.6-2.2,4.5c-1.3,1-3,1.3-5,0.9c-0.4-0.1-1.2-0.2-6.6-7
				c-1.7-2.2-5.1-6.6-5.2-7c-0.1-0.3-0.2-2.3-0.2-5.7c-0.7-2.4-3.3-3.8-3.9-4c-1.3-0.1-2.2,0.7-3.2,1.6c-1,0.9-2,1.8-3.4,1.8
				c-2.5,0-3.5-2.9-4-4.1c0-0.1-0.1-0.2-0.1-0.3c-0.6-0.3-3.4,0.2-6.1,1c-2.1,0.7-3.8,0.8-5.1,0.7c0.2,0.6,0.2,1.2-0.1,1.9
				c-0.9,2.7-5,5.2-7.3,5.8c-2.5,0.6-5.5-1.2-7.3-2.2c-0.2-0.1-0.4-0.3-0.6-0.4c-0.2-0.1-0.4-0.2-0.7-0.2c-0.2,0-0.3,0-0.6-0.1
				c-1.4-0.2-3.9-0.5-6.5-0.2c-2.6,0.4-10.3,7.2-13.4,10.1c0.5,1.7,2,7.5-0.5,9.3c-0.7,0.5-1.4,0.7-2.1,0.7c-1.4,0-2.6-0.8-3.3-1.6
				c-2.4,0.2-4.4-1.2-6-2.2c-0.5-0.4-1-0.7-1.5-0.9c-1.9-1-1.8-4.8-1.7-6.1l-3.1-3.4c-0.5-0.5-0.9-1.2-1.1-1.9
				c-0.4-1.3-1-3.3-1.8-4.4c-0.8-1-2.6-1.3-3.6-1.3c-0.6,0.8-2.6,3-5.9,3.2c-0.1,0-0.2,0-0.3,0c-3.9,0-6.7-5.5-6.9-5.7l0-0.1
				l-0.5-2.9c-3.3-6.3-6.9-6.7-8.9-7c-1-0.1-1.8,1-2.3,1.8c-0.3,0.5-0.9,0.9-1.5,1c-3.2,0.3-8.6-1.2-11.7-2.3
				c-3.3-1.1-7.1-3.2-9.6-4.8c-1.4-0.9-3.2-1.8-4.7-2.5c-0.8-0.4-1.4-0.7-1.9-1c-1.2-0.6-2.2-1.7-2.6-2.1c-1.2-0.2-6-0.9-7.2-1.1
				c-1.6-0.3-1.6-2.8-1.6-4c-1.1-1-5.5-5.2-6.8-6.7c-0.7-0.7-1.1-1-1.5-1.2c-0.5-0.3-1.1-0.6-2-1.6c-1.6-1.7-1.8-5.3-1.8-6.3
				c-0.5-0.6-1.9-2.9-2.6-4c-0.2-0.4-0.4-0.8-0.4-1.3v-5.2c0-1.4-2.4-8.2-3.1-10.2c-0.1-0.3-0.2-0.7-0.2-1.1l-0.1-8.5
				c0-0.4,0.1-0.9,0.3-1.3c0.3-0.6,1-1.7,2-2.9c1-1.1,0.7-5.6,0.2-8.1c0,0,0-0.1,0-0.1c0-0.2,0.1-0.4,0.3-0.5
				c1.9-1.5,3.5-4.7,4.6-7.7c1.1-3,1.7-5.7,1.8-6.1c0.2-3,0.8-12.7,1.9-14c0.7-0.9,1.4-1.3,2.2-1.4c0.9-0.1,2,0.4,3.1,1.5
				c0.7,0.7,1.1,0.9,1.4,1.1c0,0,0,0,0.1-0.1c-0.3-1-0.2-1.9,0.5-2.5c1.4-1.3,5.1-0.6,11.1,1.9c5.7,2.5,20.9,5,33.2,6.5
				c11.7,1.5,40.5,3.7,51.1,3.4c0.6-0.6,2.6-2.1,4.6-1.1c1.8,1,2.1,1.8,2.1,3.2c1.6-0.1,4.4-0.2,5.2,0.1c0.8,0.3,2.9,1.8,3.8,2.5
				c0.6-0.4,1.9-1,3.6-0.7c1.2,0.2,2,0.5,2.4,0.8c0.8-1,2.7-3,4.8-2.8c2.5,0.3,13.7,7.1,15.4,8.1c1.2,0.3,3.2,1.4,3.5,3.5
				c0.6,0,1,0.1,1.3,0.4c0.5,0.4,0.5,0.9,0.5,1.4c0.2,0,0.5,0,0.7,0c1.2,0,2.9,0.3,3.3,2.4c0.1,0.7,0.4,1.8,0.6,3
				c1,4.7,1.8,8.7,1.6,10.3c-0.1,0.6-0.3,1.2-0.5,1.8l1.4-1.3l6.3-2.8c-0.5-1.4-1.4-4.6,0.3-6.1c1.6-1.5,5.4-1.4,6.1-1.4
				c0.7,0,1.3,0.1,1.6,0.2c0.7-1.7,2.9-6.2,6-8c2.1-1.2,5.5-2,8.3-2.7c1.8-0.4,4-0.9,4.3-1.3c0.3-0.4,0.6-1.8,0.8-3.1
				c0.3-1.9,0.7-4,1.6-5.5c1.5-2.5,5.7-6.7,9.1-5.8c2.3,0.6,2.8,2.7,3.4,4.7c0.2,0.9,0.5,1.8,0.9,2.5c0.6,1.2,1.6,2,2.5,2.8
				c0.9,0.7,1.6,1.4,1.8,2.3C714.6,662.7,713.1,664.3,708.2,668.9z"/>
		</g>
		<path class="st21" d="M716.7,762.5c-1.2-0.5-2.2-0.8-3.3-1.2c-1.4-0.5-1.8-1.5-1.3-2.8c1.9-5.1,3.9-10.2,5.8-15.3
			c0.6-1.5,1.4-1.9,3-1.3c4.1,1.5,8.1,3.1,12.2,4.6c12,4.6,24.1,9.1,36.1,13.7c2,0.8,2.3,1.4,1.6,3.5c-1.9,4.9-3.7,9.9-5.6,14.8
			c-0.6,1.5-1.4,1.9-2.9,1.3c-1-0.4-2-0.8-3.2-1.2c-0.2,0.4-0.3,0.8-0.4,1.2c-3.1,8.3-6.3,16.5-9.4,24.8c-0.7,1.8-1.4,2.1-3.2,1.4
			c-12.6-4.8-25.2-9.5-37.8-14.3c-1.8-0.7-2.1-1.4-1.4-3.2c3.1-8.2,6.2-16.5,9.4-24.7C716.4,763.3,716.5,763,716.7,762.5z
			 M710.9,788.5c11.8,4.5,23.5,8.9,35.3,13.4c3.1-8.3,6.2-16.5,9.4-24.7c-11.8-4.5-23.5-8.9-35.3-13.4
			C717.1,772.1,714,780.3,710.9,788.5z M716.3,758.2c0.3,0.1,0.5,0.3,0.8,0.4c14.7,5.6,29.5,11.2,44.2,16.8c0.7,0.3,1,0.2,1.3-0.6
			c1.3-3.5,2.7-7.1,4-10.6c0.1-0.3,0.2-0.6,0.2-0.8c-15.3-5.8-30.6-11.6-45.8-17.4C719.4,750,717.9,754.1,716.3,758.2z"/>
		<line class="st23" x1="604.1" y1="746" x2="694.8" y2="796.3"/>
	</g>
	<g>
		<path class="st24" d="M421.2,681.3h41.4v5.2h-41.4V681.3z M421.2,697.3h41.4v5.2h-41.4V697.3z"/>
	</g>
</g>
</svg>
