<svg xmlns="http://www.w3.org/2000/svg" xmlns:xlink="http://www.w3.org/1999/xlink" id="Layer_1" x="0" y="0" version="1.1" viewBox="0 0 637.8 321.7" xml:space="preserve" style="enable-background:new 0 0 637.8 321.7"><style type="text/css">.st0{fill:#fff}.st1{fill:none}.st2{font-family:&apos;Avenir-Black&apos;}.st3{font-size:32.0972px}.st4{fill:#f07822}</style><g id="WVKC3D_6_"><g><path d="M598.7,193.2c0,8.1-8.5,14.6-18.8,14.4c-10.2-0.2-18-6.5-17.8-14.4c0.3-7.9,9.1-14.4,19.1-14.1 C590.9,179.3,598.7,185.7,598.7,193.2z" class="st0"/><path d="M627.2,207.8c-0.2,6-6.2,10.7-13.7,10.6c-7.7-0.1-14.1-5.3-13.9-11.4c0.2-5.8,6.5-10.6,13.9-10.6 C621.4,196.4,627.5,201.5,627.2,207.8z" class="st0"/></g></g><g><path d="M612.7,160.7c-10.8,8.4-22.9,12-36.3,11.4c-1.4-0.1-2.8-0.2-4.2-0.3c-2.6-0.3-6.6,0.4-7.8,2.1 c-13.4,19.1-46.3,27.3-71.8,11.8c-2.4-1.5-6.5-1.2-9.5-0.3c-11.2,3.2-19.7,6-29.2,5.6c-8.8-0.4-17.2-3.2-24.3-7.4 c-5.4-3.2-10.1-7.3-13.5-12c-3.3-4.5-5.4-9.6-6.1-14.9c-0.8-6.2-3-8.4-8.5-10.4c-17.3-6.1-27.8-20.2-27.9-36 c0-9.9,4.1-19.3,11.5-26.4c0,0,0,0,0,0c4.2-4,9.4-7.2,15.5-9.4c2.1-0.8,3.8-1.6,5.3-2.6c3.3-2.3,5-5.3,6-10.4 c1.2-5.6,5-11.5,9.2-15.6c10.1-10,21.6-14.9,34-15.4c0.7,0,1.4,0,2,0c2,0,3.9,0.1,5.9,0.3c4.2,0.4,8.5,1.3,12.8,2.5 c4.8,1.4,8,1.4,12.3-2c26.9-21.2,67-10.5,78.7,13.6c0.8,1.6,3.8,2.4,6,3.1c1.6,0.5,3.2,0.9,4.8,1.3c8.1,2,16.4,3.4,23.6,7.1 c15.5,7.9,25.4,26.7,17,45.9c-0.8,1.9,0.2,5.3,1.6,7.2c0,0.1,0.1,0.1,0.1,0.2C632.2,127,629.6,147.5,612.7,160.7z" class="st0"/></g><g><g><rect width="161.8" height="66.1" x="47.7" y="80.6" class="st1"/><text transform="matrix(1 0 0 1 67.7076 104.8525)"><tspan x="0" y="0" class="st0 st2 st3">JUST IN</tspan><tspan x="21.7" y="29.8" class="st0 st2 st3">TIME</tspan></text></g><rect width="161.8" height="66.1" x="419.7" y="80.5" class="st1"/><text transform="matrix(1 0 0 1 439.6534 104.7456)"><tspan x="0" y="0" class="st4 st2 st3">JUST IN</tspan><tspan x="18.7" y="29.8" class="st4 st2 st3">CASE</tspan></text><g><rect width="65.9" height="9" x="280.8" y="112" class="st0"/><polyline points="342.6 132.5 358.6 116.5 342.6 100.5" class="st0"/></g></g><g id="WVKC3D_5_"><g><path d="M58,202.2c-10.3,0.2-18.7-6.3-18.8-14.4c0-7.5,7.8-13.8,17.4-14.1c10-0.3,18.9,6.2,19.1,14.1 C76.1,195.6,68.2,202,58,202.2z M57.1,195.3c4.8-0.6,10.9-0.4,11-6.9c0.1-6.3-5.7-7.2-10.7-7.3c-5.1-0.1-10.9,0.8-11,6.9 C46.1,194.2,52.2,194.6,57.1,195.3z" class="st0"/><path d="M24.4,213c-7.5,0.1-13.5-4.6-13.7-10.6c-0.2-6.3,5.9-11.3,13.8-11.4c7.4-0.1,13.7,4.7,13.9,10.6 C38.5,207.7,32.1,212.9,24.4,213z M17.7,201.9c3.5,4.9,7.7,4.9,12.1,2.2c0.6-0.4,0.5-3.9-0.2-4.3C25.3,197.3,21,196.8,17.7,201.9z" class="st0"/></g></g><g><path d="M25.4,155.7c10.8,8.4,22.9,12,36.3,11.4c1.4-0.1,2.8-0.2,4.2-0.3c2.6-0.3,6.6,0.4,7.8,2.1 c13.4,19.1,46.3,27.3,71.8,11.8c2.4-1.5,6.5-1.2,9.5-0.3c11.2,3.2,19.7,6,29.2,5.6c8.8-0.4,17.2-3.2,24.3-7.4 c5.4-3.2,10.1-7.3,13.5-12c3.3-4.5,5.4-9.6,6.1-14.9c0.8-6.2,3-8.4,8.5-10.4c17.3-6.1,27.8-20.2,27.9-36c0-9.9-4.1-19.3-11.5-26.4 c0,0,0,0,0,0c-4.2-4-9.4-7.2-15.5-9.4c-2.1-0.8-3.8-1.6-5.3-2.6c-3.3-2.3-5-5.3-6-10.4c-1.2-5.6-5-11.5-9.2-15.6 c-10.1-10-21.6-14.9-34-15.4c-0.7,0-1.4,0-2,0c-2,0-3.9,0.1-5.9,0.3c-4.2,0.4-8.5,1.3-12.8,2.5c-4.8,1.4-8,1.4-12.3-2 C123.1,5.1,83,15.7,71.3,39.9c-0.8,1.6-3.8,2.4-6,3.1c-1.6,0.5-3.2,0.9-4.8,1.3c-8.1,2-16.4,3.4-23.6,7.1 c-15.5,7.9-25.4,26.7-17,45.9c0.8,1.9-0.2,5.3-1.6,7.2c0,0.1-0.1,0.1-0.1,0.2C5.9,122,8.6,142.5,25.4,155.7z M159.3,171.1 c-1.3-0.6-2.6-1.2-3.8-1.9c-4.9-2.6-7.9-2.4-12.2,1c-17,13.2-45.1,12.7-57.6-3.2c-7.5-9.5-14-11.4-25.1-9.7 c-0.7,0.1-1.4,0.2-2.2,0.3c-9.5,0.8-18.8-2.9-26.6-9c-14.2-11.1-15.4-28.1-2.5-40.7c1.1-1.1,2-2.1,2.5-3.1c1.4-2.5,1.1-4.9-0.8-8.2 c-7.1-12.2-4.7-24.5,6.3-33.7c6-5,12.7-7.9,20.4-9.1c3.2-0.5,6.5-0.7,10-0.7c6.4,2.2,9.4-1.3,12.5-8.2c9.9-22.4,48.2-27.3,66.6-8.6 c4.8,4.9,8.3,5.5,14.5,2.8c5.5-2.4,11-3.7,16.4-4c9.3-0.5,18.4,2.1,27,7.6c8.9,5.7,14.6,13.8,13.5,25.1c-0.5,4.6,1.4,6.4,5.7,7.3 c3.6,0.8,7.2,1.8,10.6,3.2c1.3,0.5,2.6,1.1,3.9,1.8c2.5,1.3,4.8,2.8,6.9,4.5c6,5,9.8,11.6,9.7,20.4c-0.1,12.1-7,20-17.2,25.3 c-3.4,1.7-6,3.2-8.1,4.6c-5.3,3.5-7.5,6.9-10,14.2c-0.4,1.1-0.8,2.4-1.2,3.8c-1.5,4.9-4.5,9.3-8.5,12.9c0,0,0,0-0.1,0.1 c-8.5,7.7-21.3,12-34.1,10.1C170.1,175.3,164.5,173.5,159.3,171.1C159.3,171.1,159.3,171.1,159.3,171.1z" class="st0"/></g><g id="gmGtaa_5_"><g><path d="M352.8,262.6c5.6-4.6,11.6-7.5,18.5-8.8c19.1-3.4,37.3,6.8,44.1,25c1.5,3.9,2.1,8.3,2.6,12.5 c0.4,3.4-0.9,4.4-4.3,4.4c-13.1,0-26.2,0-39.3,0c-0.8,0-1.6,0-2.5,0c0.2,2.5,0.4,4.9,0.5,7.2c0.1,3-0.9,4.1-3.9,4.1 c-33.1,0-66.2,0-99.2,0c-3,0-4-1-3.9-4.1c0.1-2.3,0.3-4.6,0.4-7.3c-0.8,0-1.5,0-2.3,0c-13,0-26,0-39,0c-3.9,0-4.8-0.9-4.6-4.8 c0.9-19.1,15.2-35,34.2-37.4c11.5-1.5,21.9,1.5,31,9.1c9.9-8,21.3-12.1,34-12.1C331.6,250.5,342.9,254.5,352.8,262.6z M271.6,300.9c31.6,0,63.1,0,94.5,0c-0.2-19.6-17.5-43.9-46.5-44.3C292.1,256.1,272.7,278.2,271.6,300.9z M357.3,266.6 c0.7,0.8,1.2,1.5,1.8,2.1c5.1,5.6,8.6,12,10.9,19.2c0.5,1.4,1,1.9,2.5,1.9c12.4-0.1,24.9,0,37.3,0c0.6,0,1.3-0.1,2.2-0.1 c-2.1-13.2-8.7-22.9-21.2-27.9C379,256.9,367.8,259.1,357.3,266.6z M280.3,266.8c-7.9-7.4-22.6-10-34.5-4.7 c-12.9,5.7-19.8,19.4-19.4,27.4c0.1,0,0.3,0.1,0.4,0.1c13.1,0,26.2,0,39.2,0c0.6,0,1.4-0.8,1.7-1.4c2-5.9,4.7-11.4,8.5-16.3 C277.5,270.1,278.9,268.5,280.3,266.8z" class="st0"/><path d="M319.6,239.9c-17.1,0-31.1-14.1-31.1-31.3c0.1-17,14.2-31,31.2-31c17.2,0,31.3,14.2,31.2,31.5 C350.8,225.9,336.7,239.9,319.6,239.9z M344.8,208.7c0-13.8-11.2-25.1-25-25.1c-13.7-0.1-25.1,11.3-25.1,25 c0,13.8,11.2,25.1,25,25.1C333.5,233.8,344.8,222.5,344.8,208.7z" class="st0"/><path d="M259.9,245.7c-13-0.1-23.3-10.4-23.3-23.5c0-12.8,10.7-23.2,23.5-23c13,0.1,23.3,10.6,23.2,23.6 C283.2,235.4,272.6,245.7,259.9,245.7z M260,205.2c-9.4-0.1-17.2,7.5-17.3,16.8c-0.1,9.8,7.4,17.5,17.1,17.6 c9.4,0.1,17.3-7.6,17.3-17C277.2,213,269.7,205.3,260,205.2z" class="st0"/><path d="M379.1,245.7c-12.9,0-23.3-10.4-23.3-23.2c0-12.8,10.4-23.2,23.3-23.3c13-0.1,23.4,10.3,23.4,23.3 C402.4,235.3,392,245.7,379.1,245.7z M379.1,205.2c-9.6,0-17.3,7.7-17.3,17.3c0,9.4,7.8,17.1,17.3,17.1c9.6,0,17.2-7.7,17.2-17.3 C396.3,212.8,388.6,205.2,379.1,205.2z" class="st0"/></g></g></svg>