<?xml version="1.0" encoding="utf-8"?>
<!-- Generator: Adobe Illustrator 25.0.0, SVG Export Plug-In . SVG Version: 6.00 Build 0)  -->
<svg version="1.1" id="Layer_1" xmlns="http://www.w3.org/2000/svg" xmlns:xlink="http://www.w3.org/1999/xlink" x="0px" y="0px"
	 viewBox="0 0 138.6 134.7" style="enable-background:new 0 0 138.6 134.7;" xml:space="preserve">
<style type="text/css">
	.st0{fill:#FFFFFF;stroke:#FFFFFF;stroke-miterlimit:10;}
</style>
<g id="eWCO4k_2_">
	<g>
		<path class="st0" d="M58,86.7c-10.9,10.9-21.6,21.7-32.4,32.5c-2.3-2.4-4.6-4.7-6.9-7c10.7-10.7,21.5-21.4,32.5-32.2
			c-7.4-10.3-9.6-21.3-6.3-33.2c2.5-9,7.9-16,15.7-21c15.5-10,36-7,48.3,7.2c12,13.8,11.9,34.9-0.2,48.7C96.6,95.5,75,99.1,58,86.7z
			 M80.5,88.6c17.5,0.1,31.7-13.9,31.7-31.3c0.1-17.5-13.8-31.7-31.2-31.8c-17.5-0.1-31.8,13.9-31.9,31.4
			C49.1,74.4,63.1,88.5,80.5,88.6z"/>
		<path class="st0" d="M97.2,73.8c-0.9-0.9-1.7-1.8-2.6-2.7c3.9-3.9,6.1-8.6,6.1-14.2c0-5.5-2.2-10.1-6.1-14c0.9-1,1.7-1.9,2.5-2.7
			C107,48.7,107.1,65.4,97.2,73.8z"/>
	</g>
</g>
</svg>
