<svg xmlns="http://www.w3.org/2000/svg" xmlns:xlink="http://www.w3.org/1999/xlink" style="enable-background:new 0 0 848.2 613" id="Layer_1" x="0" y="0" version="1.1" viewBox="0 0 848.2 613" xml:space="preserve"><style type="text/css">.st0{fill:none}.st1{fill:#8d2c8f}.st2{font-family:&apos;Avenir-Black&apos;}.st3{font-size:42.6824px}.st4{fill:#8d2d8e;stroke-width:1.7276;stroke-miterlimit:10}.st4,.st5{stroke:#8d2d8e}.st5,.st6,.st7{fill:none;stroke-width:2.1341;stroke-linecap:round;stroke-linejoin:round}.st6{stroke:#8d2d8e;stroke-dasharray:0,6.4804}.st7{stroke-dasharray:0,6.3885}.st7,.st8,.st9{stroke:#8d2d8e}.st8{fill:none;stroke-width:2.1341;stroke-linecap:round;stroke-linejoin:round;stroke-dasharray:0,6.3178}.st9{stroke-dasharray:0,6.4143}.st10,.st11,.st9{fill:none;stroke-width:2.1341;stroke-linecap:round;stroke-linejoin:round}.st10{stroke:#8d2d8e;stroke-dasharray:0,6.4148}.st11{stroke-dasharray:0,6.3542}.st11,.st12,.st13{stroke:#8d2d8e}.st12{fill:none;stroke-width:2.1341;stroke-linecap:round;stroke-linejoin:round;stroke-dasharray:0,6.4538}.st13{fill:#8d2d8e;stroke-width:1.3553;stroke-miterlimit:10}</style><rect width="817.6" height="101.9" x="8" y="199.8" class="st0"/><text transform="matrix(1 0 0 1 219.1108 232.0515)"><tspan x="0" y="0" class="st1 st2 st3">Our strategy is both </tspan><tspan x="39.8" y="44.1" class="st1 st2 st3">global and local.</tspan></text><path d="M236.3,123.5c-1.1,0.2-2,0.4-2.9,0.5c-1.2,0.2-1.9-0.3-2.1-1.5c-0.8-4.5-1.6-9-2.4-13.5c-0.2-1.3,0.2-2,1.6-2.2	c3.6-0.7,7.2-1.3,10.8-1.9c10.7-1.9,21.4-3.8,32.1-5.7c1.8-0.3,2.3,0,2.6,1.8c0.8,4.4,1.6,8.7,2.3,13.1c0.2,1.3-0.2,2-1.6,2.2	c-0.9,0.2-1.8,0.3-2.8,0.5c0.1,0.4,0.1,0.7,0.2,1c1.3,7.3,2.6,14.7,3.9,22c0.3,1.6-0.1,2.1-1.7,2.4c-11.2,2-22.3,4-33.5,6	c-1.6,0.3-2.1-0.1-2.4-1.7c-1.3-7.3-2.6-14.6-3.9-21.9C236.4,124.2,236.4,123.9,236.3,123.5z M243.4,144.8	c10.5-1.9,20.9-3.7,31.3-5.6c-1.3-7.3-2.6-14.6-3.9-21.9c-10.5,1.9-20.9,3.7-31.3,5.6C240.8,130.2,242.1,137.5,243.4,144.8z M234.2,120.5c0.3,0,0.5,0,0.7-0.1c13.1-2.3,26.2-4.7,39.3-7c0.6-0.1,0.8-0.3,0.7-1c-0.6-3.1-1.1-6.3-1.7-9.4c0-0.2-0.1-0.5-0.2-0.7	c-13.6,2.4-27.1,4.8-40.7,7.3C232.9,113.3,233.6,116.9,234.2,120.5z" class="st4"/><path d="M48.9,71c-0.9-0.1-1.7-0.2-2.5-0.3c-1.1-0.1-1.5-0.7-1.4-1.7c0.4-3.9,0.8-7.7,1.2-11.6c0.1-1.1,0.7-1.6,1.8-1.5	c3.1,0.3,6.2,0.6,9.3,0.9c9.2,0.9,18.3,1.9,27.5,2.8c1.5,0.2,1.9,0.6,1.7,2.1c-0.4,3.8-0.8,7.5-1.1,11.3c-0.1,1.2-0.6,1.6-1.8,1.5	c-0.8-0.1-1.5-0.2-2.4-0.2c0,0.3-0.1,0.6-0.1,0.9c-0.6,6.3-1.3,12.6-1.9,18.9c-0.1,1.4-0.6,1.7-2,1.6c-9.6-1-19.2-1.9-28.8-2.9	c-1.4-0.1-1.7-0.6-1.6-2c0.6-6.3,1.3-12.5,1.9-18.8C48.9,71.7,48.9,71.4,48.9,71z M49.7,90.1c9,0.9,17.9,1.8,26.9,2.7	c0.6-6.3,1.3-12.5,1.9-18.8c-9-0.9-17.9-1.8-26.9-2.7C51,77.6,50.4,83.8,49.7,90.1z M47.9,68.2c0.2,0,0.4,0.1,0.6,0.1	c11.2,1.1,22.4,2.3,33.7,3.4c0.5,0.1,0.7-0.1,0.8-0.6c0.2-2.7,0.5-5.4,0.8-8.1c0-0.2,0-0.4,0-0.6c-11.7-1.2-23.3-2.4-34.9-3.5	C48.5,61.9,48.2,65,47.9,68.2z" class="st4"/><path d="M541.7,340.9c-1.6-0.1-3-0.3-4.5-0.4c-1.9-0.2-2.7-1.2-2.5-3c0.6-6.9,1.2-13.8,1.9-20.7c0.2-2,1.1-2.8,3.2-2.6	c5.5,0.5,11.1,1,16.6,1.5c16.4,1.5,32.7,2.9,49.1,4.4c2.8,0.2,3.4,1,3.1,3.7c-0.6,6.7-1.2,13.4-1.8,20.1c-0.2,2.1-1.1,2.8-3.2,2.7	c-1.4-0.1-2.8-0.2-4.3-0.4c-0.1,0.6-0.1,1.1-0.1,1.6c-1,11.2-2,22.4-3,33.7c-0.2,2.4-1,3.1-3.4,2.8c-17.1-1.5-34.2-3.1-51.3-4.6	c-2.4-0.2-3.1-1-2.9-3.4c1-11.2,2-22.4,3-33.5C541.6,342.1,541.6,341.5,541.7,340.9z M543.5,374.9c16.1,1.4,32,2.9,47.9,4.3	c1-11.2,2-22.4,3-33.5c-16-1.4-31.9-2.9-47.9-4.3C545.5,352.5,544.5,363.7,543.5,374.9z M539.8,335.8c0.4,0.1,0.8,0.1,1.1,0.2	c20,1.8,40,3.6,60,5.4c1,0.1,1.3-0.1,1.4-1.1c0.4-4.8,0.8-9.6,1.3-14.4c0-0.4,0-0.7,0-1.1c-20.8-1.9-41.5-3.7-62.3-5.6	C540.8,324.7,540.3,330.1,539.8,335.8z" class="st4"/><g><g><line x1="272.7" x2="272.7" y1="156.2" y2="156.2" class="st5"/><line x1="276.2" x2="298.9" y1="161.7" y2="197.2" class="st6"/><line x1="300.6" x2="300.6" y1="199.9" y2="199.9" class="st5"/></g></g><g><g><line x1="97.7" x2="97.7" y1="88.1" y2="88.1" class="st5"/><line x1="103.7" x2="215.8" y1="90.1" y2="127.7" class="st7"/><line x1="218.8" x2="218.8" y1="128.8" y2="128.8" class="st5"/></g></g><g><g><line x1="514" x2="514" y1="340.2" y2="340.2" class="st5"/><line x1="508.3" x2="413.7" y1="337.6" y2="293.7" class="st8"/><line x1="410.8" x2="410.8" y1="292.4" y2="292.4" class="st5"/></g></g><path d="M430.7,57.8c-0.9,0-1.7,0.1-2.5,0.1c-1.1,0-1.6-0.5-1.6-1.5c-0.1-3.9-0.2-7.8-0.4-11.7c0-1.1,0.4-1.6,1.6-1.7	c3.1-0.1,6.2-0.2,9.3-0.3c9.2-0.3,18.4-0.6,27.6-0.9c1.6,0,1.9,0.3,2,1.9c0.1,3.8,0.2,7.5,0.4,11.3c0,1.2-0.4,1.6-1.6,1.7	c-0.8,0-1.6,0.1-2.4,0.1c0,0.3,0,0.6,0,0.9c0.2,6.3,0.4,12.6,0.6,19c0,1.4-0.3,1.8-1.7,1.8c-9.6,0.3-19.3,0.6-28.9,0.9	c-1.4,0-1.8-0.3-1.8-1.7c-0.2-6.3-0.4-12.6-0.6-18.9C430.7,58.5,430.7,58.2,430.7,57.8z M434,76.6c9-0.3,18-0.6,27-0.9	c-0.2-6.3-0.4-12.6-0.6-18.9c-9,0.3-18,0.6-27,0.9C433.6,64,433.8,70.3,434,76.6z M429.3,55.1c0.2,0,0.4,0,0.6,0	c11.3-0.4,22.6-0.7,33.8-1.1c0.5,0,0.7-0.2,0.7-0.7c-0.1-2.7-0.2-5.4-0.3-8.1c0-0.2-0.1-0.4-0.1-0.6c-11.7,0.4-23.4,0.7-35.1,1.1	C429.1,48.8,429.2,51.9,429.3,55.1z" class="st4"/><g><g><line x1="294.5" x2="294.5" y1="120.2" y2="120.2" class="st5"/><line x1="300.3" x2="414.6" y1="117.6" y2="66.7" class="st9"/><line x1="417.5" x2="417.5" y1="65.4" y2="65.4" class="st5"/></g></g><g><g><line x1="840.5" x2="840.5" y1="310.4" y2="310.4" class="st5"/><line x1="834.2" x2="625.2" y1="311.9" y2="362" class="st10"/><line x1="622.1" x2="622.1" y1="362.7" y2="362.7" class="st5"/></g></g><g><g><line x1="657.8" x2="657.8" y1="571.8" y2="571.8" class="st5"/><line x1="654.9" x2="570.4" y1="566.2" y2="406" class="st11"/><line x1="568.9" x2="568.9" y1="403.2" y2="403.2" class="st5"/></g></g><g><g><line x1="287" x2="287" y1="295.9" y2="295.9" class="st5"/><line x1="282.4" x2="211.1" y1="300.4" y2="370.6" class="st12"/><line x1="208.8" x2="208.8" y1="372.9" y2="372.9" class="st5"/></g></g><path d="M91.9,377c-2.6,0.3-4.9,0.5-7.2,0.7c-3.1,0.3-4.6-1.1-5-4.1c-1.1-11.2-2.3-22.4-3.4-33.7	c-0.3-3.3,0.9-4.8,4.3-5.2c9-0.9,18-1.8,26.9-2.7c26.6-2.7,53.2-5.3,79.7-8c4.5-0.5,5.7,0.5,6.1,5c1.1,10.9,2.2,21.7,3.3,32.6	c0.3,3.3-0.9,4.8-4.2,5.2c-2.2,0.2-4.5,0.5-7,0.7c0.1,1,0.2,1.8,0.3,2.6c1.8,18.2,3.7,36.5,5.5,54.7c0.4,3.9-0.6,5.2-4.6,5.6	c-27.8,2.8-55.5,5.6-83.3,8.4c-3.9,0.4-5.2-0.7-5.6-4.6c-1.8-18.2-3.6-36.3-5.5-54.5C92.1,378.9,92,378.1,91.9,377z M105.2,430.8	c26.1-2.6,51.9-5.2,77.8-7.8c-1.8-18.2-3.6-36.3-5.5-54.4c-26,2.6-51.9,5.2-77.8,7.8C101.6,394.5,103.4,412.5,105.2,430.8z M87.3,369.4c0.7,0,1.2,0,1.8-0.1c32.5-3.3,65-6.5,97.6-9.8c1.6-0.2,2-0.6,1.8-2.2c-0.9-7.8-1.6-15.6-2.4-23.3	c-0.1-0.6-0.2-1.2-0.3-1.8c-33.8,3.4-67.4,6.8-101.2,10.2C85.5,351.4,86.4,360.3,87.3,369.4z" class="st13"/></svg>