<?xml version="1.0" encoding="utf-8"?>
<!-- Generator: Adobe Illustrator 25.0.0, SVG Export Plug-In . SVG Version: 6.00 Build 0)  -->
<svg version="1.1" id="Layer_1" xmlns="http://www.w3.org/2000/svg" xmlns:xlink="http://www.w3.org/1999/xlink" x="0px" y="0px"
	 viewBox="0 0 954.4 878.1" style="enable-background:new 0 0 954.4 878.1;" xml:space="preserve">
<style type="text/css">
	.st0{fill:#80C343;}
	.st1{fill:#6BA638;}
	.st2{fill:#FFFFFF;stroke:#FFFFFF;stroke-width:2.954;stroke-miterlimit:10;}
	.st3{fill:none;stroke:#FFFFFF;stroke-width:2.8762;stroke-linecap:round;stroke-linejoin:round;}
	.st4{fill:none;stroke:#FFFFFF;stroke-width:2.8762;stroke-linecap:round;stroke-linejoin:round;stroke-dasharray:0,8.5682;}
	.st5{fill:none;}
	.st6{fill:#FFFFFF;}
	.st7{font-family:'Avenir-Black';}
	.st8{font-size:41px;}
	.st9{fill:#FFFFFF;stroke:#FFFFFF;stroke-width:2.5833;stroke-miterlimit:10;}
	.st10{font-family:'Avenir-Roman';}
	.st11{font-size:27.6156px;}
	.st12{font-family:'Avenir-Heavy';}
	.st13{font-size:27.4858px;}
</style>
<rect y="-279.4" class="st0" width="954.4" height="1165.8"/>
<polygon class="st1" points="-86,-17.7 497.1,165.5 1066,-17.7 1066,-279.9 -86,-279.9 "/>
<g>
	<path class="st2" d="M21.3,240.1c-2.8,0-5.2,0-7.7,0c-3.2-0.1-4.7-1.6-4.8-4.8c0-11.9,0-23.7,0-35.6c0-3.5,1.5-4.9,5-5
		c9.5,0,19,0,28.5,0c28.1,0,56.2,0,84.3,0c4.7,0,5.9,1.1,5.9,5.9c0,11.5,0,23,0,34.5c0,3.5-1.4,5-5,5c-2.4,0-4.7,0-7.4,0
		c0,1,0,1.9,0,2.7c0,19.3,0,38.5,0,57.8c0,4.2-1.2,5.4-5.4,5.4c-29.3,0-58.7,0-88,0c-4.2,0-5.4-1.2-5.4-5.4c0-19.2,0-38.4,0-57.6
		C21.3,242.2,21.3,241.3,21.3,240.1z M29.6,297.8c27.6,0,54.9,0,82.3,0c0-19.3,0-38.4,0-57.5c-27.5,0-54.8,0-82.3,0
		C29.6,259.4,29.6,278.5,29.6,297.8z M17.3,231.7c0.7,0,1.3,0.1,1.9,0.1c34.4,0,68.7,0,103.1,0c1.6,0,2.2-0.4,2.1-2.1
		c-0.1-8.2,0-16.4,0-24.7c0-0.6-0.1-1.3-0.2-1.9c-35.7,0-71.3,0-106.9,0C17.3,212.7,17.3,222.1,17.3,231.7z"/>
	<g>
		<g>
			<line class="st3" x1="156.1" y1="250.4" x2="156.1" y2="250.4"/>
			<line class="st4" x1="164.7" y1="250.4" x2="254.7" y2="250.4"/>
			<line class="st3" x1="258.9" y1="250.4" x2="258.9" y2="250.4"/>
		</g>
	</g>
	<path class="st2" d="M294.9,240.1c-2.8,0-5.2,0-7.7,0c-3.2-0.1-4.7-1.6-4.8-4.8c0-11.9,0-23.7,0-35.6c0-3.5,1.5-4.9,5-5
		c9.5,0,19,0,28.5,0c28.1,0,56.2,0,84.3,0c4.7,0,5.9,1.1,5.9,5.9c0,11.5,0,23,0,34.5c0,3.5-1.4,5-5,5c-2.4,0-4.7,0-7.4,0
		c0,1,0,1.9,0,2.7c0,19.3,0,38.5,0,57.8c0,4.2-1.2,5.4-5.4,5.4c-29.3,0-58.7,0-88,0c-4.2,0-5.4-1.2-5.4-5.4c0-19.2,0-38.4,0-57.6
		C294.9,242.2,294.9,241.3,294.9,240.1z M303.2,297.8c27.6,0,54.9,0,82.3,0c0-19.3,0-38.4,0-57.5c-27.5,0-54.8,0-82.3,0
		C303.2,259.4,303.2,278.5,303.2,297.8z M290.9,231.7c0.7,0,1.3,0.1,1.9,0.1c34.4,0,68.7,0,103.1,0c1.6,0,2.2-0.4,2.1-2.1
		c-0.1-8.2,0-16.4,0-24.7c0-0.6-0.1-1.3-0.2-1.9c-35.7,0-71.3,0-106.9,0C290.9,212.7,290.9,222.1,290.9,231.7z"/>
	<g>
		<g>
			<line class="st3" x1="429.8" y1="250.4" x2="429.8" y2="250.4"/>
			<line class="st4" x1="438.3" y1="250.4" x2="528.3" y2="250.4"/>
			<line class="st3" x1="532.6" y1="250.4" x2="532.6" y2="250.4"/>
		</g>
	</g>
	<path class="st2" d="M568.6,240.1c-2.8,0-5.2,0-7.7,0c-3.2-0.1-4.7-1.6-4.8-4.8c0-11.9,0-23.7,0-35.6c0-3.5,1.5-4.9,5-5
		c9.5,0,19,0,28.5,0c28.1,0,56.2,0,84.3,0c4.7,0,5.9,1.1,5.9,5.9c0,11.5,0,23,0,34.5c0,3.5-1.4,5-5,5c-2.4,0-4.7,0-7.4,0
		c0,1,0,1.9,0,2.7c0,19.3,0,38.5,0,57.8c0,4.2-1.2,5.4-5.4,5.4c-29.3,0-58.7,0-88,0c-4.2,0-5.4-1.2-5.4-5.4c0-19.2,0-38.4,0-57.6
		C568.6,242.2,568.6,241.3,568.6,240.1z M576.9,297.8c27.6,0,54.9,0,82.3,0c0-19.3,0-38.4,0-57.5c-27.5,0-54.8,0-82.3,0
		C576.9,259.4,576.9,278.5,576.9,297.8z M564.6,231.7c0.7,0,1.3,0.1,1.9,0.1c34.4,0,68.7,0,103.1,0c1.6,0,2.2-0.4,2.1-2.1
		c-0.1-8.2,0-16.4,0-24.7c0-0.6-0.1-1.3-0.2-1.9c-35.7,0-71.3,0-106.9,0C564.6,212.7,564.6,222.1,564.6,231.7z"/>
	<g>
		<g>
			<line class="st3" x1="703.4" y1="250.4" x2="703.4" y2="250.4"/>
			<line class="st4" x1="712" y1="250.4" x2="801.9" y2="250.4"/>
			<line class="st3" x1="806.2" y1="250.4" x2="806.2" y2="250.4"/>
		</g>
	</g>
	<path class="st2" d="M842.2,240.1c-2.8,0-5.2,0-7.7,0c-3.2-0.1-4.7-1.6-4.8-4.8c0-11.9,0-23.7,0-35.6c0-3.5,1.5-4.9,5-5
		c9.5,0,19,0,28.5,0c28.1,0,56.2,0,84.3,0c4.7,0,5.9,1.1,5.9,5.9c0,11.5,0,23,0,34.5c0,3.5-1.4,5-5,5c-2.4,0-4.7,0-7.4,0
		c0,1,0,1.9,0,2.7c0,19.3,0,38.5,0,57.8c0,4.2-1.2,5.4-5.4,5.4c-29.3,0-58.7,0-88,0c-4.2,0-5.4-1.2-5.4-5.4c0-19.2,0-38.4,0-57.6
		C842.2,242.2,842.2,241.3,842.2,240.1z M850.5,297.8c27.6,0,54.9,0,82.3,0c0-19.3,0-38.4,0-57.5c-27.5,0-54.8,0-82.3,0
		C850.5,259.4,850.5,278.5,850.5,297.8z M838.2,231.7c0.7,0,1.3,0.1,1.9,0.1c34.4,0,68.7,0,103.1,0c1.6,0,2.2-0.4,2.1-2.1
		c-0.1-8.2,0-16.4,0-24.7c0-0.6-0.1-1.3-0.2-1.9c-35.7,0-71.3,0-106.9,0C838.2,212.7,838.2,222.1,838.2,231.7z"/>
</g>
<rect x="-36" y="383" class="st5" width="1034.4" height="247.8"/>
<text transform="matrix(1 0 0 1 164.2098 414.0157)"><tspan x="0" y="0" class="st6 st7 st8">With the goal of ensuring supply </tspan><tspan x="-30.3" y="43.9" class="st6 st7 st8">continuity across our manufacturing </tspan><tspan x="75.6" y="87.9" class="st6 st7 st8">and distribution network </tspan><tspan x="317" y="143.7" class="st6 st7 st8">  </tspan></text>
<g>
	<g id="kGeegU_6_">
		<g>
			<path class="st9" d="M657.3,600.7c-1.5,0-2.9,0-4.2,0c-1.7,0-2.6-0.9-2.6-2.7c0-6.5,0-13,0-19.5c0-1.8,0.9-2.7,2.7-2.7
				c20.8,0,41.7,0,62.5,0c1.9,0,2.6,0.8,2.6,2.7c0,6.6,0,13.1,0,19.7c0,1.7-0.8,2.5-2.5,2.6c-1.3,0-2.6,0-3.9,0c0,0-0.1,0-0.3,0.2
				c0,0.4,0,0.8,0,1.3c0,10.5,0,21,0,31.5c0,2.6-0.6,3.2-3.1,3.2c-16,0-32.1,0-48.1,0c-2.4,0-3.1-0.7-3.1-3.1c0-10.5,0-21,0-31.5
				C657.3,601.8,657.3,601.4,657.3,600.7z M707.1,600.8c-15.1,0-30.1,0-45.1,0c0,10.6,0,21.1,0,31.6c15.1,0,30.1,0,45.1,0
				C707.1,621.8,707.1,611.4,707.1,600.8z M713.9,596.1c0-5.3,0-10.5,0-15.7c-19.6,0-39.1,0-58.7,0c0,5.3,0,10.5,0,15.7
				C674.8,596.1,694.3,596.1,713.9,596.1z"/>
			<path class="st9" d="M711.7,672.9c0,0.7,0,1.2,0,1.7c0,10.4,0,20.8,0,31.3c0,2.5-0.6,3.2-3.2,3.2c-16,0-32.1,0-48.1,0
				c-2.4,0-3.1-0.7-3.1-3.1c0-10.5,0-21,0-31.5c0-0.5,0-1,0-1.6c-1.3,0-2.6,0-3.8,0c-2.2,0-3-0.8-3-2.9c0-6.3,0-12.7,0-19
				c0-2.1,0.8-2.9,3-2.9c20.7,0,41.3,0,62,0c2.2,0,2.9,0.7,2.9,2.9c0,6.5,0,12.9,0,19.4c0,1.7-0.8,2.5-2.5,2.6
				C714.5,672.9,713.2,672.9,711.7,672.9z M661.9,672.9c0,10.6,0,21.1,0,31.6c15.1,0,30.1,0,45.1,0c0-10.6,0-21.1,0-31.6
				C692,672.9,677,672.9,661.9,672.9z M713.9,668.2c0-5.3,0-10.5,0-15.7c-19.6,0-39.1,0-58.7,0c0,5.3,0,10.5,0,15.7
				C674.7,668.2,694.3,668.2,713.9,668.2z"/>
			<path class="st9" d="M580.3,600.7c-1.5,0-2.9,0-4.2,0c-1.8,0-2.6-0.9-2.6-2.6c0-6.5,0-13,0-19.5c0-1.9,0.8-2.7,2.8-2.7
				c5.2,0,10.4,0,15.6,0c15.4,0,30.8,0,46.3,0c2.6,0,3.2,0.6,3.2,3.2c0,6.3,0,12.6,0,18.9c0,1.9-0.8,2.7-2.7,2.7c-1.3,0-2.6,0-4.1,0
				c0,0.6,0,1,0,1.5c0,10.6,0,21.2,0,31.7c0,2.3-0.7,3-3,3c-16.1,0-32.2,0-48.3,0c-2.3,0-3-0.7-3-3c0-10.5,0-21.1,0-31.6
				C580.3,601.8,580.3,601.4,580.3,600.7z M584.9,632.4c15.1,0,30.1,0,45.2,0c0-10.6,0-21.1,0-31.6c-15.1,0-30.1,0-45.2,0
				C584.9,611.3,584.9,621.8,584.9,632.4z M578.1,596.1c0.4,0,0.7,0.1,1,0.1c18.9,0,37.7,0,56.6,0c0.9,0,1.2-0.2,1.2-1.2
				c0-4.5,0-9,0-13.5c0-0.3-0.1-0.7-0.1-1.1c-19.6,0-39.1,0-58.7,0C578.1,585.7,578.1,590.8,578.1,596.1z"/>
			<path class="st9" d="M634.6,672.9c0,0.6,0,1.1,0,1.6c0,10.5,0,21.1,0,31.6c0,2.3-0.7,3-2.9,3c-16.1,0-32.2,0-48.3,0
				c-2.4,0-3-0.7-3-3.1c0-10.5,0-21,0-31.5c0-0.5,0-1,0-1.6c-1.4,0-2.6,0-3.9,0c-2.1,0-2.9-0.8-2.9-2.9c0-6.4,0-12.9,0-19.3
				c0-1.9,0.8-2.7,2.7-2.7c20.8,0,41.7,0,62.5,0c1.9,0,2.7,0.8,2.7,2.7c0,6.5,0,13,0,19.5c0,1.8-0.8,2.6-2.7,2.7
				C637.4,672.9,636.1,672.9,634.6,672.9z M630.1,704.5c0-10.6,0-21.1,0-31.5c-15.1,0-30.1,0-45.1,0c0,10.6,0,21.1,0,31.5
				C600,704.5,615,704.5,630.1,704.5z M578.2,652.5c0,5.3,0,10.5,0,15.7c19.6,0,39.1,0,58.8,0c0-0.5,0-1,0-1.4c0-4.2,0-8.5,0-12.7
				c0-1.6,0-1.6-1.7-1.6c-18.5,0-37,0-55.5,0C579.3,652.5,578.8,652.5,578.2,652.5z"/>
		</g>
	</g>
	<g id="EI9vsu_5_">
		<g>
			<path class="st6" d="M391.2,630.9c-0.2,41.1-33.4,74.2-74.3,74.1c-41.1-0.1-74.5-33.4-74.2-74.7c0.3-40.4,32.8-73.7,74.3-73.6
				C359.2,556.7,391.2,591,391.2,630.9z M353.1,627.6c10.3,0,21,0,31.7,0c0-0.4,0.1-0.6,0.1-0.7c-0.7-10.5-3.5-20.3-8.8-29.4
				c-0.4-0.6-1.5-1.2-2.2-1.2c-8-0.1-16-0.1-24,0c-0.5,0-1.1,0.1-1.1,0.1C350.2,606.8,351.6,617.1,353.1,627.6z M285.1,596.2
				c-0.4,0-1.1,0-1.8,0c-7.8,0-15.6,0-23.4,0c-1.2,0-1.8,0.4-2.3,1.4c-3.2,5.7-5.6,11.7-6.9,18.1c-0.8,3.9-1.3,7.8-2,11.9
				c11.2,0,21.9,0,32.1,0C282.3,617.1,283.7,606.7,285.1,596.2z M348.6,664.6c0.3,0,0.6,0.1,0.9,0.1c8.4,0,16.7,0,25.1,0
				c0.7,0,1.6-0.6,2-1.3c3.5-6.3,5.9-13,7.2-20c0.6-3,0.8-6.1,1.3-9.2c-11.1,0-21.8,0-32.3,0c-0.5,5.2-0.8,10.3-1.5,15.4
				C350.5,654.5,349.5,659.5,348.6,664.6z M285,664.7c-1.4-10.2-2.8-20.4-4.2-30.5c-10.3,0-21,0-31.8,0c0.5,10.6,3.4,20.4,8.4,29.5
				c0.3,0.6,1.4,1,2.1,1c5.7,0.1,11.4,0,17.1,0C279.6,664.7,282.5,664.7,285,664.7z M287.4,627.4c0.7,0.2,0.9,0.3,1,0.3
				c8,0,16.1,0,24.1,0c1.4,0,1.3-0.8,1.3-1.8c0-9.3,0-18.7,0-28c0-1.4-0.4-1.9-1.8-1.9c-6.1,0.1-12.1,0.1-18.2,0
				c-1.3,0-1.9,0.4-2.1,1.6c-0.8,4.1-1.9,8.2-2.5,12.3C288.5,615.8,288,621.6,287.4,627.4z M346.1,627.7c0-0.4,0.1-0.7,0.1-1
				c-0.3-9.9-1.6-19.7-4.3-29.2c-0.1-0.5-1.1-1.2-1.7-1.2c-6.2-0.1-12.4-0.1-18.6,0c-0.5,0-1,0.1-1.4,0.2c0,10.5,0,20.9,0,31.3
				C328.9,627.7,337.5,627.7,346.1,627.7z M313.8,634.1c-8.8,0-17.4,0-26,0c0,0.3-0.1,0.6-0.1,0.8c0.4,9.5,1.6,18.9,4,28.1
				c0.4,1.4,0.9,1.7,2.2,1.6c5.3-0.1,10.6,0,15.9,0c1.3,0,2.6,0,4,0C313.8,654.4,313.8,644.3,313.8,634.1z M320.3,634.1
				c0,10.3,0,20.4,0,30.5c7.3,0,14.4,0,21.6,0c2.7-10,4.1-20.1,4.4-30.5C337.4,634.1,328.9,634.1,320.3,634.1z M303,697.4
				c-8-7.5-12.2-16.8-15.5-26.4c-8.4,0-16.7,0-25.4,0C272.5,684.7,285.8,693.5,303,697.4z M330.9,697.4c17.2-3.9,30.5-12.7,41-26.5
				c-8.5,0-16.6,0-24.7,0c-0.4,0-0.9,0.6-1.1,1C342.8,681.2,338.6,690,330.9,697.4z M301.6,564.8c-15.9,3.7-28.7,12-39,25.2
				c8.3,0,16.2,0,24,0c0.5,0,1.2-0.6,1.4-1.1C291.2,580,295.1,571.7,301.6,564.8z M371.3,590c-10.4-13.2-23.2-21.6-39.2-25.4
				c1.8,2.2,3.5,4.2,5,6.3c3.8,5.4,6.4,11.4,8.7,17.6c0.2,0.6,0.9,1.4,1.3,1.4C355,590,362.9,590,371.3,590z M294.1,670.9
				c0.8,2,1.5,3.9,2.3,5.8c2.4,5.6,5.4,10.8,9.9,15.1c2.1,2,4.4,3.7,7.5,4.5c0-8.6,0-17,0-25.4C307.2,670.9,300.7,670.9,294.1,670.9
				z M339.6,671c-6.5,0-12.9,0-19.5,0c0,8.2,0,16.2,0,24.2c0,0.3,0.1,0.6,0.1,0.9C328.2,694.9,336.7,681.4,339.6,671z M313.8,564.7
				c-8.7,2-17.1,16.5-19.1,25.1c6.3,0,12.7,0,19.1,0C313.8,581.4,313.8,573.2,313.8,564.7z M339.3,589.9c0-0.2,0.1-0.3,0.1-0.4
				c-2.8-8-6.4-15.4-12.8-21.2c-1.8-1.6-4-2.6-6.3-4c0,9,0,17.3,0,25.6C326.7,589.9,333,589.9,339.3,589.9z"/>
		</g>
	</g>
	<g>
		<rect x="445.3" y="637.3" class="st6" width="61.8" height="8.5"/>
		<polyline class="st6" points="503.2,656.6 518.2,641.6 503.2,626.6 		"/>
	</g>
</g>
<g>
	<rect x="148.7" y="743.4" class="st5" width="318.9" height="164.7"/>
	<text transform="matrix(1 0 0 1 150.6249 764.3149)"><tspan x="0" y="0" class="st6 st10 st11">We have a diverse </tspan><tspan x="234.3" y="0" class="st6 st12 st11">global </tspan><tspan x="2.4" y="31.2" class="st6 st12 st11">manufacturing footprint</tspan><tspan x="312.8" y="31.2" class="st6 st10 st11"> </tspan><tspan x="39.1" y="62.3" class="st6 st10 st11">across 20 countries </tspan></text>
</g>
<g>
	<rect x="487.2" y="743.4" class="st5" width="343.1" height="164.7"/>
	<text transform="matrix(1 0 0 1 571.1962 764.2045)"><tspan x="0" y="0" class="st6 st10 st13">This allows for </tspan><tspan x="-42.5" y="31" class="st6 st12 st13">alternative locations</tspan><tspan x="217.6" y="31" class="st6 st10 st13"> </tspan><tspan x="-63.1" y="62" class="st6 st10 st13">and </tspan><tspan x="-9.2" y="62" class="st6 st12 st13">redundant capacity</tspan><tspan x="87.6" y="93" class="st6 st10 st13"> </tspan></text>
</g>
</svg>
