<?xml version="1.0" encoding="utf-8"?>
<!-- Generator: Adobe Illustrator 25.0.0, SVG Export Plug-In . SVG Version: 6.00 Build 0)  -->
<svg version="1.1" id="Layer_1" xmlns="http://www.w3.org/2000/svg" xmlns:xlink="http://www.w3.org/1999/xlink" x="0px" y="0px"
	 viewBox="0 0 138.6 134.7" style="enable-background:new 0 0 138.6 134.7;" xml:space="preserve">
<style type="text/css">
	.st0{fill:#FFFFFF;stroke:#FFFFFF;stroke-width:2.954;stroke-miterlimit:10;}
</style>
<path class="st0" d="M20.1,56.6c-2.8,0-5.2,0-7.7,0c-3.2-0.1-4.7-1.6-4.8-4.8c0-11.9,0-23.7,0-35.6c0-3.5,1.5-4.9,5-5
	c9.5,0,19,0,28.5,0c28.1,0,56.2,0,84.3,0c4.7,0,5.9,1.1,5.9,5.9c0,11.5,0,23,0,34.5c0,3.5-1.4,5-5,5c-2.4,0-4.7,0-7.4,0
	c0,1,0,1.9,0,2.7c0,19.3,0,38.5,0,57.8c0,4.2-1.2,5.4-5.4,5.4c-29.3,0-58.7,0-88,0c-4.2,0-5.4-1.2-5.4-5.4c0-19.2,0-38.4,0-57.6
	C20.1,58.6,20.1,57.8,20.1,56.6z M28.4,114.3c27.6,0,54.9,0,82.3,0c0-19.3,0-38.4,0-57.5c-27.5,0-54.8,0-82.3,0
	C28.4,75.9,28.4,95,28.4,114.3z M16.1,48.2c0.7,0,1.3,0.1,1.9,0.1c34.4,0,68.7,0,103.1,0c1.6,0,2.2-0.4,2.1-2.1
	c-0.1-8.2,0-16.4,0-24.7c0-0.6-0.1-1.3-0.2-1.9c-35.7,0-71.3,0-106.9,0C16.1,29.2,16.1,38.6,16.1,48.2z"/>
</svg>
