<svg xmlns="http://www.w3.org/2000/svg" xmlns:xlink="http://www.w3.org/1999/xlink" id="Layer_1" x="0" y="0" version="1.1" viewBox="0 0 366.5 532.7" xml:space="preserve" style="enable-background:new 0 0 366.5 532.7"><style type="text/css">.st0{fill:#fff}.st1,.st2{fill:none;stroke:#fff;stroke-width:3;stroke-linecap:round;stroke-linejoin:round}.st2{stroke-dasharray:0,9.1307}.st3{stroke-dasharray:0,10.8112}.st3,.st4,.st5{fill:none;stroke:#fff;stroke-width:3;stroke-linecap:round;stroke-linejoin:round}.st4{stroke-miterlimit:10;stroke-dasharray:0,9}.st5{stroke-dasharray:0,8.447}</style><g><g><g><path d="M160.6,514H125c-6.9,0-12.5-5.6-12.5-12.5c0-6.9,5.6-12.5,12.5-12.5h1.8v-18.9c-9.7-2-19.1-5.9-27.4-11.3 l-13.3,13.3l1.3,1.3c4.8,4.8,4.9,12.8,0,17.6c-2.4,2.4-5.5,3.7-8.8,3.7s-6.5-1.3-8.8-3.7l-25.2-25.2c-2.4-2.4-3.7-5.5-3.7-8.8 c0-3.3,1.3-6.5,3.7-8.8c2.4-2.4,5.5-3.7,8.8-3.7c3.3,0,6.5,1.3,8.8,3.7l1.3,1.3l13.3-13.3c-5.5-8.4-9.5-17.8-11.5-27.7H46.6v1.8 c0,6.9-5.6,12.5-12.5,12.5s-12.5-5.6-12.5-12.5v-35.6c0-6.9,5.6-12.5,12.5-12.5s12.5,5.6,12.5,12.5v1.8h18.6 c2-9.8,5.9-19.2,11.4-27.6l-13.2-13.2l-1.3,1.3c-2.4,2.4-5.5,3.7-8.8,3.7s-6.5-1.3-8.8-3.7c-4.9-4.9-4.9-12.8,0-17.6l25.2-25.2 c2.4-2.4,5.5-3.7,8.8-3.7s6.5,1.3,8.8,3.7c4.8,4.9,4.8,12.8,0,17.6l-1.3,1.3l13.2,13.2c8.3-5.5,17.7-9.4,27.5-11.4v-18.5H125 c-6.9,0-12.5-5.6-12.5-12.5c0-6.9,5.6-12.5,12.5-12.5h35.6c6.9,0,12.5,5.6,12.5,12.5c0,6.9-5.6,12.5-12.5,12.5h-1.8V315 c9.8,2,19.3,5.9,27.7,11.5l13.1-13.1l-1.3-1.3c-2.4-2.4-3.7-5.5-3.7-8.8c0-3.3,1.3-6.5,3.7-8.8c2.4-2.4,5.5-3.7,8.8-3.7 s6.5,1.3,8.8,3.7l25.2,25.2c2.4,2.4,3.7,5.5,3.7,8.8c0,3.3-1.3,6.5-3.7,8.8c-2.4,2.4-5.5,3.7-8.8,3.7s-6.5-1.3-8.8-3.7l-1.3-1.3 L209,349.2c5.5,8.3,9.3,17.7,11.3,27.4h18.7v-1.8c0-6.9,5.6-12.5,12.5-12.5c6.9,0,12.5,5.6,12.5,12.5v35.6 c0,6.9-5.6,12.5-12.5,12.5c-6.9,0-12.5-5.6-12.5-12.5v-1.8h-18.8c-2,9.8-5.9,19.2-11.4,27.5l13.3,13.3l1.3-1.3 c2.4-2.4,5.5-3.7,8.8-3.7s6.5,1.3,8.8,3.7c2.3,2.3,3.6,5.5,3.7,8.8c0,3.3-1.3,6.5-3.7,8.8l-25.2,25.2c-2.4,2.4-5.5,3.7-8.8,3.7 s-6.5-1.3-8.8-3.7c-2.4-2.4-3.7-5.5-3.7-8.8c0-3.3,1.3-6.5,3.7-8.8l1.3-1.3l-13.2-13.2c-8.4,5.5-17.8,9.4-27.6,11.4v18.9h1.8 c6.9,0,12.5,5.6,12.5,12.5C173.1,508.4,167.5,514,160.6,514z M125,497.1c-2.4,0-4.4,2-4.4,4.4c0,2.4,2,4.4,4.4,4.4h35.6 c2.4,0,4.4-2,4.4-4.4c0-2.4-2-4.4-4.4-4.4h-9.8v-33.7l3.4-0.5c10.9-1.7,21.4-6.1,30.3-12.6l2.8-2L211,472l-7,7 c-0.8,0.8-1.3,2-1.3,3.1c0,1.2,0.5,2.3,1.3,3.1c1.7,1.7,4.6,1.7,6.3,0l25.2-25.2c0.8-0.8,1.3-2,1.3-3.1c0-1.2-0.5-2.3-1.3-3.1 c-1.7-1.7-4.6-1.7-6.3,0l-7,7L198.5,437l2-2.8c6.5-8.9,10.8-19.4,12.5-30.3l0.5-3.4h33.5v9.9c0,2.4,2,4.4,4.4,4.4 c2.4,0,4.4-2,4.4-4.4v-35.6c0-2.4-2-4.4-4.4-4.4c-2.4,0-4.4,2-4.4,4.4v9.8h-33.5l-0.5-3.4c-1.7-10.8-6-21.3-12.5-30.2l-2-2.8 l23.6-23.6l7,7c1.7,1.7,4.6,1.7,6.3,0c0.8-0.8,1.3-2,1.3-3.1c0-1.2-0.5-2.3-1.3-3.1l-25.2-25.2c-1.7-1.7-4.6-1.7-6.3,0 c-0.8,0.8-1.3,2-1.3,3.1s0.5,2.3,1.3,3.1l7,7L187.3,337l-2.8-2c-9-6.5-19.5-10.9-30.4-12.6l-3.4-0.5v-33.3h9.8 c2.4,0,4.4-2,4.4-4.4c0-2.4-2-4.4-4.4-4.4H125c-2.4,0-4.4,2-4.4,4.4c0,2.4,2,4.4,4.4,4.4h9.8v33.3l-3.4,0.5 c-10.9,1.7-21.3,6.1-30.2,12.5l-2.8,2l-23.7-23.7l7-7c1.7-1.7,1.7-4.5,0-6.3c-1.7-1.7-4.6-1.7-6.3,0l-25.2,25.2 c-1.7,1.7-1.7,4.5,0,6.3c1.7,1.7,4.6,1.7,6.3,0l7-7l23.6,23.6l-2,2.8c-6.5,8.9-10.8,19.4-12.6,30.3l-0.5,3.4H38.6v-9.8 c0-2.4-2-4.4-4.4-4.4s-4.4,2-4.4,4.4v35.6c0,2.4,2,4.4,4.4,4.4s4.4-2,4.4-4.4v-9.9H72l0.5,3.4c1.8,10.9,6.1,21.4,12.6,30.4l2,2.8 l-23.8,23.8l-7-7c-1.7-1.7-4.6-1.7-6.3,0c-0.8,0.8-1.3,2-1.3,3.1c0,1.2,0.5,2.3,1.3,3.1l25.2,25.2c1.7,1.7,4.6,1.7,6.3,0 c1.7-1.7,1.7-4.5,0-6.3l-7-7l23.8-23.8l2.8,2c8.9,6.4,19.4,10.7,30.2,12.5l3.4,0.5v33.7H125z" class="st0"/></g><g><path d="M113.1,395.7c-10.7,0-19.3-8.7-19.3-19.4c0-10.7,8.7-19.3,19.3-19.3s19.3,8.7,19.3,19.3 C132.4,387.1,123.7,395.7,113.1,395.7z M113.1,365.1c-6.2,0-11.3,5.1-11.3,11.3c0,6.2,5.1,11.3,11.3,11.3s11.3-5.1,11.3-11.3 C124.4,370.1,119.3,365.1,113.1,365.1z" class="st0"/></g><g><path d="M165.9,374.6c-7.9,0-14.4-6.5-14.4-14.4c0-7.9,6.5-14.4,14.4-14.4c7.9,0,14.4,6.5,14.4,14.4 C180.3,368.1,173.9,374.6,165.9,374.6z M165.9,352.5c-4.3,0-7.7,3.5-7.7,7.7c0,4.3,3.5,7.7,7.7,7.7c4.3,0,7.7-3.5,7.7-7.7 C173.6,355.9,170.2,352.5,165.9,352.5z" class="st0"/></g><g><path d="M150.3,445.7c-14.9,0-27.1-12.1-27.1-27.1s12.1-27.1,27.1-27.1s27.1,12.1,27.1,27.1S165.2,445.7,150.3,445.7 z M150.3,400.9c-9.8,0-17.7,7.9-17.7,17.7c0,9.8,7.9,17.7,17.7,17.7s17.7-7.9,17.7-17.7C168,408.9,160,400.9,150.3,400.9z" class="st0"/></g></g><g><g><path d="M300.7,169l5.9,8.6c1.1,1.6,0.7,3.9-0.9,5.1s-3.9,0.7-5.1-0.9l-0.3-0.4l-4.5,3.1c1.1,2.7,1.7,5.6,1.8,8.4 l5.4,1l0.1-0.5c0.4-2,2.3-3.3,4.2-2.9c1,0.2,1.8,0.7,2.3,1.5s0.8,1.8,0.6,2.7l-1.9,10.2c-0.2,1-0.7,1.8-1.5,2.3s-1.8,0.8-2.7,0.6 c-1-0.2-1.8-0.7-2.3-1.5s-0.8-1.8-0.6-2.7l0.1-0.5l-5.4-1c-1.1,2.7-2.7,5.2-4.7,7.3l3.1,4.5l0.4-0.3c1.6-1.1,3.9-0.7,5,0.9 s0.7,3.9-0.9,5.1l-8.6,5.9c-1.6,1.1-3.9,0.7-5.1-0.9c-1.1-1.6-0.7-3.9,0.9-5.1l0.4-0.3l-3.1-4.5c-2.7,1.1-5.6,1.8-8.5,1.8l-1,5.3 l0.5,0.1c1,0.2,1.8,0.7,2.3,1.5s0.8,1.8,0.6,2.7c-0.4,2-2.3,3.3-4.2,2.9l-10.2-1.9c-1-0.2-1.8-0.7-2.3-1.5 c-0.6-0.8-0.8-1.8-0.6-2.7c0.4-2,2.3-3.3,4.2-2.9l0.5,0.1l1-5.3c-2.7-1.1-5.2-2.7-7.3-4.7l-4.4,3.1l0.3,0.4 c1.1,1.6,0.7,3.9-0.9,5.1c-1.6,1.1-3.9,0.7-5.1-0.9l-5.9-8.6c-1.1-1.6-0.7-3.9,0.9-5.1c1.6-1.1,3.9-0.7,5.1,0.9l0.3,0.4l4.4-3.1 c-1.1-2.7-1.8-5.6-1.8-8.5l-5.3-1l-0.1,0.5c-0.2,1-0.7,1.8-1.5,2.3s-1.8,0.8-2.7,0.6c-1-0.2-1.8-0.7-2.3-1.5 c-0.6-0.8-0.8-1.8-0.6-2.7l1.9-10.2c0.2-1,0.7-1.8,1.5-2.3c0.8-0.6,1.8-0.8,2.7-0.6c1,0.2,1.8,0.7,2.3,1.5s0.8,1.8,0.6,2.7 l-0.1,0.5l5.3,1c1.1-2.7,2.7-5.2,4.7-7.3l-3.1-4.5l-0.4,0.3c-1.6,1.1-3.9,0.7-5.1-0.9c-1.1-1.6-0.7-3.9,0.9-5l8.6-5.9 c1.6-1.1,3.9-0.7,5,0.9c1.1,1.6,0.7,3.9-0.9,5.1l-0.4,0.3l3.1,4.5c2.7-1.1,5.6-1.8,8.5-1.8l1-5.4l-0.5-0.1 c-1-0.2-1.8-0.7-2.3-1.5c-0.6-0.8-0.8-1.8-0.6-2.7c0.2-1,0.7-1.8,1.5-2.3c0.8-0.6,1.8-0.8,2.7-0.6l10.2,1.9 c1,0.2,1.8,0.7,2.3,1.5c0.6,0.8,0.8,1.8,0.6,2.7c-0.2,1-0.7,1.8-1.5,2.3c-0.8,0.6-1.8,0.8-2.7,0.6l-0.5-0.1l-1,5.4 c2.7,1.1,5.2,2.7,7.3,4.7l4.5-3.1l-0.3-0.4c-1.1-1.6-0.7-3.9,0.9-5.1C297.3,167,299.6,167.4,300.7,169z M302.6,180.4 c0.4,0.6,1.2,0.7,1.8,0.3c0.6-0.4,0.7-1.2,0.3-1.8l-5.9-8.6c-0.4-0.6-1.2-0.7-1.8-0.3c-0.6,0.4-0.7,1.2-0.3,1.8l1.6,2.4l-8.1,5.6 l-0.7-0.7c-2.2-2.3-5-4.1-8-5.2l-0.9-0.3l1.8-9.6l2.8,0.5c0.3,0.1,0.7,0,1-0.2c0.3-0.2,0.5-0.5,0.5-0.8c0.1-0.7-0.4-1.4-1-1.5 l-10.2-1.9c-0.3-0.1-0.7,0-1,0.2c-0.3,0.2-0.5,0.5-0.5,0.8c-0.1,0.7,0.4,1.4,1,1.5l2.8,0.5l-1.8,9.6l-1,0c-3.2-0.1-6.4,0.6-9.3,2 l-0.9,0.4l-5.5-8l2.4-1.6c0.6-0.4,0.7-1.2,0.3-1.8c-0.4-0.6-1.2-0.7-1.8-0.3l-8.6,5.9c-0.6,0.4-0.7,1.2-0.3,1.8 c0.4,0.6,1.2,0.7,1.8,0.3l2.4-1.6l5.6,8l-0.7,0.7c-2.3,2.2-4.1,5-5.2,8l-0.3,0.9l-9.6-1.8l0.5-2.8c0.1-0.7-0.4-1.4-1-1.5 c-0.3-0.1-0.7,0-1,0.2c-0.3,0.2-0.5,0.5-0.5,0.8l-1.9,10.2c-0.1,0.7,0.4,1.4,1,1.5c0.3,0.1,0.7,0,1-0.2c0.3-0.2,0.5-0.5,0.5-0.8 l0.5-2.8l9.6,1.8l0,1c-0.1,3.2,0.6,6.5,2,9.4l0.4,0.9l-8,5.5l-1.6-2.4c-0.4-0.6-1.2-0.7-1.8-0.3c-0.6,0.4-0.7,1.2-0.3,1.8 l5.9,8.6c0.4,0.6,1.2,0.7,1.8,0.3c0.6-0.4,0.7-1.2,0.3-1.8l-1.6-2.4l8-5.5l0.7,0.7c2.2,2.3,5,4.1,8,5.2l0.9,0.3l-1.8,9.6 l-2.8-0.5c-0.7-0.1-1.4,0.3-1.5,1c-0.1,0.7,0.4,1.4,1,1.5l10.2,1.9c0.7,0.1,1.4-0.3,1.5-1c0.1-0.7-0.4-1.4-1-1.5l-2.8-0.5 l1.8-9.6l1,0c3.2,0.1,6.5-0.6,9.4-2l0.9-0.4l5.5,8l-2.4,1.6c-0.6,0.4-0.7,1.2-0.3,1.8c0.4,0.6,1.2,0.7,1.8,0.3l8.6-5.9 c0.6-0.4,0.7-1.2,0.3-1.8s-1.2-0.7-1.8-0.3l-2.4,1.6l-5.5-8l0.7-0.7c2.3-2.2,4.1-5,5.2-8.1l0.3-0.9l9.6,1.8l-0.5,2.8 c-0.1,0.7,0.4,1.4,1,1.5c0.3,0.1,0.7,0,1-0.2c0.3-0.2,0.5-0.5,0.5-0.8l1.9-10.2c0.1-0.7-0.4-1.4-1-1.5c-0.7-0.1-1.4,0.3-1.5,1 l-0.5,2.8l-9.6-1.8l0-1c0.1-3.2-0.6-6.4-2-9.3l-0.4-0.9l8.1-5.6L302.6,180.4z" class="st0"/></g><g><path d="M280.2,200c1.8,2.6,1.1,6.1-1.4,7.8c-2.6,1.8-6.1,1.1-7.8-1.4c-1.8-2.6-1.1-6.1,1.4-7.8 C274.9,196.8,278.4,197.4,280.2,200z M272.8,205.1c1,1.5,3.1,1.9,4.6,0.8c1.5-1,1.9-3.1,0.8-4.6c-1-1.5-3.1-1.9-4.6-0.8 C272.2,201.5,271.8,203.6,272.8,205.1z" class="st0"/></g><g><path d="M266.4,190.8c1.3,1.9,0.8,4.5-1.1,5.8c-1.9,1.3-4.5,0.8-5.8-1.1c-1.3-1.9-0.8-4.5,1.1-5.8 C262.5,188.4,265.1,188.9,266.4,190.8z M261.1,194.5c0.7,1,2.1,1.3,3.1,0.6c1-0.7,1.3-2.1,0.6-3.1c-0.7-1-2.1-1.3-3.1-0.6 C260.6,192.1,260.4,193.5,261.1,194.5z" class="st0"/></g><g><path d="M286,182.8c2.5,3.6,1.6,8.5-2,11c-3.6,2.5-8.5,1.6-11-2c-2.5-3.6-1.6-8.5,2-11 C278.6,178.3,283.6,179.2,286,182.8z M275.3,190.2c1.6,2.3,4.8,2.9,7.2,1.3c2.3-1.6,2.9-4.8,1.3-7.2c-1.6-2.3-4.8-2.9-7.2-1.3 C274.3,184.7,273.7,187.9,275.3,190.2z" class="st0"/></g></g><g><g><path d="M258.3,92.6l2.9,4.2c0.6,0.8,0.4,1.9-0.5,2.5c-0.8,0.6-1.9,0.4-2.5-0.5l-0.1-0.2l-2.2,1.5 c0.5,1.3,0.9,2.7,0.9,4.1l2.6,0.5l0-0.3c0.2-1,1.1-1.6,2.1-1.4c0.5,0.1,0.9,0.3,1.1,0.7c0.3,0.4,0.4,0.9,0.3,1.3l-0.9,5 c-0.1,0.5-0.3,0.9-0.7,1.1s-0.9,0.4-1.3,0.3c-0.5-0.1-0.9-0.3-1.1-0.7c-0.3-0.4-0.4-0.9-0.3-1.3l0-0.3l-2.6-0.5 c-0.5,1.3-1.3,2.5-2.3,3.6l1.5,2.2l0.2-0.1c0.8-0.6,1.9-0.3,2.5,0.5s0.4,1.9-0.5,2.5l-4.2,2.9c-0.8,0.6-1.9,0.4-2.5-0.5 c-0.6-0.8-0.4-1.9,0.5-2.5l0.2-0.1l-1.5-2.2c-1.3,0.6-2.7,0.9-4.1,0.9l-0.5,2.6l0.3,0c0.5,0.1,0.9,0.3,1.1,0.7s0.4,0.9,0.3,1.3 c-0.2,1-1.1,1.6-2.1,1.4l-5-0.9c-0.5-0.1-0.9-0.3-1.1-0.7c-0.3-0.4-0.4-0.9-0.3-1.3c0.2-1,1.1-1.6,2.1-1.4l0.3,0l0.5-2.6 c-1.3-0.5-2.5-1.3-3.5-2.3l-2.2,1.5l0.1,0.2c0.6,0.8,0.4,1.9-0.5,2.5s-1.9,0.4-2.5-0.5l-2.9-4.2c-0.6-0.8-0.4-1.9,0.5-2.5 s1.9-0.4,2.5,0.5l0.1,0.2l2.2-1.5c-0.6-1.3-0.9-2.7-0.9-4.2l-2.6-0.5l0,0.3c-0.1,0.5-0.3,0.9-0.7,1.1c-0.4,0.3-0.9,0.4-1.3,0.3 c-0.5-0.1-0.9-0.3-1.1-0.7c-0.3-0.4-0.4-0.9-0.3-1.3l0.9-5c0.1-0.5,0.3-0.9,0.7-1.1c0.4-0.3,0.9-0.4,1.3-0.3 c0.5,0.1,0.9,0.3,1.1,0.7c0.3,0.4,0.4,0.9,0.3,1.3l0,0.3l2.6,0.5c0.5-1.3,1.3-2.5,2.3-3.5l-1.5-2.2l-0.2,0.1 c-0.8,0.6-1.9,0.4-2.5-0.5c-0.6-0.8-0.3-1.9,0.5-2.5l4.2-2.9c0.8-0.6,1.9-0.4,2.5,0.5c0.6,0.8,0.4,1.9-0.5,2.5l-0.2,0.1l1.5,2.2 c1.3-0.6,2.7-0.9,4.1-0.9l0.5-2.6l-0.3,0c-0.5-0.1-0.9-0.3-1.1-0.7c-0.3-0.4-0.4-0.9-0.3-1.3c0.1-0.5,0.3-0.9,0.7-1.1 c0.4-0.3,0.9-0.4,1.3-0.3l5,0.9c0.5,0.1,0.9,0.3,1.1,0.7c0.3,0.4,0.4,0.9,0.3,1.3c-0.1,0.5-0.3,0.9-0.7,1.1 c-0.4,0.3-0.9,0.4-1.3,0.3l-0.3,0l-0.5,2.6c1.3,0.5,2.5,1.3,3.6,2.3l2.2-1.5l-0.1-0.2c-0.6-0.8-0.4-1.9,0.5-2.5 C256.7,91.6,257.8,91.8,258.3,92.6z M259.2,98.2c0.2,0.3,0.6,0.4,0.9,0.2c0.3-0.2,0.4-0.6,0.2-0.9l-2.9-4.2 c-0.2-0.3-0.6-0.4-0.9-0.2c-0.3,0.2-0.4,0.6-0.2,0.9l0.8,1.1l-3.9,2.7l-0.3-0.4c-1.1-1.1-2.4-2-3.9-2.5l-0.5-0.2l0.9-4.7l1.4,0.3 c0.2,0,0.3,0,0.5-0.1c0.1-0.1,0.2-0.2,0.3-0.4c0.1-0.3-0.2-0.7-0.5-0.7l-5-0.9c-0.2,0-0.3,0-0.5,0.1c-0.1,0.1-0.2,0.2-0.3,0.4 c-0.1,0.3,0.2,0.7,0.5,0.7l1.4,0.3l-0.9,4.7l-0.5,0c-1.6,0-3.1,0.3-4.5,1l-0.4,0.2l-2.7-3.9l1.2-0.8c0.3-0.2,0.4-0.6,0.2-0.9 c-0.2-0.3-0.6-0.4-0.9-0.2l-4.2,2.9c-0.3,0.2-0.4,0.6-0.2,0.9c0.2,0.3,0.6,0.4,0.9,0.2l1.1-0.8l2.7,3.9l-0.4,0.3 c-1.1,1.1-2,2.4-2.5,3.9l-0.2,0.5l-4.7-0.9l0.3-1.4c0.1-0.3-0.2-0.7-0.5-0.7c-0.2,0-0.3,0-0.5,0.1c-0.1,0.1-0.2,0.2-0.3,0.4 l-0.9,5c-0.1,0.3,0.2,0.7,0.5,0.7c0.2,0,0.3,0,0.5-0.1c0.1-0.1,0.2-0.2,0.3-0.4l0.3-1.4l4.6,0.9l0,0.5c0,1.6,0.3,3.2,1,4.6 l0.2,0.4l-3.9,2.7l-0.8-1.1c-0.2-0.3-0.6-0.4-0.9-0.2c-0.3,0.2-0.4,0.6-0.2,0.9l2.9,4.2c0.2,0.3,0.6,0.4,0.9,0.2 c0.3-0.2,0.4-0.6,0.2-0.9l-0.8-1.1l3.9-2.7l0.3,0.4c1.1,1.1,2.4,2,3.9,2.5l0.5,0.2l-0.9,4.7l-1.4-0.3c-0.3-0.1-0.7,0.2-0.7,0.5 c-0.1,0.3,0.2,0.7,0.5,0.7l5,0.9c0.3,0.1,0.7-0.2,0.7-0.5c0.1-0.3-0.2-0.7-0.5-0.7l-1.4-0.3l0.9-4.7l0.5,0c1.6,0,3.1-0.3,4.6-1 l0.4-0.2l2.7,3.9l-1.1,0.8c-0.3,0.2-0.4,0.6-0.2,0.9c0.2,0.3,0.6,0.4,0.9,0.2l4.2-2.9c0.3-0.2,0.4-0.6,0.2-0.9s-0.6-0.4-0.9-0.2 l-1.2,0.8l-2.7-3.9l0.4-0.3c1.1-1.1,2-2.4,2.5-3.9l0.2-0.5l4.7,0.9l-0.3,1.4c-0.1,0.3,0.2,0.7,0.5,0.7c0.2,0,0.3,0,0.5-0.1 c0.1-0.1,0.2-0.2,0.3-0.4l0.9-5c0.1-0.3-0.2-0.7-0.5-0.7c-0.3-0.1-0.7,0.2-0.7,0.5l-0.3,1.4l-4.7-0.9l0-0.5c0-1.6-0.3-3.1-1-4.5 l-0.2-0.4l3.9-2.7L259.2,98.2z" class="st0"/></g><g><path d="M248.4,107.7c0.9,1.2,0.5,3-0.7,3.8c-1.2,0.9-3,0.5-3.8-0.7c-0.9-1.2-0.5-3,0.7-3.8 C245.8,106.1,247.5,106.5,248.4,107.7z M244.8,110.2c0.5,0.7,1.5,0.9,2.2,0.4c0.7-0.5,0.9-1.5,0.4-2.2s-1.5-0.9-2.2-0.4 C244.5,108.4,244.3,109.4,244.8,110.2z" class="st0"/></g><g><path d="M241.6,103.2c0.6,0.9,0.4,2.2-0.5,2.8c-0.9,0.6-2.2,0.4-2.8-0.5c-0.6-0.9-0.4-2.2,0.5-2.8 C239.7,102.1,241,102.3,241.6,103.2z M239.1,105c0.3,0.5,1,0.6,1.5,0.3c0.5-0.3,0.6-1,0.3-1.5c-0.3-0.5-1-0.6-1.5-0.3 C238.8,103.8,238.7,104.5,239.1,105z" class="st0"/></g><g><path d="M251.2,99.3c1.2,1.7,0.8,4.1-1,5.3c-1.7,1.2-4.1,0.8-5.3-1s-0.8-4.1,1-5.3C247.6,97.2,250,97.6,251.2,99.3z M246,102.9c0.8,1.1,2.4,1.4,3.5,0.6c1.1-0.8,1.4-2.4,0.6-3.5c-0.8-1.1-2.4-1.4-3.5-0.6C245.5,100.2,245.2,101.8,246,102.9z" class="st0"/></g></g><g><g><line x1="249.8" x2="249.8" y1="232.9" y2="232.9" class="st1"/><line x1="244.8" x2="221.9" y1="240.5" y2="274.7" class="st2"/><line x1="219.4" x2="219.4" y1="278.5" y2="278.5" class="st1"/></g></g><g><g><line x1="254.2" x2="254.2" y1="128.2" y2="128.2" class="st1"/><line x1="257.8" x2="259.7" y1="138.4" y2="143.5" class="st3"/><line x1="261.5" x2="261.5" y1="148.6" y2="148.6" class="st1"/></g></g></g><line x1="307.6" x2="260.7" y1="50.2" y2="89" class="st4"/><g><g><path d="M159.7,103.5l6.8,2.3c1.3,0.4,2,1.9,1.6,3.2c-0.4,1.3-1.9,2-3.2,1.6l-0.3-0.1l-1.2,3.6c1.7,1,3.3,2.3,4.5,3.9 l3.4-1.7L171,116c-0.6-1.2-0.1-2.7,1.1-3.4c0.6-0.3,1.3-0.3,1.9-0.1c0.6,0.2,1.1,0.7,1.4,1.3l3.2,6.4c0.3,0.6,0.3,1.3,0.1,1.9 c-0.2,0.6-0.7,1.1-1.3,1.4c-0.6,0.3-1.3,0.3-1.9,0.1s-1.1-0.7-1.4-1.3l-0.2-0.3l-3.4,1.7c0.5,2,0.7,4,0.4,6l3.6,1.2l0.1-0.3 c0.4-1.3,1.9-2,3.2-1.6s2,1.9,1.6,3.2l-2.3,6.8c-0.4,1.3-1.9,2-3.2,1.6c-1.3-0.4-2-1.9-1.6-3.2l0.1-0.3l-3.6-1.2 c-1,1.7-2.4,3.3-4,4.5l1.7,3.4l0.3-0.2c0.6-0.3,1.3-0.3,1.9-0.1s1.1,0.7,1.4,1.3c0.6,1.2,0.1,2.7-1.1,3.4l-6.4,3.2 c-0.6,0.3-1.3,0.3-1.9,0.1c-0.6-0.2-1.1-0.7-1.4-1.3c-0.6-1.2-0.1-2.7,1.1-3.4l0.3-0.2l-1.7-3.4c-1.9,0.5-4,0.6-6,0.4l-1.2,3.5 l0.3,0.1c1.3,0.4,2,1.9,1.6,3.2s-1.9,2-3.2,1.6l-6.8-2.3c-1.3-0.4-2-1.9-1.6-3.2c0.4-1.3,1.9-2,3.2-1.6l0.3,0.1l1.2-3.5 c-1.7-1-3.3-2.4-4.5-4l-3.3,1.7l0.2,0.3c0.3,0.6,0.3,1.3,0.1,1.9s-0.7,1.1-1.3,1.4c-0.6,0.3-1.3,0.3-1.9,0.1 c-0.6-0.2-1.1-0.7-1.4-1.3l-3.2-6.4c-0.3-0.6-0.3-1.3-0.1-1.9s0.7-1.1,1.3-1.4c0.6-0.3,1.3-0.3,1.9-0.1s1.1,0.7,1.4,1.3l0.2,0.3 l3.4-1.7c-0.5-1.9-0.6-4-0.4-6l-3.6-1.2l-0.1,0.3c-0.4,1.3-1.9,2-3.2,1.6c-1.3-0.4-2-1.9-1.6-3.2l2.3-6.8c0.4-1.3,1.9-2,3.2-1.6 c1.3,0.4,2,1.9,1.6,3.2l-0.1,0.3l3.6,1.2c1-1.7,2.4-3.3,3.9-4.5l-1.7-3.4l-0.3,0.2c-0.6,0.3-1.3,0.3-1.9,0.1 c-0.6-0.2-1.1-0.7-1.4-1.3c-0.3-0.6-0.3-1.3-0.1-1.9c0.2-0.6,0.7-1.2,1.3-1.4l6.4-3.2c0.6-0.3,1.3-0.3,1.9-0.1 c0.6,0.2,1.1,0.7,1.4,1.3c0.3,0.6,0.3,1.3,0.1,1.9c-0.2,0.6-0.7,1.1-1.3,1.4l-0.3,0.2l1.7,3.4c1.9-0.5,4-0.7,6-0.4l1.2-3.6 l-0.3-0.1c-1.3-0.4-2-1.9-1.6-3.2C156.9,103.8,158.4,103.1,159.7,103.5z M165.4,109.1c0.5,0.2,1-0.1,1.1-0.6 c0.2-0.5-0.1-1-0.6-1.1l-6.8-2.3c-0.5-0.2-1,0.1-1.1,0.6c-0.2,0.5,0.1,1,0.6,1.1l1.9,0.6l-2.2,6.4l-0.7-0.1 c-2.2-0.4-4.5-0.2-6.6,0.4l-0.7,0.2l-3-6.1l1.8-0.9c0.2-0.1,0.4-0.3,0.4-0.5c0.1-0.2,0.1-0.5,0-0.7c-0.2-0.4-0.8-0.6-1.2-0.4 l-6.4,3.2c-0.2,0.1-0.4,0.3-0.5,0.5c-0.1,0.2-0.1,0.5,0,0.7c0.2,0.4,0.8,0.6,1.2,0.4l1.8-0.9l3,6.1l-0.6,0.4c-1.8,1.3-3.3,3-4.3,5 l-0.3,0.6l-6.4-2.2l0.6-1.9c0.2-0.5-0.1-1-0.6-1.1c-0.5-0.2-1,0.1-1.1,0.6l-2.3,6.8c-0.2,0.5,0.1,1,0.6,1.1c0.5,0.2,1-0.1,1.1-0.6 l0.6-1.9l6.4,2.2l-0.1,0.7c-0.4,2.2-0.2,4.4,0.4,6.6l0.2,0.7l-6,3l-0.9-1.8c-0.2-0.4-0.8-0.6-1.2-0.4c-0.2,0.1-0.4,0.3-0.5,0.5 s-0.1,0.5,0,0.7l3.2,6.4c0.2,0.4,0.8,0.6,1.2,0.4c0.2-0.1,0.4-0.3,0.5-0.5s0.1-0.5,0-0.7l-0.9-1.8l6-3l0.4,0.6 c1.3,1.8,3,3.3,5,4.4l0.6,0.3l-2.1,6.3l-1.9-0.6c-0.5-0.2-1,0.1-1.1,0.6c-0.2,0.5,0.1,1,0.6,1.1l6.8,2.3c0.5,0.2,1-0.1,1.1-0.6 c0.2-0.5-0.1-1-0.6-1.1l-1.9-0.6l2.1-6.3l0.7,0.1c2.2,0.4,4.5,0.2,6.6-0.4l0.7-0.2l3,6l-1.8,0.9c-0.4,0.2-0.6,0.8-0.4,1.2 c0.2,0.4,0.8,0.6,1.2,0.4l6.4-3.2c0.4-0.2,0.6-0.8,0.4-1.2c-0.2-0.4-0.8-0.6-1.2-0.4l-1.8,0.9l-3-6l0.6-0.4c1.8-1.3,3.3-3,4.4-5 l0.3-0.6l6.4,2.2L174,138c-0.2,0.5,0.1,1,0.6,1.1s1-0.1,1.1-0.6l2.3-6.8c0.2-0.5-0.1-1-0.6-1.1c-0.5-0.2-1,0.1-1.1,0.6l-0.6,1.9 l-6.4-2.2l0.1-0.7c0.4-2.2,0.2-4.5-0.5-6.6l-0.2-0.7l6.1-3l0.9,1.8c0.2,0.4,0.8,0.6,1.2,0.4c0.2-0.1,0.4-0.3,0.5-0.5 c0.1-0.2,0.1-0.5,0-0.7l-3.2-6.4c-0.2-0.4-0.8-0.6-1.2-0.4c-0.4,0.2-0.6,0.8-0.4,1.2l0.9,1.8l-6.1,3l-0.4-0.6 c-1.3-1.8-3-3.3-5-4.3l-0.6-0.3l2.2-6.4L165.4,109.1z" class="st0"/></g><g><path d="M161.1,129.2c2,0.7,3.1,2.9,2.4,4.9c-0.7,2-2.9,3.1-4.9,2.4c-2-0.7-3.1-2.9-2.4-4.9 C156.9,129.6,159.1,128.5,161.1,129.2z M159.2,135c1.2,0.4,2.5-0.2,2.9-1.4c0.4-1.2-0.2-2.5-1.4-2.9c-1.2-0.4-2.5,0.2-2.9,1.4 C157.3,133.3,158,134.6,159.2,135z" class="st0"/></g><g><path d="M149.7,129.8c1.5,0.5,2.3,2.2,1.8,3.7c-0.5,1.5-2.2,2.3-3.7,1.8c-1.5-0.5-2.3-2.2-1.8-3.7 C146.5,130.1,148.2,129.3,149.7,129.8z M148.3,134c0.8,0.3,1.7-0.2,2-1c0.3-0.8-0.2-1.7-1-2c-0.8-0.3-1.7,0.2-2,1 C147,132.9,147.4,133.7,148.3,134z" class="st0"/></g><g><path d="M157.3,117.2c2.8,1,4.4,4.1,3.4,6.9s-4.1,4.4-6.9,3.4c-2.8-1-4.4-4.1-3.4-6.9S154.4,116.3,157.3,117.2z M154.4,125.8c1.9,0.6,3.9-0.4,4.5-2.2c0.6-1.9-0.4-3.9-2.2-4.5c-1.9-0.6-3.9,0.4-4.5,2.2C151.5,123.1,152.5,125.1,154.4,125.8z" class="st0"/></g></g><g><g><line x1="190.3" x2="190.3" y1="145.4" y2="145.4" class="st1"/><line x1="197.9" x2="232" y1="149.1" y2="165.9" class="st5"/><line x1="235.8" x2="235.8" y1="167.8" y2="167.8" class="st1"/></g></g><g><g><path d="M340.4,24l2.9,4.2c0.6,0.8,0.4,1.9-0.5,2.5c-0.8,0.6-1.9,0.4-2.5-0.5l-0.1-0.2l-2.2,1.5 c0.5,1.3,0.9,2.7,0.9,4.1l2.6,0.5l0-0.3c0.2-1,1.1-1.6,2.1-1.4c0.5,0.1,0.9,0.3,1.1,0.7c0.3,0.4,0.4,0.9,0.3,1.3l-0.9,5 c-0.1,0.5-0.3,0.9-0.7,1.1c-0.4,0.3-0.9,0.4-1.3,0.3c-0.5-0.1-0.9-0.3-1.1-0.7c-0.3-0.4-0.4-0.9-0.3-1.3l0-0.3l-2.6-0.5 c-0.5,1.3-1.3,2.5-2.3,3.6l1.5,2.2l0.2-0.1c0.8-0.6,1.9-0.3,2.5,0.5c0.6,0.8,0.4,1.9-0.5,2.5l-4.2,2.9c-0.8,0.6-1.9,0.4-2.5-0.5 c-0.6-0.8-0.4-1.9,0.5-2.5l0.2-0.1l-1.5-2.2c-1.3,0.6-2.7,0.9-4.1,0.9l-0.5,2.6l0.3,0c0.5,0.1,0.9,0.3,1.1,0.7 c0.3,0.4,0.4,0.9,0.3,1.3c-0.2,1-1.1,1.6-2.1,1.4l-5-0.9c-0.5-0.1-0.9-0.3-1.1-0.7c-0.3-0.4-0.4-0.9-0.3-1.3 c0.2-1,1.1-1.6,2.1-1.4l0.3,0l0.5-2.6c-1.3-0.5-2.5-1.3-3.5-2.3l-2.2,1.5l0.1,0.2c0.6,0.8,0.4,1.9-0.5,2.5 c-0.8,0.6-1.9,0.4-2.5-0.5l-2.9-4.2c-0.6-0.8-0.4-1.9,0.5-2.5c0.8-0.6,1.9-0.4,2.5,0.5l0.1,0.2l2.2-1.5c-0.6-1.3-0.9-2.7-0.9-4.2 l-2.6-0.5l0,0.3c-0.1,0.5-0.3,0.9-0.7,1.1c-0.4,0.3-0.9,0.4-1.3,0.3c-0.5-0.1-0.9-0.3-1.1-0.7c-0.3-0.4-0.4-0.9-0.3-1.3l0.9-5 c0.1-0.5,0.3-0.9,0.7-1.1c0.4-0.3,0.9-0.4,1.3-0.3c0.5,0.1,0.9,0.3,1.1,0.7c0.3,0.4,0.4,0.9,0.3,1.3l0,0.3l2.6,0.5 c0.5-1.3,1.3-2.5,2.3-3.5l-1.5-2.2l-0.2,0.1c-0.8,0.6-1.9,0.4-2.5-0.5c-0.6-0.8-0.3-1.9,0.5-2.5l4.2-2.9c0.8-0.6,1.9-0.4,2.5,0.5 c0.6,0.8,0.4,1.9-0.5,2.5l-0.2,0.1l1.5,2.2c1.3-0.6,2.7-0.9,4.1-0.9l0.5-2.6l-0.3,0c-0.5-0.1-0.9-0.3-1.1-0.7 c-0.3-0.4-0.4-0.9-0.3-1.3c0.1-0.5,0.3-0.9,0.7-1.1c0.4-0.3,0.9-0.4,1.3-0.3l5,0.9c0.5,0.1,0.9,0.3,1.1,0.7 c0.3,0.4,0.4,0.9,0.3,1.3c-0.1,0.5-0.3,0.9-0.7,1.1c-0.4,0.3-0.9,0.4-1.3,0.3l-0.3,0l-0.5,2.6c1.3,0.5,2.5,1.3,3.6,2.3l2.2-1.5 l-0.1-0.2c-0.6-0.8-0.4-1.9,0.5-2.5C338.8,23,339.9,23.2,340.4,24z M341.3,29.5c0.2,0.3,0.6,0.4,0.9,0.2c0.3-0.2,0.4-0.6,0.2-0.9 l-2.9-4.2c-0.2-0.3-0.6-0.4-0.9-0.2c-0.3,0.2-0.4,0.6-0.2,0.9l0.8,1.1l-3.9,2.7l-0.3-0.4c-1.1-1.1-2.4-2-3.9-2.5l-0.5-0.2l0.9-4.7 l1.4,0.3c0.2,0,0.3,0,0.5-0.1c0.1-0.1,0.2-0.2,0.3-0.4c0.1-0.3-0.2-0.7-0.5-0.7l-5-0.9c-0.2,0-0.3,0-0.5,0.1 c-0.1,0.1-0.2,0.2-0.3,0.4c-0.1,0.3,0.2,0.7,0.5,0.7l1.4,0.3l-0.9,4.7l-0.5,0c-1.6,0-3.1,0.3-4.5,1l-0.4,0.2l-2.7-3.9l1.2-0.8 c0.3-0.2,0.4-0.6,0.2-0.9c-0.2-0.3-0.6-0.4-0.9-0.2l-4.2,2.9c-0.3,0.2-0.4,0.6-0.2,0.9c0.2,0.3,0.6,0.4,0.9,0.2l1.1-0.8l2.7,3.9 l-0.4,0.3c-1.1,1.1-2,2.4-2.5,3.9l-0.2,0.5l-4.7-0.9l0.3-1.4c0.1-0.3-0.2-0.7-0.5-0.7c-0.2,0-0.3,0-0.5,0.1s-0.2,0.2-0.3,0.4 l-0.9,5c-0.1,0.3,0.2,0.7,0.5,0.7c0.2,0,0.3,0,0.5-0.1c0.1-0.1,0.2-0.2,0.3-0.4l0.3-1.4l4.6,0.9l0,0.5c0,1.6,0.3,3.2,1,4.6 l0.2,0.4l-3.9,2.7l-0.8-1.1c-0.2-0.3-0.6-0.4-0.9-0.2c-0.3,0.2-0.4,0.6-0.2,0.9l2.9,4.2c0.2,0.3,0.6,0.4,0.9,0.2 c0.3-0.2,0.4-0.6,0.2-0.9l-0.8-1.1l3.9-2.7l0.3,0.4c1.1,1.1,2.4,2,3.9,2.5l0.5,0.2l-0.9,4.7l-1.4-0.3c-0.3-0.1-0.7,0.2-0.7,0.5 c-0.1,0.3,0.2,0.7,0.5,0.7l5,0.9c0.3,0.1,0.7-0.2,0.7-0.5c0.1-0.3-0.2-0.7-0.5-0.7l-1.4-0.3l0.9-4.7l0.5,0c1.6,0,3.1-0.3,4.6-1 l0.4-0.2l2.7,3.9l-1.1,0.8c-0.3,0.2-0.4,0.6-0.2,0.9c0.2,0.3,0.6,0.4,0.9,0.2l4.2-2.9c0.3-0.2,0.4-0.6,0.2-0.9 c-0.2-0.3-0.6-0.4-0.9-0.2l-1.2,0.8l-2.7-3.9l0.4-0.3c1.1-1.1,2-2.4,2.5-3.9l0.2-0.5l4.7,0.9l-0.3,1.4c-0.1,0.3,0.2,0.7,0.5,0.7 c0.2,0,0.3,0,0.5-0.1c0.1-0.1,0.2-0.2,0.3-0.4l0.9-5c0.1-0.3-0.2-0.7-0.5-0.7c-0.3-0.1-0.7,0.2-0.7,0.5l-0.3,1.4l-4.7-0.9l0-0.5 c0-1.6-0.3-3.1-1-4.5l-0.2-0.4l3.9-2.7L341.3,29.5z" class="st0"/></g><g><path d="M330.4,39.1c0.9,1.2,0.5,3-0.7,3.8c-1.2,0.9-3,0.5-3.8-0.7c-0.9-1.2-0.5-3,0.7-3.8 C327.9,37.5,329.6,37.8,330.4,39.1z M326.9,41.5c0.5,0.7,1.5,0.9,2.2,0.4c0.7-0.5,0.9-1.5,0.4-2.2c-0.5-0.7-1.5-0.9-2.2-0.4 C326.5,39.8,326.4,40.8,326.9,41.5z" class="st0"/></g><g><path d="M323.7,34.6c0.6,0.9,0.4,2.2-0.5,2.8c-0.9,0.6-2.2,0.4-2.8-0.5c-0.6-0.9-0.4-2.2,0.5-2.8 C321.8,33.4,323.1,33.7,323.7,34.6z M321.1,36.4c0.3,0.5,1,0.6,1.5,0.3c0.5-0.3,0.6-1,0.3-1.5c-0.3-0.5-1-0.6-1.5-0.3 C320.9,35.2,320.8,35.9,321.1,36.4z" class="st0"/></g><g><path d="M333.3,30.7c1.2,1.7,0.8,4.1-1,5.3c-1.7,1.2-4.1,0.8-5.3-1c-1.2-1.7-0.8-4.1,1-5.3 C329.7,28.5,332.1,29,333.3,30.7z M328.1,34.3c0.8,1.1,2.4,1.4,3.5,0.6c1.1-0.8,1.4-2.4,0.6-3.5c-0.8-1.1-2.4-1.4-3.5-0.6 C327.6,31.6,327.3,33.2,328.1,34.3z" class="st0"/></g></g></svg>