<?xml version="1.0" encoding="utf-8"?>
<!-- Generator: Adobe Illustrator 25.0.0, SVG Export Plug-In . SVG Version: 6.00 Build 0)  -->
<svg version="1.1" id="Layer_1" xmlns="http://www.w3.org/2000/svg" xmlns:xlink="http://www.w3.org/1999/xlink" x="0px" y="0px"
	 viewBox="0 0 366.5 532.7" style="enable-background:new 0 0 366.5 532.7;" xml:space="preserve">
<style type="text/css">
	.st0{fill:#FFFFFF;}
	.st1{fill:none;stroke:#FFFFFF;stroke-width:3;stroke-linecap:round;stroke-linejoin:round;}
	.st2{fill:none;stroke:#FFFFFF;stroke-width:3;stroke-linecap:round;stroke-linejoin:round;stroke-dasharray:0,9.1302;}
	.st3{fill:none;stroke:#FFFFFF;stroke-width:3;stroke-linecap:round;stroke-linejoin:round;stroke-dasharray:0,8.447;}
	.st4{fill:none;stroke:#FFFFFF;stroke-width:3;stroke-linecap:round;stroke-linejoin:round;stroke-dasharray:0,8.8619;}
</style>
<g>
	<g>
		<path class="st0" d="M243.6,176.4l5.9,8.6c1.1,1.6,0.7,3.9-0.9,5.1c-1.6,1.1-3.9,0.7-5.1-0.9l-0.3-0.4l-4.5,3.1
			c1.1,2.7,1.7,5.6,1.8,8.4l5.4,1l0.1-0.5c0.4-2,2.3-3.3,4.2-2.9c1,0.2,1.8,0.7,2.3,1.5c0.6,0.8,0.8,1.8,0.6,2.7l-1.9,10.2
			c-0.2,1-0.7,1.8-1.5,2.3s-1.8,0.8-2.7,0.6c-1-0.2-1.8-0.7-2.3-1.5s-0.8-1.8-0.6-2.7l0.1-0.5l-5.4-1c-1.1,2.7-2.7,5.2-4.7,7.3
			l3.1,4.5l0.4-0.3c1.6-1.1,3.9-0.7,5,0.9s0.7,3.9-0.9,5.1l-8.6,5.9c-1.6,1.1-3.9,0.7-5.1-0.9c-1.1-1.6-0.7-3.9,0.9-5.1l0.4-0.3
			l-3.1-4.5c-2.7,1.1-5.6,1.8-8.5,1.8l-1,5.3l0.5,0.1c1,0.2,1.8,0.7,2.3,1.5s0.8,1.8,0.6,2.7c-0.4,2-2.3,3.3-4.2,2.9l-10.2-1.9
			c-1-0.2-1.8-0.7-2.3-1.5c-0.6-0.8-0.8-1.8-0.6-2.7c0.4-2,2.3-3.3,4.2-2.9l0.5,0.1l1-5.3c-2.7-1.1-5.2-2.7-7.3-4.7l-4.4,3.1
			l0.3,0.4c1.1,1.6,0.7,3.9-0.9,5.1s-3.9,0.7-5.1-0.9l-5.9-8.6c-1.1-1.6-0.7-3.9,0.9-5.1c1.6-1.1,3.9-0.7,5.1,0.9l0.3,0.4l4.4-3.1
			c-1.1-2.7-1.8-5.6-1.8-8.5l-5.3-1l-0.1,0.5c-0.2,1-0.7,1.8-1.5,2.3s-1.8,0.8-2.7,0.6c-1-0.2-1.8-0.7-2.3-1.5
			c-0.6-0.8-0.8-1.8-0.6-2.7l1.9-10.2c0.2-1,0.7-1.8,1.5-2.3c0.8-0.6,1.8-0.8,2.7-0.6c1,0.2,1.8,0.7,2.3,1.5s0.8,1.8,0.6,2.7
			l-0.1,0.5l5.3,1c1.1-2.7,2.7-5.2,4.7-7.3l-3.1-4.5l-0.4,0.3c-1.6,1.1-3.9,0.7-5.1-0.9c-1.1-1.6-0.7-3.9,0.9-5l8.6-5.9
			c1.6-1.1,3.9-0.7,5,0.9c1.1,1.6,0.7,3.9-0.9,5.1l-0.4,0.3l3.1,4.5c2.7-1.1,5.6-1.8,8.5-1.8l1-5.4l-0.5-0.1c-1-0.2-1.8-0.7-2.3-1.5
			c-0.6-0.8-0.8-1.8-0.6-2.7c0.2-1,0.7-1.8,1.5-2.3c0.8-0.6,1.8-0.8,2.7-0.6l10.2,1.9c1,0.2,1.8,0.7,2.3,1.5
			c0.6,0.8,0.8,1.8,0.6,2.7c-0.2,1-0.7,1.8-1.5,2.3c-0.8,0.6-1.8,0.8-2.7,0.6l-0.5-0.1l-1,5.4c2.7,1.1,5.2,2.7,7.3,4.7l4.5-3.1
			l-0.3-0.4c-1.1-1.6-0.7-3.9,0.9-5.1C240.2,174.3,242.5,174.7,243.6,176.4z M245.4,187.7c0.4,0.6,1.2,0.7,1.8,0.3
			c0.6-0.4,0.7-1.2,0.3-1.8l-5.9-8.6c-0.4-0.6-1.2-0.7-1.8-0.3c-0.6,0.4-0.7,1.2-0.3,1.8l1.6,2.4l-8.1,5.6l-0.7-0.7
			c-2.2-2.3-5-4.1-8-5.2l-0.9-0.3l1.8-9.6l2.8,0.5c0.3,0.1,0.7,0,1-0.2c0.3-0.2,0.5-0.5,0.5-0.8c0.1-0.7-0.4-1.4-1-1.5l-10.2-1.9
			c-0.3-0.1-0.7,0-1,0.2c-0.3,0.2-0.5,0.5-0.5,0.8c-0.1,0.7,0.4,1.4,1,1.5l2.8,0.5l-1.8,9.6l-1,0c-3.2-0.1-6.4,0.6-9.3,2l-0.9,0.4
			l-5.5-8l2.4-1.6c0.6-0.4,0.7-1.2,0.3-1.8c-0.4-0.6-1.2-0.7-1.8-0.3l-8.6,5.9c-0.6,0.4-0.7,1.2-0.3,1.8c0.4,0.6,1.2,0.7,1.8,0.3
			l2.4-1.6l5.6,8l-0.7,0.7c-2.3,2.2-4.1,5-5.2,8l-0.3,0.9l-9.6-1.8l0.5-2.8c0.1-0.7-0.4-1.4-1-1.5c-0.3-0.1-0.7,0-1,0.2
			c-0.3,0.2-0.5,0.5-0.5,0.8l-1.9,10.2c-0.1,0.7,0.4,1.4,1,1.5c0.3,0.1,0.7,0,1-0.2c0.3-0.2,0.5-0.5,0.5-0.8l0.5-2.8l9.6,1.8l0,1
			c-0.1,3.2,0.6,6.5,2,9.4l0.4,0.9l-8,5.5l-1.6-2.4c-0.4-0.6-1.2-0.7-1.8-0.3c-0.6,0.4-0.7,1.2-0.3,1.8l5.9,8.6
			c0.4,0.6,1.2,0.7,1.8,0.3c0.6-0.4,0.7-1.2,0.3-1.8l-1.6-2.4l8-5.5l0.7,0.7c2.2,2.3,5,4.1,8,5.2l0.9,0.3l-1.8,9.6l-2.8-0.5
			c-0.7-0.1-1.4,0.3-1.5,1c-0.1,0.7,0.4,1.4,1,1.5l10.2,1.9c0.7,0.1,1.4-0.3,1.5-1c0.1-0.7-0.4-1.4-1-1.5l-2.8-0.5l1.8-9.6l1,0
			c3.2,0.1,6.5-0.6,9.4-2l0.9-0.4l5.5,8l-2.4,1.6c-0.6,0.4-0.7,1.2-0.3,1.8c0.4,0.6,1.2,0.7,1.8,0.3l8.6-5.9
			c0.6-0.4,0.7-1.2,0.3-1.8s-1.2-0.7-1.8-0.3l-2.4,1.6l-5.5-8l0.7-0.7c2.3-2.2,4.1-5,5.2-8.1l0.3-0.9l9.6,1.8l-0.5,2.8
			c-0.1,0.7,0.4,1.4,1,1.5c0.3,0.1,0.7,0,1-0.2c0.3-0.2,0.5-0.5,0.5-0.8l1.9-10.2c0.1-0.7-0.4-1.4-1-1.5c-0.7-0.1-1.4,0.3-1.5,1
			l-0.5,2.8l-9.6-1.8l0-1c0.1-3.2-0.6-6.4-2-9.3l-0.4-0.9l8.1-5.6L245.4,187.7z"/>
	</g>
	<g>
		<path class="st0" d="M223.1,207.3c1.8,2.6,1.1,6.1-1.4,7.8c-2.6,1.8-6.1,1.1-7.8-1.4c-1.8-2.6-1.1-6.1,1.4-7.8
			C217.8,204.1,221.3,204.8,223.1,207.3z M215.7,212.4c1,1.5,3.1,1.9,4.6,0.8c1.5-1,1.9-3.1,0.8-4.6c-1-1.5-3.1-1.9-4.6-0.8
			C215.1,208.9,214.7,210.9,215.7,212.4z"/>
	</g>
	<g>
		<path class="st0" d="M209.3,198.1c1.3,1.9,0.8,4.5-1.1,5.8c-1.9,1.3-4.5,0.8-5.8-1.1c-1.3-1.9-0.8-4.5,1.1-5.8
			C205.3,195.8,208,196.2,209.3,198.1z M204,201.8c0.7,1,2.1,1.3,3.1,0.6c1-0.7,1.3-2.1,0.6-3.1c-0.7-1-2.1-1.3-3.1-0.6
			C203.5,199.4,203.3,200.8,204,201.8z"/>
	</g>
	<g>
		<path class="st0" d="M228.9,190.1c2.5,3.6,1.6,8.5-2,11c-3.6,2.5-8.5,1.6-11-2s-1.6-8.5,2-11S226.4,186.6,228.9,190.1z
			 M218.2,197.6c1.6,2.3,4.8,2.9,7.2,1.3c2.3-1.6,2.9-4.8,1.3-7.2c-1.6-2.3-4.8-2.9-7.2-1.3C217.2,192,216.6,195.2,218.2,197.6z"/>
	</g>
</g>
<g>
	<g>
		<line class="st1" x1="192.7" y1="240.3" x2="192.7" y2="240.3"/>
		<line class="st2" x1="186" y1="246.5" x2="142.6" y2="287"/>
		<line class="st1" x1="139.3" y1="290.1" x2="139.3" y2="290.1"/>
	</g>
</g>
<g>
	<g>
		<path class="st0" d="M101.4,109.6l6.8,2.3c1.3,0.4,2,1.9,1.6,3.2c-0.4,1.3-1.9,2-3.2,1.6l-0.3-0.1l-1.2,3.6c1.7,1,3.3,2.3,4.5,3.9
			l3.4-1.7l-0.2-0.3c-0.6-1.2-0.1-2.7,1.1-3.4c0.6-0.3,1.3-0.3,1.9-0.1c0.6,0.2,1.1,0.7,1.4,1.3l3.2,6.4c0.3,0.6,0.3,1.3,0.1,1.9
			c-0.2,0.6-0.7,1.1-1.3,1.4c-0.6,0.3-1.3,0.3-1.9,0.1s-1.1-0.7-1.4-1.3l-0.2-0.3l-3.4,1.7c0.5,2,0.7,4,0.4,6l3.6,1.2l0.1-0.3
			c0.4-1.3,1.9-2,3.2-1.6c1.3,0.4,2,1.9,1.6,3.2l-2.3,6.8c-0.4,1.3-1.9,2-3.2,1.6c-1.3-0.4-2-1.9-1.6-3.2l0.1-0.3l-3.6-1.2
			c-1,1.7-2.4,3.3-4,4.5l1.7,3.4l0.3-0.2c0.6-0.3,1.3-0.3,1.9-0.1s1.1,0.7,1.4,1.3c0.6,1.2,0.1,2.7-1.1,3.4l-6.4,3.2
			c-0.6,0.3-1.3,0.3-1.9,0.1c-0.6-0.2-1.1-0.7-1.4-1.3c-0.6-1.2-0.1-2.7,1.1-3.4l0.3-0.2l-1.7-3.4c-1.9,0.5-4,0.6-6,0.4l-1.2,3.5
			l0.3,0.1c1.3,0.4,2,1.9,1.6,3.2c-0.4,1.3-1.9,2-3.2,1.6l-6.8-2.3c-1.3-0.4-2-1.9-1.6-3.2s1.9-2,3.2-1.6l0.3,0.1l1.2-3.5
			c-1.7-1-3.3-2.4-4.5-4l-3.3,1.7l0.2,0.3c0.3,0.6,0.3,1.3,0.1,1.9s-0.7,1.1-1.3,1.4c-0.6,0.3-1.3,0.3-1.9,0.1s-1.1-0.7-1.4-1.3
			l-3.2-6.4c-0.3-0.6-0.3-1.3-0.1-1.9s0.7-1.1,1.3-1.4c0.6-0.3,1.3-0.3,1.9-0.1c0.6,0.2,1.1,0.7,1.4,1.3l0.2,0.3l3.4-1.7
			c-0.5-1.9-0.6-4-0.4-6l-3.6-1.2l-0.1,0.3c-0.4,1.3-1.9,2-3.2,1.6c-1.3-0.4-2-1.9-1.6-3.2l2.3-6.8c0.4-1.3,1.9-2,3.2-1.6
			c1.3,0.4,2,1.9,1.6,3.2l-0.1,0.3l3.6,1.2c1-1.7,2.4-3.3,3.9-4.5l-1.7-3.4l-0.3,0.2c-0.6,0.3-1.3,0.3-1.9,0.1
			c-0.6-0.2-1.1-0.7-1.4-1.3c-0.3-0.6-0.3-1.3-0.1-1.9c0.2-0.6,0.7-1.2,1.3-1.4l6.4-3.2c0.6-0.3,1.3-0.3,1.9-0.1
			c0.6,0.2,1.1,0.7,1.4,1.3c0.3,0.6,0.3,1.3,0.1,1.9c-0.2,0.6-0.7,1.1-1.3,1.4l-0.3,0.2l1.7,3.4c1.9-0.5,4-0.7,6-0.4l1.2-3.6
			l-0.3-0.1c-1.3-0.4-2-1.9-1.6-3.2S100.1,109.2,101.4,109.6z M107.1,115.2c0.5,0.2,1-0.1,1.1-0.6c0.2-0.5-0.1-1-0.6-1.1l-6.8-2.3
			c-0.5-0.2-1,0.1-1.1,0.6c-0.2,0.5,0.1,1,0.6,1.1l1.9,0.6l-2.2,6.4l-0.7-0.1c-2.2-0.4-4.5-0.2-6.6,0.4l-0.7,0.2l-3-6.1l1.8-0.9
			c0.2-0.1,0.4-0.3,0.4-0.5c0.1-0.2,0.1-0.5,0-0.7c-0.2-0.4-0.8-0.6-1.2-0.4l-6.4,3.2c-0.2,0.1-0.4,0.3-0.5,0.5
			c-0.1,0.2-0.1,0.5,0,0.7c0.2,0.4,0.8,0.6,1.2,0.4l1.8-0.9l3,6.1l-0.6,0.4c-1.8,1.3-3.3,3-4.3,5l-0.3,0.6l-6.4-2.2l0.6-1.9
			c0.2-0.5-0.1-1-0.6-1.1c-0.5-0.2-1,0.1-1.1,0.6l-2.3,6.8c-0.2,0.5,0.1,1,0.6,1.1c0.5,0.2,1-0.1,1.1-0.6l0.6-1.9l6.4,2.2l-0.1,0.7
			c-0.4,2.2-0.2,4.4,0.4,6.6l0.2,0.7l-6,3l-0.9-1.8c-0.2-0.4-0.8-0.6-1.2-0.4c-0.2,0.1-0.4,0.3-0.5,0.5c-0.1,0.2-0.1,0.5,0,0.7
			l3.2,6.4c0.2,0.4,0.8,0.6,1.2,0.4c0.2-0.1,0.4-0.3,0.5-0.5c0.1-0.2,0.1-0.5,0-0.7l-0.9-1.8l6-3l0.4,0.6c1.3,1.8,3,3.3,5,4.4
			l0.6,0.3l-2.1,6.3l-1.9-0.6c-0.5-0.2-1,0.1-1.1,0.6c-0.2,0.5,0.1,1,0.6,1.1l6.8,2.3c0.5,0.2,1-0.1,1.1-0.6c0.2-0.5-0.1-1-0.6-1.1
			l-1.9-0.6l2.1-6.3l0.7,0.1c2.2,0.4,4.5,0.2,6.6-0.4l0.7-0.2l3,6l-1.8,0.9c-0.4,0.2-0.6,0.8-0.4,1.2c0.2,0.4,0.8,0.6,1.2,0.4
			l6.4-3.2c0.4-0.2,0.6-0.8,0.4-1.2c-0.2-0.4-0.8-0.6-1.2-0.4l-1.8,0.9l-3-6l0.6-0.4c1.8-1.3,3.3-3,4.4-5l0.3-0.6l6.4,2.2l-0.6,1.9
			c-0.2,0.5,0.1,1,0.6,1.1c0.5,0.2,1-0.1,1.1-0.6l2.3-6.8c0.2-0.5-0.1-1-0.6-1.1c-0.5-0.2-1,0.1-1.1,0.6l-0.6,1.9L111,137l0.1-0.7
			c0.4-2.2,0.2-4.5-0.5-6.6l-0.2-0.7l6.1-3l0.9,1.8c0.2,0.4,0.8,0.6,1.2,0.4c0.2-0.1,0.4-0.3,0.5-0.5c0.1-0.2,0.1-0.5,0-0.7
			l-3.2-6.4c-0.2-0.4-0.8-0.6-1.2-0.4c-0.4,0.2-0.6,0.8-0.4,1.2l0.9,1.8l-6.1,3l-0.4-0.6c-1.3-1.8-3-3.3-5-4.3L103,121l2.2-6.4
			L107.1,115.2z"/>
	</g>
	<g>
		<path class="st0" d="M102.8,135.3c2,0.7,3.1,2.9,2.4,4.9c-0.7,2-2.9,3.1-4.9,2.4s-3.1-2.9-2.4-4.9
			C98.6,135.7,100.8,134.6,102.8,135.3z M100.9,141.1c1.2,0.4,2.5-0.2,2.9-1.4c0.4-1.2-0.2-2.5-1.4-2.9c-1.2-0.4-2.5,0.2-2.9,1.4
			C99,139.4,99.7,140.7,100.9,141.1z"/>
	</g>
	<g>
		<path class="st0" d="M91.4,135.9c1.5,0.5,2.3,2.2,1.8,3.7c-0.5,1.5-2.2,2.3-3.7,1.8c-1.5-0.5-2.3-2.2-1.8-3.7
			C88.2,136.2,89.9,135.4,91.4,135.9z M89.9,140.1c0.8,0.3,1.7-0.2,2-1c0.3-0.8-0.2-1.7-1-2c-0.8-0.3-1.7,0.2-2,1
			C88.7,139,89.1,139.9,89.9,140.1z"/>
	</g>
	<g>
		<path class="st0" d="M98.9,123.4c2.8,1,4.4,4.1,3.4,6.9c-1,2.8-4.1,4.4-6.9,3.4c-2.8-1-4.4-4.1-3.4-6.9
			C93,123.9,96.1,122.4,98.9,123.4z M96.1,131.9c1.9,0.6,3.9-0.4,4.5-2.2c0.6-1.9-0.4-3.9-2.2-4.5s-3.9,0.4-4.5,2.2
			C93.2,129.2,94.2,131.3,96.1,131.9z"/>
	</g>
</g>
<g>
	<g>
		<line class="st1" x1="132" y1="151.5" x2="132" y2="151.5"/>
		<line class="st3" x1="139.6" y1="155.2" x2="173.7" y2="172"/>
		<line class="st1" x1="177.5" y1="173.9" x2="177.5" y2="173.9"/>
	</g>
</g>
<g>
	<g>
		<g>
			<path class="st0" d="M286.7,403.7l-9.1,9.8c-1.8,1.9-4.7,2-6.6,0.2c-1.9-1.8-2-4.7-0.2-6.6l0.5-0.5l-5.2-4.8
				c-3,2.2-6.5,3.7-10.1,4.6l0.2,7.1l0.7,0c2.6-0.1,4.7,1.9,4.8,4.5c0,1.2-0.4,2.4-1.3,3.3c-0.9,0.9-2,1.4-3.3,1.5l-13.3,0.5
				c-1.2,0-2.4-0.4-3.3-1.3s-1.4-2-1.5-3.3c0-1.2,0.4-2.4,1.3-3.3c0.9-0.9,2-1.4,3.3-1.5l0.7,0l-0.2-7c-3.7-0.6-7.3-2-10.5-3.9
				l-4.8,5.1l0.5,0.5c1.9,1.8,2,4.7,0.2,6.6s-4.7,2-6.6,0.2l-9.8-9.1c-1.9-1.8-2-4.7-0.2-6.6c1.8-1.9,4.7-2,6.6-0.2l0.5,0.5l4.8-5.1
				c-2.2-3.1-3.7-6.5-4.6-10.2l-7,0.2l0,0.7c0,1.2-0.4,2.4-1.3,3.3c-0.9,0.9-2,1.4-3.3,1.5c-2.6,0.1-4.7-1.9-4.8-4.5l-0.5-13.3
				c0-1.2,0.4-2.4,1.3-3.3c0.9-0.9,2-1.4,3.3-1.5c2.6-0.1,4.7,1.9,4.8,4.5l0,0.7l7-0.2c0.6-3.7,2-7.3,3.9-10.4l-5.1-4.7l-0.5,0.5
				c-1.8,1.9-4.7,2-6.6,0.2c-1.9-1.8-2-4.7-0.2-6.6l9.1-9.8c1.8-1.9,4.7-2,6.6-0.2c1.9,1.8,2,4.7,0.2,6.6l-0.5,0.5l5.1,4.7
				c3.1-2.2,6.6-3.8,10.2-4.6l-0.2-6.9l-0.7,0c-1.2,0-2.4-0.4-3.3-1.3c-0.9-0.9-1.4-2-1.5-3.3c0-1.2,0.4-2.4,1.3-3.3
				c0.9-0.9,2-1.4,3.3-1.5l13.3-0.5c1.2,0,2.4,0.4,3.3,1.3c0.9,0.9,1.4,2,1.5,3.3c0,1.2-0.4,2.4-1.3,3.3s-2,1.4-3.3,1.5l-0.7,0
				l0.2,6.9c3.7,0.6,7.2,2,10.4,3.9l4.8-5.1l-0.5-0.5c-1.9-1.8-2-4.7-0.2-6.6c1.8-1.9,4.7-2,6.6-0.2l9.8,9.1c1.9,1.8,2,4.7,0.2,6.6
				c-1.8,1.9-4.7,2-6.6,0.2l-0.5-0.5l-4.8,5.1c2.2,3,3.7,6.5,4.6,10.1l7-0.2l0-0.7c0-1.2,0.4-2.4,1.3-3.3s2-1.4,3.3-1.5
				c1.2,0,2.4,0.4,3.3,1.2c0.9,0.9,1.4,2,1.5,3.3l0.5,13.3c0,1.2-0.4,2.4-1.3,3.3c-0.9,0.9-2,1.4-3.3,1.5c-1.2,0-2.4-0.4-3.3-1.3
				c-0.9-0.9-1.4-2-1.5-3.3l0-0.7l-7,0.2c-0.6,3.7-2,7.3-3.9,10.5l5.2,4.8l0.5-0.5c1.8-1.9,4.7-2,6.6-0.2
				C288.4,398.8,288.5,401.8,286.7,403.7z M273,409.1c-0.6,0.7-0.6,1.7,0.1,2.3c0.7,0.6,1.7,0.6,2.3-0.1l9.1-9.8
				c0.6-0.7,0.6-1.7-0.1-2.3c-0.7-0.6-1.7-0.6-2.3,0.1l-2.5,2.7l-9.2-8.6l0.7-1.1c2.3-3.4,3.8-7.4,4.3-11.5l0.2-1.3l12.6-0.4
				l0.1,3.7c0,0.4,0.2,0.9,0.5,1.2c0.3,0.3,0.7,0.5,1.2,0.4c0.9,0,1.6-0.8,1.6-1.7l-0.5-13.3c0-0.4-0.2-0.9-0.5-1.2
				c-0.3-0.3-0.7-0.5-1.2-0.4c-0.9,0-1.6,0.8-1.6,1.7l0.1,3.7l-12.6,0.4l-0.2-1.3c-0.8-4-2.5-7.9-5.1-11.2l-0.8-1l8.6-9.2l2.7,2.5
				c0.7,0.6,1.7,0.6,2.3-0.1c0.6-0.7,0.6-1.7-0.1-2.3L273,342c-0.7-0.6-1.7-0.6-2.3,0.1c-0.6,0.7-0.6,1.7,0.1,2.3l2.7,2.5l-8.6,9.2
				l-1.1-0.7c-3.4-2.3-7.4-3.8-11.4-4.3l-1.3-0.2l-0.4-12.5l3.7-0.1c0.9,0,1.6-0.8,1.6-1.7c0-0.4-0.2-0.9-0.5-1.2s-0.7-0.5-1.2-0.4
				l-13.3,0.5c-0.9,0-1.6,0.8-1.6,1.7c0,0.4,0.2,0.9,0.5,1.2s0.7,0.5,1.2,0.4l3.7-0.1l0.4,12.5l-1.3,0.2c-4.1,0.8-8,2.5-11.2,5.1
				l-1,0.8l-9.1-8.5l2.5-2.7c0.6-0.7,0.6-1.7-0.1-2.3c-0.7-0.6-1.7-0.6-2.3,0.1l-9.1,9.8c-0.6,0.7-0.6,1.7,0.1,2.3
				c0.7,0.6,1.7,0.6,2.3-0.1l2.5-2.7l9.1,8.5l-0.7,1.1c-2.3,3.4-3.8,7.4-4.3,11.5l-0.2,1.3l-12.5,0.4l-0.1-3.7
				c0-0.9-0.8-1.6-1.7-1.6c-0.9,0-1.6,0.8-1.6,1.7l0.5,13.3c0,0.9,0.8,1.6,1.7,1.6c0.9,0,1.6-0.8,1.6-1.7l-0.1-3.7l12.5-0.4l0.2,1.3
				c0.8,4.1,2.5,7.9,5.1,11.2l0.8,1l-8.5,9.1l-2.7-2.5c-0.7-0.6-1.7-0.6-2.3,0.1c-0.6,0.7-0.6,1.7,0.1,2.3l9.8,9.1
				c0.7,0.6,1.7,0.6,2.3-0.1s0.6-1.7-0.1-2.3l-2.7-2.5l8.5-9.1l1.1,0.7c3.4,2.3,7.4,3.8,11.6,4.3l1.3,0.2l0.4,12.6l-3.7,0.1
				c-0.9,0-1.6,0.8-1.6,1.7c0,0.4,0.2,0.9,0.5,1.2c0.3,0.3,0.7,0.5,1.2,0.4l13.3-0.5c0.9,0,1.6-0.8,1.6-1.7c0-0.9-0.8-1.6-1.7-1.6
				l-3.7,0.1l-0.4-12.6l1.3-0.2c4-0.8,7.9-2.5,11.1-5.1l1-0.8l9.2,8.6L273,409.1z"/>
		</g>
		<g>
			<path class="st0" d="M242.2,386.4c-2.7,2.9-7.3,3.1-10.2,0.3c-2.9-2.7-3.1-7.3-0.3-10.2c2.7-2.9,7.3-3.1,10.2-0.3
				C244.8,378.9,244.9,383.5,242.2,386.4z M233.8,378.6c-1.6,1.7-1.5,4.4,0.2,6c1.7,1.6,4.4,1.5,6-0.2c1.6-1.7,1.5-4.4-0.2-6
				C238.1,376.8,235.4,376.9,233.8,378.6z"/>
		</g>
		<g>
			<path class="st0" d="M250,366.6c-2,2.2-5.5,2.3-7.6,0.3c-2.2-2-2.3-5.5-0.3-7.6c2-2.2,5.5-2.3,7.6-0.3
				C251.9,361,252,364.4,250,366.6z M243.9,360.9c-1.1,1.2-1,3,0.1,4.1c1.2,1.1,3,1,4.1-0.1c1.1-1.2,1-3-0.1-4.1
				C246.8,359.7,245,359.7,243.9,360.9z"/>
		</g>
		<g>
			<path class="st0" d="M265.4,389c-3.8,4.1-10.2,4.3-14.3,0.5c-4.1-3.8-4.3-10.2-0.5-14.3c3.8-4.1,10.2-4.3,14.3-0.5
				C269,378.5,269.2,384.9,265.4,389z M253.1,377.6c-2.5,2.7-2.4,6.9,0.3,9.4c2.7,2.5,6.9,2.4,9.4-0.3c2.5-2.7,2.4-6.9-0.3-9.4
				C259.8,374.8,255.6,374.9,253.1,377.6z"/>
		</g>
	</g>
	<g>
		<g>
			<line class="st1" x1="192.4" y1="359.3" x2="192.4" y2="359.3"/>
			<line class="st4" x1="184" y1="356.8" x2="137.3" y2="342.6"/>
			<line class="st1" x1="133.1" y1="341.3" x2="133.1" y2="341.3"/>
		</g>
	</g>
</g>
</svg>
