<svg xmlns="http://www.w3.org/2000/svg" xmlns:xlink="http://www.w3.org/1999/xlink" id="Layer_1" x="0" y="0" version="1.1" viewBox="0 0 138.6 134.7" xml:space="preserve" style="enable-background:new 0 0 138.6 134.7"><style type="text/css">.st0{fill:#fff}</style><g id="_x31_oeEAw_2_"><g><path d="M69.4,101.5c-13.2,0-26.5,0-39.7,0c-6.8,0-11.7-4.9-10.8-11.2c0.4-2.5,1.7-4.9,3-7.2 c12.7-21.4,25.4-42.7,38.2-64c4.7-7.8,13.9-7.7,18.6,0.2c12.9,21.8,26,43.5,39,65.2c3.2,5.4,3,10.4-0.9,14.2 c-2.2,2.1-4.9,2.8-7.9,2.8C95.8,101.5,82.6,101.5,69.4,101.5z M69.3,94.4c12.9,0,25.9,0,38.8,0c1.7,0,3.4,0.2,4.5-1.6 c1.1-1.8,0-3.2-0.8-4.6c-13-21.8-26-43.5-38.9-65.3c-2.1-3.5-4.5-3.5-6.6,0C53.1,44.7,40.1,66.6,27,88.4c-0.8,1.4-1.7,2.7-0.7,4.4 c1,1.7,2.6,1.6,4.2,1.6C43.4,94.4,56.4,94.4,69.3,94.4z" class="st0"/><path d="M89.9,124.1c0.4,0,0.6,0.1,0.8,0.1c-0.1,0-0.2,0.1-0.3,0.1C90.3,124.3,90.2,124.2,89.9,124.1z" class="st0"/><path d="M64.3,48.8c0-2,0-4,0-6c0.1-2.8,1.9-4.4,5.1-4.5c3.2,0,5.2,1.6,5.1,4.4c-0.4,7.9-0.9,15.8-1.3,23.6 c0,0.2,0,0.3-0.1,0.5c-0.5,3.2-1.6,4.5-3.6,4.5c-2.1,0-3.4-1.5-3.7-4.7c-0.5-6-0.8-11.9-1.2-17.9C64.5,48.8,64.4,48.8,64.3,48.8z" class="st0"/><path d="M69.3,86.6c-3-0.1-5.2-2.4-5.1-5.4c0-2.9,2.5-5.3,5.4-5.2c2.9,0.1,5.2,2.6,5.2,5.5 C74.7,84.4,72.3,86.7,69.3,86.6z" class="st0"/></g></g></svg>