<?xml version="1.0" standalone="no"?>
<!DOCTYPE svg PUBLIC "-//W3C//DTD SVG 20010904//EN"
 "http://www.w3.org/TR/2001/REC-SVG-20010904/DTD/svg10.dtd">
<svg version="1.0" xmlns="http://www.w3.org/2000/svg"
 width="260.000000pt" height="260.000000pt" viewBox="0 0 260.000000 260.000000"
 preserveAspectRatio="xMidYMid meet">
<metadata>
Created by potrace 1.11, written by Peter Selinger 2001-2013
</metadata>
<g transform="translate(0.000000,260.000000) scale(0.100000,-0.100000)"
fill="#000000" stroke="none">
<path d="M1078 2440 c-48 -10 -116 -28 -151 -39 -81 -27 -232 -104 -232 -119
0 -11 465 -506 470 -500 5 5 125 642 125 662 0 22 -97 20 -212 -4z"/>
<path d="M1310 2444 c0 -20 120 -657 125 -662 5 -6 470 489 470 500 0 16 -158
95 -246 123 -162 51 -349 72 -349 39z"/>
<path d="M609 2230 c-121 -91 -232 -221 -318 -373 -24 -42 -29 -58 -19 -62 7
-2 150 -38 318 -80 168 -42 313 -78 323 -81 10 -3 17 0 17 9 0 12 -245 625
-253 633 -1 2 -32 -19 -68 -46z"/>
<path d="M1796 1967 c-69 -172 -126 -318 -126 -325 0 -8 7 -11 18 -8 9 3 154
39 322 81 168 42 311 78 318 80 15 5 -18 69 -91 180 -47 70 -202 228 -268 273
l-47 31 -126 -312z"/>
<path d="M230 1723 c-50 -133 -64 -219 -64 -390 -1 -89 1 -164 4 -166 5 -5
638 207 648 218 3 3 3 7 1 9 -29 25 -550 386 -558 386 -5 0 -19 -26 -31 -57z"/>
<path d="M2065 1594 c-143 -102 -267 -189 -275 -194 -8 -4 -12 -11 -9 -15 11
-10 644 -224 649 -218 3 2 5 77 4 166 0 130 -4 179 -21 247 -28 113 -62 200
-76 199 -7 0 -129 -83 -272 -185z"/>
<path d="M1220 1161 c-129 -42 -208 -142 -218 -272 -7 -98 17 -159 88 -230
l56 -57 -50 15 c-207 60 -376 208 -467 409 -16 35 -33 64 -38 64 -10 0 -350
47 -394 55 -27 5 -28 4 -21 -33 62 -342 292 -649 609 -812 314 -160 716 -160
1030 0 317 163 547 470 609 812 7 37 6 38 -21 33 -44 -8 -384 -55 -394 -55 -5
0 -22 -29 -38 -64 -91 -201 -260 -349 -467 -409 l-50 -15 56 57 c71 71 95 132
88 230 -12 158 -126 270 -283 277 -38 2 -81 0 -95 -5z"/>
</g>
</svg>
